<svg xmlns="http://www.w3.org/2000/svg" xmlns:xlink="http://www.w3.org/1999/xlink" contentStyleType="text/css" data-diagram-type="DESCRIPTION" height="682px" preserveAspectRatio="none" style="width:1151px;height:682px;background:#FFFFFF;" version="1.1" viewBox="0 0 1151 682" width="1151px" zoomAndPan="magnify"><defs/><g><!--entity customer_journey--><g class="entity" data-entity="customer_journey" data-source-line="127" data-uid="ent0002" id="entity_customer_journey"><rect fill="#FFFFCC" height="52.7988" rx="12.5" ry="12.5" style="stroke:#181818;stroke-width:0.5;" width="140" x="187" y="212.6"/><path d="M311.729,226.1 A0.5001,0.5001 0 0 0 311.4009,226.5746 L311.4263,229.2113 L298.8693,229.2153 A0.5001,0.5001 0 0 0 298.3693,229.7153 L298.3654,235.7641 A0.5001,0.5001 0 0 0 298.8673,236.2641 L311.3963,236.2172 L311.3963,238.5434 A0.5001,0.5001 0 0 0 312.2791,238.8637 L317.2732,232.9106 A0.5001,0.5001 0 0 0 317.2752,232.27 L312.285,226.2505 A0.5001,0.5001 0 0 0 311.7284,226.1001 M312.4146,227.973 L316.2408,232.5882 L312.397,237.1683 L312.397,235.7152 A0.5001,0.5001 0 0 0 311.895,235.2152 L299.366,235.2621 L299.3699,230.2152 L311.9309,230.2112 A0.5001,0.5001 0 0 0 312.4309,229.7073" fill="#000000"/><text fill="#212529" font-family="Arial" font-size="12" lengthAdjust="spacing" textLength="52.0137" x="207.9805" y="252.8559">Customer</text><text fill="#212529" font-family="Arial" font-size="12" lengthAdjust="spacing" textLength="3.334" x="259.9941" y="252.8559">&#160;</text><text fill="#212529" font-family="Arial" font-size="12" lengthAdjust="spacing" textLength="42.6914" x="263.3281" y="252.8559">Journey</text></g><!--entity ltv_domain_core--><g class="entity" data-entity="ltv_domain_core" data-source-line="127" data-uid="ent0003" id="entity_ltv_domain_core"><rect fill="#FFFFCC" height="52.7988" rx="12.5" ry="12.5" style="stroke:#181818;stroke-width:0.5;" width="140" x="7" y="315.39"/><path d="M131.729,328.89 A0.5001,0.5001 0 0 0 131.4009,329.3646 L131.4263,332.0013 L118.8693,332.0053 A0.5001,0.5001 0 0 0 118.3693,332.5053 L118.3654,338.5541 A0.5001,0.5001 0 0 0 118.8673,339.0541 L131.3963,339.0072 L131.3963,341.3334 A0.5001,0.5001 0 0 0 132.2791,341.6537 L137.2732,335.7006 A0.5001,0.5001 0 0 0 137.2752,335.06 L132.285,329.0405 A0.5001,0.5001 0 0 0 131.7284,328.8901 M132.4146,330.763 L136.2408,335.3782 L132.397,339.9583 L132.397,338.5052 A0.5001,0.5001 0 0 0 131.895,338.0052 L119.366,338.0521 L119.3699,333.0052 L131.9309,333.0012 A0.5001,0.5001 0 0 0 132.4309,332.4973" fill="#000000"/><text fill="#212529" font-family="Arial" font-size="12" lengthAdjust="spacing" textLength="22.0078" x="17.9785" y="355.6459">LTV</text><text fill="#212529" font-family="Arial" font-size="12" lengthAdjust="spacing" textLength="3.334" x="39.9863" y="355.6459">&#160;</text><text fill="#212529" font-family="Arial" font-size="12" lengthAdjust="spacing" textLength="48.0176" x="43.3203" y="355.6459">Analytics</text><text fill="#212529" font-family="Arial" font-size="12" lengthAdjust="spacing" textLength="3.334" x="91.3379" y="355.6459">&#160;</text><text fill="#212529" font-family="Arial" font-size="12" lengthAdjust="spacing" textLength="41.3496" x="94.6719" y="355.6459">Domain</text></g><!--entity ltv_calculation--><g class="entity" data-entity="ltv_calculation" data-source-line="130" data-uid="ent0004" id="entity_ltv_calculation"><rect fill="#FFFFCC" height="52.7988" rx="12.5" ry="12.5" style="stroke:#181818;stroke-width:0.5;" width="140" x="741" y="315.39"/><path d="M861.759,329.71 L852.7961,333.6788 A0.5001,0.5001 0 0 0 852.4992,334.1358 L852.4992,342.1729 A0.5001,0.5001 0 0 0 853.2004,342.63 L861.9953,338.7511 L870.7883,342.63 A0.5001,0.5001 0 0 0 871.4914,342.1729 L871.4914,334.169 A0.5001,0.5001 0 0 0 871.1926,333.712 L862.1653,329.71 A0.5001,0.5001 0 0 0 861.759,329.71 M861.9621,330.7139 L870.4914,334.4932 L870.4914,341.4073 L862.1965,337.7471 A0.5001,0.5001 0 0 0 861.7922,337.7471 L853.4992,341.4073 L853.4992,334.462" fill="#000000"/><text fill="#212529" font-family="Arial" font-size="12" lengthAdjust="spacing" textLength="22.0078" x="768.6455" y="355.6459">LTV</text><text fill="#212529" font-family="Arial" font-size="12" lengthAdjust="spacing" textLength="3.334" x="790.6533" y="355.6459">&#160;</text><text fill="#212529" font-family="Arial" font-size="12" lengthAdjust="spacing" textLength="59.3672" x="793.9873" y="355.6459">Calculation</text></g><!--entity cohort_analysis--><g class="entity" data-entity="cohort_analysis" data-source-line="130" data-uid="ent0005" id="entity_cohort_analysis"><rect fill="#FFFFCC" height="52.7988" rx="12.5" ry="12.5" style="stroke:#181818;stroke-width:0.5;" width="140" x="561" y="315.39"/><path d="M681.759,329.71 L672.7961,333.6788 A0.5001,0.5001 0 0 0 672.4992,334.1358 L672.4992,342.1729 A0.5001,0.5001 0 0 0 673.2004,342.63 L681.9953,338.7511 L690.7883,342.63 A0.5001,0.5001 0 0 0 691.4914,342.1729 L691.4914,334.169 A0.5001,0.5001 0 0 0 691.1926,333.712 L682.1653,329.71 A0.5001,0.5001 0 0 0 681.759,329.71 M681.9621,330.7139 L690.4914,334.4932 L690.4914,341.4073 L682.1965,337.7471 A0.5001,0.5001 0 0 0 681.7922,337.7471 L673.4992,341.4073 L673.4992,334.462" fill="#000000"/><text fill="#212529" font-family="Arial" font-size="12" lengthAdjust="spacing" textLength="36.0176" x="588.9824" y="355.6459">Cohort</text><text fill="#212529" font-family="Arial" font-size="12" lengthAdjust="spacing" textLength="3.334" x="625" y="355.6459">&#160;</text><text fill="#212529" font-family="Arial" font-size="12" lengthAdjust="spacing" textLength="44.6836" x="628.334" y="355.6459">Analysis</text></g><!--entity segmentation--><g class="entity" data-entity="segmentation" data-source-line="130" data-uid="ent0006" id="entity_segmentation"><rect fill="#FFFFCC" height="52.7988" rx="12.5" ry="12.5" style="stroke:#181818;stroke-width:0.5;" width="149.3984" x="733.3" y="418.19"/><path d="M863.4574,432.51 L854.4945,436.4788 A0.5001,0.5001 0 0 0 854.1977,436.9358 L854.1977,444.9729 A0.5001,0.5001 0 0 0 854.8988,445.43 L863.6937,441.5511 L872.4867,445.43 A0.5001,0.5001 0 0 0 873.1898,444.9729 L873.1898,436.969 A0.5001,0.5001 0 0 0 872.891,436.512 L863.8637,432.51 A0.5001,0.5001 0 0 0 863.4575,432.51 M863.6606,433.5139 L872.1899,437.2932 L872.1899,444.2073 L863.895,440.5471 A0.5001,0.5001 0 0 0 863.4907,440.5471 L855.1977,444.2073 L855.1977,437.262" fill="#000000"/><text fill="#212529" font-family="Arial" font-size="12" lengthAdjust="spacing" textLength="52.0137" x="743.3" y="458.4459">Customer</text><text fill="#212529" font-family="Arial" font-size="12" lengthAdjust="spacing" textLength="3.334" x="795.3137" y="458.4459">&#160;</text><text fill="#212529" font-family="Arial" font-size="12" lengthAdjust="spacing" textLength="74.0508" x="798.6477" y="458.4459">Segmentation</text></g><!--entity retention_domain_core--><g class="entity" data-entity="retention_domain_core" data-source-line="127" data-uid="ent0007" id="entity_retention_domain_core"><rect fill="#FFFFCC" height="52.7988" rx="12.5" ry="12.5" style="stroke:#181818;stroke-width:0.5;" width="140" x="187" y="315.39"/><path d="M311.729,328.89 A0.5001,0.5001 0 0 0 311.4009,329.3646 L311.4263,332.0013 L298.8693,332.0053 A0.5001,0.5001 0 0 0 298.3693,332.5053 L298.3654,338.5541 A0.5001,0.5001 0 0 0 298.8673,339.0541 L311.3963,339.0072 L311.3963,341.3334 A0.5001,0.5001 0 0 0 312.2791,341.6537 L317.2732,335.7006 A0.5001,0.5001 0 0 0 317.2752,335.06 L312.285,329.0405 A0.5001,0.5001 0 0 0 311.7284,328.8901 M312.4146,330.763 L316.2408,335.3782 L312.397,339.9583 L312.397,338.5052 A0.5001,0.5001 0 0 0 311.895,338.0052 L299.366,338.0521 L299.3699,333.0052 L311.9309,333.0012 A0.5001,0.5001 0 0 0 312.4309,332.4973" fill="#000000"/><text fill="#212529" font-family="Arial" font-size="12" lengthAdjust="spacing" textLength="51.3691" x="208.9736" y="355.6459">Retention</text><text fill="#212529" font-family="Arial" font-size="12" lengthAdjust="spacing" textLength="3.334" x="260.3428" y="355.6459">&#160;</text><text fill="#212529" font-family="Arial" font-size="12" lengthAdjust="spacing" textLength="41.3496" x="263.6768" y="355.6459">Domain</text></g><!--entity churn_prediction--><g class="entity" data-entity="churn_prediction" data-source-line="130" data-uid="ent0008" id="entity_churn_prediction"><rect fill="#FFFFCC" height="52.7988" rx="12.5" ry="12.5" style="stroke:#181818;stroke-width:0.5;" width="140" x="874" y="520.99"/><path d="M994.759,535.31 L985.7961,539.2788 A0.5001,0.5001 0 0 0 985.4992,539.7358 L985.4992,547.7729 A0.5001,0.5001 0 0 0 986.2004,548.23 L994.9953,544.3511 L1003.7883,548.23 A0.5001,0.5001 0 0 0 1004.4914,547.7729 L1004.4914,539.769 A0.5001,0.5001 0 0 0 1004.1926,539.312 L995.1653,535.31 A0.5001,0.5001 0 0 0 994.759,535.31 M994.9621,536.3139 L1003.4914,540.0932 L1003.4914,547.0073 L995.1965,543.3471 A0.5001,0.5001 0 0 0 994.7922,543.3471 L986.4992,547.0073 L986.4992,540.062" fill="#000000"/><text fill="#212529" font-family="Arial" font-size="12" lengthAdjust="spacing" textLength="32.6836" x="899.3105" y="561.2459">Churn</text><text fill="#212529" font-family="Arial" font-size="12" lengthAdjust="spacing" textLength="3.334" x="931.9941" y="561.2459">&#160;</text><text fill="#212529" font-family="Arial" font-size="12" lengthAdjust="spacing" textLength="53.3613" x="935.3281" y="561.2459">Prediction</text></g><!--entity retention_campaigns--><g class="entity" data-entity="retention_campaigns" data-source-line="130" data-uid="ent0009" id="entity_retention_campaigns"><rect fill="#FFFFCC" height="52.7988" rx="12.5" ry="12.5" style="stroke:#181818;stroke-width:0.5;" width="140" x="939" y="623.79"/><path d="M1059.759,638.11 L1050.7961,642.0788 A0.5001,0.5001 0 0 0 1050.4992,642.5358 L1050.4992,650.5729 A0.5001,0.5001 0 0 0 1051.2004,651.03 L1059.9953,647.1511 L1068.7883,651.03 A0.5001,0.5001 0 0 0 1069.4914,650.5729 L1069.4914,642.569 A0.5001,0.5001 0 0 0 1069.1926,642.112 L1060.1653,638.11 A0.5001,0.5001 0 0 0 1059.759,638.11 M1059.9621,639.1139 L1068.4914,642.8932 L1068.4914,649.8073 L1060.1965,646.1471 A0.5001,0.5001 0 0 0 1059.7922,646.1471 L1051.4992,649.8073 L1051.4992,642.862" fill="#000000"/><text fill="#212529" font-family="Arial" font-size="12" lengthAdjust="spacing" textLength="51.3691" x="951.2998" y="664.0459">Retention</text><text fill="#212529" font-family="Arial" font-size="12" lengthAdjust="spacing" textLength="3.334" x="1002.6689" y="664.0459">&#160;</text><text fill="#212529" font-family="Arial" font-size="12" lengthAdjust="spacing" textLength="60.6973" x="1006.0029" y="664.0459">Campaigns</text></g><!--entity engagement_profiling--><g class="entity" data-entity="engagement_profiling" data-source-line="130" data-uid="ent0010" id="entity_engagement_profiling"><rect fill="#FFFFCC" height="52.7988" rx="12.5" ry="12.5" style="stroke:#181818;stroke-width:0.5;" width="140" x="1005" y="418.19"/><path d="M1125.759,432.51 L1116.7961,436.4788 A0.5001,0.5001 0 0 0 1116.4992,436.9358 L1116.4992,444.9729 A0.5001,0.5001 0 0 0 1117.2004,445.43 L1125.9953,441.5511 L1134.7883,445.43 A0.5001,0.5001 0 0 0 1135.4914,444.9729 L1135.4914,436.969 A0.5001,0.5001 0 0 0 1135.1926,436.512 L1126.1653,432.51 A0.5001,0.5001 0 0 0 1125.759,432.51 M1125.9621,433.5139 L1134.4914,437.2932 L1134.4914,444.2073 L1126.1965,440.5471 A0.5001,0.5001 0 0 0 1125.7922,440.5471 L1117.4992,444.2073 L1117.4992,437.262" fill="#000000"/><text fill="#212529" font-family="Arial" font-size="12" lengthAdjust="spacing" textLength="25.3359" x="1026.6396" y="458.4459">User</text><text fill="#212529" font-family="Arial" font-size="12" lengthAdjust="spacing" textLength="3.334" x="1051.9756" y="458.4459">&#160;</text><text fill="#212529" font-family="Arial" font-size="12" lengthAdjust="spacing" textLength="68.0508" x="1055.3096" y="458.4459">Engagement</text></g><!--entity lead_domain_core--><g class="entity" data-entity="lead_domain_core" data-source-line="127" data-uid="ent0011" id="entity_lead_domain_core"><rect fill="#FFFFCC" height="52.7988" rx="12.5" ry="12.5" style="stroke:#181818;stroke-width:0.5;" width="154.0742" x="366.96" y="315.39"/><path d="M505.7632,328.89 A0.5001,0.5001 0 0 0 505.4351,329.3646 L505.4605,332.0013 L492.9035,332.0053 A0.5001,0.5001 0 0 0 492.4035,332.5053 L492.3996,338.5541 A0.5001,0.5001 0 0 0 492.9015,339.0541 L505.4305,339.0072 L505.4305,341.3334 A0.5001,0.5001 0 0 0 506.3133,341.6537 L511.3074,335.7006 A0.5001,0.5001 0 0 0 511.3094,335.06 L506.3192,329.0405 A0.5001,0.5001 0 0 0 505.7626,328.8901 M506.4488,330.763 L510.275,335.3782 L506.4312,339.9583 L506.4312,338.5052 A0.5001,0.5001 0 0 0 505.9292,338.0052 L493.4002,338.0521 L493.4041,333.0052 L505.9651,333.0012 A0.5001,0.5001 0 0 0 506.4651,332.4973" fill="#000000"/><text fill="#212529" font-family="Arial" font-size="12" lengthAdjust="spacing" textLength="26.6953" x="376.96" y="355.6459">Lead</text><text fill="#212529" font-family="Arial" font-size="12" lengthAdjust="spacing" textLength="3.334" x="403.6553" y="355.6459">&#160;</text><text fill="#212529" font-family="Arial" font-size="12" lengthAdjust="spacing" textLength="59.3613" x="406.9893" y="355.6459">Processing</text><text fill="#212529" font-family="Arial" font-size="12" lengthAdjust="spacing" textLength="3.334" x="466.3506" y="355.6459">&#160;</text><text fill="#212529" font-family="Arial" font-size="12" lengthAdjust="spacing" textLength="41.3496" x="469.6846" y="355.6459">Domain</text></g><!--entity form_validation--><g class="entity" data-entity="form_validation" data-source-line="130" data-uid="ent0012" id="entity_form_validation"><rect fill="#FFFFCC" height="52.7988" rx="12.5" ry="12.5" style="stroke:#181818;stroke-width:0.5;" width="140" x="661" y="7"/><path d="M781.759,21.32 L772.7961,25.2888 A0.5001,0.5001 0 0 0 772.4992,25.7458 L772.4992,33.7829 A0.5001,0.5001 0 0 0 773.2004,34.24 L781.9953,30.3611 L790.7883,34.24 A0.5001,0.5001 0 0 0 791.4914,33.7829 L791.4914,25.779 A0.5001,0.5001 0 0 0 791.1926,25.322 L782.1653,21.32 A0.5001,0.5001 0 0 0 781.759,21.32 M781.9621,22.3239 L790.4914,26.1032 L790.4914,33.0173 L782.1965,29.3571 A0.5001,0.5001 0 0 0 781.7922,29.3571 L773.4992,33.0173 L773.4992,26.072" fill="#000000"/><text fill="#212529" font-family="Arial" font-size="12" lengthAdjust="spacing" textLength="27.9961" x="688.9824" y="47.2559">Form</text><text fill="#212529" font-family="Arial" font-size="12" lengthAdjust="spacing" textLength="3.334" x="716.9785" y="47.2559">&#160;</text><text fill="#212529" font-family="Arial" font-size="12" lengthAdjust="spacing" textLength="52.7051" x="720.3125" y="47.2559">Validation</text></g><!--entity lead_scoring--><g class="entity" data-entity="lead_scoring" data-source-line="130" data-uid="ent0013" id="entity_lead_scoring"><rect fill="#FFFFCC" height="52.7988" rx="12.5" ry="12.5" style="stroke:#181818;stroke-width:0.5;" width="140" x="661" y="109.8"/><path d="M781.759,124.12 L772.7961,128.0888 A0.5001,0.5001 0 0 0 772.4992,128.5458 L772.4992,136.5829 A0.5001,0.5001 0 0 0 773.2004,137.04 L781.9953,133.1611 L790.7883,137.04 A0.5001,0.5001 0 0 0 791.4914,136.5829 L791.4914,128.579 A0.5001,0.5001 0 0 0 791.1926,128.122 L782.1653,124.12 A0.5001,0.5001 0 0 0 781.759,124.12 M781.9621,125.1239 L790.4914,128.9032 L790.4914,135.8173 L782.1965,132.1571 A0.5001,0.5001 0 0 0 781.7922,132.1571 L773.4992,135.8173 L773.4992,128.872" fill="#000000"/><text fill="#212529" font-family="Arial" font-size="12" lengthAdjust="spacing" textLength="26.6953" x="695.6416" y="150.0559">Lead</text><text fill="#212529" font-family="Arial" font-size="12" lengthAdjust="spacing" textLength="3.334" x="722.3369" y="150.0559">&#160;</text><text fill="#212529" font-family="Arial" font-size="12" lengthAdjust="spacing" textLength="40.6875" x="725.6709" y="150.0559">Scoring</text></g><!--entity conversion_analytics--><g class="entity" data-entity="conversion_analytics" data-source-line="130" data-uid="ent0014" id="entity_conversion_analytics"><rect fill="#FFFFCC" height="52.7988" rx="12.5" ry="12.5" style="stroke:#181818;stroke-width:0.5;" width="140" x="661" y="212.6"/><path d="M781.759,226.92 L772.7961,230.8888 A0.5001,0.5001 0 0 0 772.4992,231.3458 L772.4992,239.3829 A0.5001,0.5001 0 0 0 773.2004,239.84 L781.9953,235.9611 L790.7883,239.84 A0.5001,0.5001 0 0 0 791.4914,239.3829 L791.4914,231.379 A0.5001,0.5001 0 0 0 791.1926,230.922 L782.1653,226.92 A0.5001,0.5001 0 0 0 781.759,226.92 M781.9621,227.9239 L790.4914,231.7032 L790.4914,238.6173 L782.1965,234.9571 A0.5001,0.5001 0 0 0 781.7922,234.9571 L773.4992,238.6173 L773.4992,231.672" fill="#000000"/><text fill="#212529" font-family="Arial" font-size="12" lengthAdjust="spacing" textLength="60.6973" x="674.9756" y="252.8559">Conversion</text><text fill="#212529" font-family="Arial" font-size="12" lengthAdjust="spacing" textLength="3.334" x="735.6729" y="252.8559">&#160;</text><text fill="#212529" font-family="Arial" font-size="12" lengthAdjust="spacing" textLength="48.0176" x="739.0068" y="252.8559">Analytics</text></g><!--entity campaign_management--><g class="entity" data-entity="campaign_management" data-source-line="127" data-uid="ent0015" id="entity_campaign_management"><rect fill="#FFFFCC" height="52.7988" rx="12.5" ry="12.5" style="stroke:#181818;stroke-width:0.5;" width="148.0742" x="472.96" y="7"/><path d="M605.7632,20.5 A0.5001,0.5001 0 0 0 605.4351,20.9746 L605.4605,23.6113 L592.9035,23.6153 A0.5001,0.5001 0 0 0 592.4035,24.1153 L592.3996,30.1641 A0.5001,0.5001 0 0 0 592.9015,30.6641 L605.4305,30.6172 L605.4305,32.9434 A0.5001,0.5001 0 0 0 606.3133,33.2637 L611.3074,27.3106 A0.5001,0.5001 0 0 0 611.3094,26.67 L606.3192,20.6505 A0.5001,0.5001 0 0 0 605.7626,20.5001 M606.4488,22.373 L610.275,26.9882 L606.4312,31.5683 L606.4312,30.1152 A0.5001,0.5001 0 0 0 605.9292,29.6152 L593.4002,29.6621 L593.4041,24.6152 L605.9651,24.6112 A0.5001,0.5001 0 0 0 606.4651,24.1073" fill="#000000"/><text fill="#212529" font-family="Arial" font-size="12" lengthAdjust="spacing" textLength="54.6973" x="482.96" y="47.2559">Campaign</text><text fill="#212529" font-family="Arial" font-size="12" lengthAdjust="spacing" textLength="3.334" x="537.6573" y="47.2559">&#160;</text><text fill="#212529" font-family="Arial" font-size="12" lengthAdjust="spacing" textLength="70.043" x="540.9913" y="47.2559">Management</text></g><!--entity click_tracking--><g class="entity" data-entity="click_tracking" data-source-line="130" data-uid="ent0016" id="entity_click_tracking"><rect fill="#FFFFCC" height="52.7988" rx="12.5" ry="12.5" style="stroke:#181818;stroke-width:0.5;" width="140" x="479" y="109.8"/><path d="M599.759,124.12 L590.7961,128.0888 A0.5001,0.5001 0 0 0 590.4992,128.5458 L590.4992,136.5829 A0.5001,0.5001 0 0 0 591.2004,137.04 L599.9953,133.1611 L608.7883,137.04 A0.5001,0.5001 0 0 0 609.4914,136.5829 L609.4914,128.579 A0.5001,0.5001 0 0 0 609.1926,128.122 L600.1653,124.12 A0.5001,0.5001 0 0 0 599.759,124.12 M599.9621,125.1239 L608.4914,128.9032 L608.4914,135.8173 L600.1965,132.1571 A0.5001,0.5001 0 0 0 599.7922,132.1571 L591.4992,135.8173 L591.4992,128.872" fill="#000000"/><text fill="#212529" font-family="Arial" font-size="12" lengthAdjust="spacing" textLength="25.998" x="511.3271" y="150.0559">Click</text><text fill="#212529" font-family="Arial" font-size="12" lengthAdjust="spacing" textLength="3.334" x="537.3252" y="150.0559">&#160;</text><text fill="#212529" font-family="Arial" font-size="12" lengthAdjust="spacing" textLength="46.0137" x="540.6592" y="150.0559">Tracking</text></g><!--entity data_integration--><g class="entity" data-entity="data_integration" data-source-line="142" data-uid="ent0017" id="entity_data_integration"><rect fill="#FFFFCC" height="52.7988" rx="12.5" ry="12.5" style="stroke:#181818;stroke-width:0.5;" width="156.7227" x="178.64" y="109.8"/><path d="M312.8627,125.71 C310.1871,125.704 308.0096,127.9141 307.9855,130.6322 C307.9614,133.3503 310.0996,135.6017 312.7749,135.6458 A0.5,0.5 0 0 0 312.7904,135.6458 L320.3314,135.6458 A0.5,0.5 0 0 0 320.3374,135.6458 C323.0246,135.621 325.1826,133.3674 325.1614,130.6378 C325.1403,127.9196 322.9644,125.7112 320.2924,125.7115 L320.2924,125.7095 L320.2593,125.7095 M312.8607,126.7099 A0.5,0.5 0 0 0 312.8647,126.7099 L320.2921,126.7099 C322.4146,126.7101 324.1441,128.4535 324.1611,130.6456 C324.1782,132.8456 322.4644,134.6239 320.3314,134.6459 C320.3304,134.646 320.3284,134.6459 320.3274,134.6459 L312.7925,134.6459 C310.6673,134.6108 308.966,132.8341 308.9855,130.642 C309.005,128.4499 310.7352,126.7056 312.8607,126.7099" fill="#000000"/><text fill="#212529" font-family="Arial" font-size="12" lengthAdjust="spacing" textLength="76.6816" x="188.64" y="150.0559">Cross-Domain</text><text fill="#212529" font-family="Arial" font-size="12" lengthAdjust="spacing" textLength="3.334" x="265.3216" y="150.0559">&#160;</text><text fill="#212529" font-family="Arial" font-size="12" lengthAdjust="spacing" textLength="56.707" x="268.6556" y="150.0559">Integration</text></g><!--entity real_time_analytics--><g class="entity" data-entity="real_time_analytics" data-source-line="142" data-uid="ent0018" id="entity_real_time_analytics"><rect fill="#FFFFCC" height="52.7988" rx="12.5" ry="12.5" style="stroke:#181818;stroke-width:0.5;" width="140" x="187" y="7"/><path d="M304.5,22.91 C301.8244,22.904 299.6469,25.1141 299.6228,27.8322 C299.5987,30.5503 301.7369,32.8017 304.4122,32.8458 A0.5,0.5 0 0 0 304.4277,32.8458 L311.9687,32.8458 A0.5,0.5 0 0 0 311.9747,32.8458 C314.6619,32.821 316.8199,30.5674 316.7987,27.8378 C316.7776,25.1196 314.6017,22.9112 311.9297,22.9115 L311.9297,22.9095 L311.8966,22.9095 M304.498,23.9099 A0.5,0.5 0 0 0 304.502,23.9099 L311.9294,23.9099 C314.0519,23.9101 315.7814,25.6535 315.7984,27.8456 C315.8155,30.0456 314.1017,31.8239 311.9687,31.8459 C311.9677,31.846 311.9657,31.8459 311.9647,31.8459 L304.4298,31.8459 C302.3046,31.8108 300.6033,30.0341 300.6228,27.842 C300.6423,25.6499 302.3725,23.9056 304.498,23.9099" fill="#000000"/><text fill="#212529" font-family="Arial" font-size="12" lengthAdjust="spacing" textLength="55.3418" x="203.6533" y="47.2559">Real-Time</text><text fill="#212529" font-family="Arial" font-size="12" lengthAdjust="spacing" textLength="3.334" x="258.9951" y="47.2559">&#160;</text><text fill="#212529" font-family="Arial" font-size="12" lengthAdjust="spacing" textLength="48.0176" x="262.3291" y="47.2559">Analytics</text></g><!--entity business_rules--><g class="entity" data-entity="business_rules" data-source-line="130" data-uid="ent0019" id="entity_business_rules"><rect fill="#FFFFCC" height="52.7988" rx="12.5" ry="12.5" style="stroke:#181818;stroke-width:0.5;" width="143.4043" x="841.3" y="7"/><path d="M965.4633,21.32 L956.5004,25.2888 A0.5001,0.5001 0 0 0 956.2035,25.7458 L956.2035,33.7829 A0.5001,0.5001 0 0 0 956.9047,34.24 L965.6996,30.3611 L974.4926,34.24 A0.5001,0.5001 0 0 0 975.1957,33.7829 L975.1957,25.779 A0.5001,0.5001 0 0 0 974.8969,25.322 L965.8696,21.32 A0.5001,0.5001 0 0 0 965.4633,21.32 M965.6664,22.3239 L974.1957,26.1032 L974.1957,33.0173 L965.9008,29.3571 A0.5001,0.5001 0 0 0 965.4965,29.3571 L957.2035,33.0173 L957.2035,26.072" fill="#000000"/><text fill="#212529" font-family="Arial" font-size="12" lengthAdjust="spacing" textLength="48.6914" x="851.3" y="47.2559">Business</text><text fill="#212529" font-family="Arial" font-size="12" lengthAdjust="spacing" textLength="3.334" x="899.9914" y="47.2559">&#160;</text><text fill="#212529" font-family="Arial" font-size="12" lengthAdjust="spacing" textLength="30.6797" x="903.3254" y="47.2559">Rules</text><text fill="#212529" font-family="Arial" font-size="12" lengthAdjust="spacing" textLength="3.334" x="934.0051" y="47.2559">&#160;</text><text fill="#212529" font-family="Arial" font-size="12" lengthAdjust="spacing" textLength="37.3652" x="937.3391" y="47.2559">Engine</text></g><!--link customer_journey to ltv_domain_core--><g class="link" data-entity-1="customer_journey" data-entity-2="ltv_domain_core" data-source-line="349" data-uid="lnk20" id="link_customer_journey_ltv_domain_core"><path d="M186.63,238.59 C136.15,238.59 77,238.59 77,238.59 C77,238.59 77,278.37 77,308.95" fill="none" id="customer_journey-to-ltv_domain_core" style="stroke:#007ACC;stroke-width:2;"/><polygon fill="#007ACC" points="77,314.95,81,305.95,77,309.95,73,305.95,77,314.95" style="stroke:#007ACC;stroke-width:2;"/><text fill="#212529" font-family="Arial" font-size="12" lengthAdjust="spacing" textLength="42.0352" x="50.64" y="235.8459">enables</text></g><!--link customer_journey to retention_domain_core--><g class="link" data-entity-1="customer_journey" data-entity-2="retention_domain_core" data-source-line="349" data-uid="lnk21" id="link_customer_journey_retention_domain_core"><path d="M257,265.74 C257,280.97 257,293.98 257,309.19" fill="none" id="customer_journey-to-retention_domain_core" style="stroke:#007ACC;stroke-width:2;"/><polygon fill="#007ACC" points="257,315.19,261,306.19,257,310.19,253,306.19,257,315.19" style="stroke:#007ACC;stroke-width:2;"/><text fill="#212529" font-family="Arial" font-size="12" lengthAdjust="spacing" textLength="42.0352" x="214" y="287.7159">enables</text></g><!--link customer_journey to lead_domain_core--><g class="link" data-entity-1="customer_journey" data-entity-2="lead_domain_core" data-source-line="349" data-uid="lnk22" id="link_customer_journey_lead_domain_core"><path d="M327.06,230.59 C371.23,230.59 419.96,230.59 419.96,230.59 C419.96,230.59 419.96,276.26 419.96,309.16" fill="none" id="customer_journey-to-lead_domain_core" style="stroke:#007ACC;stroke-width:2;"/><polygon fill="#007ACC" points="419.96,315.16,423.96,306.16,419.96,310.16,415.96,306.16,419.96,315.16" style="stroke:#007ACC;stroke-width:2;"/><text fill="#212529" font-family="Arial" font-size="12" lengthAdjust="spacing" textLength="42.0352" x="372.79" y="227.8459">enables</text></g><!--link ltv_calculation to segmentation--><g class="link" data-entity-1="ltv_calculation" data-entity-2="segmentation" data-source-line="349" data-uid="lnk23" id="link_ltv_calculation_segmentation"><path d="M811,368.53 C811,383.76 811,396.78 811,411.99" fill="none" id="ltv_calculation-to-segmentation" style="stroke:#007ACC;stroke-width:2;"/><polygon fill="#007ACC" points="811,417.99,815,408.99,811,412.99,807,408.99,811,417.99" style="stroke:#007ACC;stroke-width:2;"/><text fill="#212529" font-family="Arial" font-size="12" lengthAdjust="spacing" textLength="29.3555" x="781" y="390.5159">feeds</text></g><!--link cohort_analysis to segmentation--><g class="link" data-entity-1="cohort_analysis" data-entity-2="segmentation" data-source-line="349" data-uid="lnk24" id="link_cohort_analysis_segmentation"><path d="M701.21,341.59 C720.95,341.59 737.15,341.59 737.15,341.59 C737.15,341.59 737.15,381.28 737.15,411.8" fill="none" id="cohort_analysis-to-segmentation" style="stroke:#007ACC;stroke-width:2;"/><polygon fill="#007ACC" points="737.15,417.8,741.15,408.8,737.15,412.8,733.15,408.8,737.15,417.8" style="stroke:#007ACC;stroke-width:2;"/><text fill="#212529" font-family="Arial" font-size="12" lengthAdjust="spacing" textLength="29.3555" x="707.15" y="358.9859">feeds</text></g><!--link segmentation to churn_prediction--><g class="link" data-entity-1="segmentation" data-entity-2="churn_prediction" data-source-line="349" data-uid="lnk25" id="link_segmentation_churn_prediction"><path d="M878.35,471.33 C878.35,486.56 878.35,499.58 878.35,514.78" fill="none" id="segmentation-to-churn_prediction" style="stroke:#007ACC;stroke-width:2;"/><polygon fill="#007ACC" points="878.35,520.78,882.35,511.78,878.35,515.78,874.35,511.78,878.35,520.78" style="stroke:#007ACC;stroke-width:2;"/><text fill="#212529" font-family="Arial" font-size="12" lengthAdjust="spacing" textLength="39.3398" x="838.35" y="493.3159">informs</text></g><!--link churn_prediction to retention_campaigns--><g class="link" data-entity-1="churn_prediction" data-entity-2="retention_campaigns" data-source-line="349" data-uid="lnk26" id="link_churn_prediction_retention_campaigns"><path d="M976.5,574.13 C976.5,589.36 976.5,602.38 976.5,617.58" fill="none" id="churn_prediction-to-retention_campaigns" style="stroke:#007ACC;stroke-width:2;"/><polygon fill="#007ACC" points="976.5,623.58,980.5,614.58,976.5,618.58,972.5,614.58,976.5,623.58" style="stroke:#007ACC;stroke-width:2;"/><text fill="#212529" font-family="Arial" font-size="12" lengthAdjust="spacing" textLength="40.0137" x="935.5" y="596.1159">triggers</text></g><!--link engagement_profiling to churn_prediction--><g class="link" data-entity-1="engagement_profiling" data-entity-2="churn_prediction" data-source-line="349" data-uid="lnk27" id="link_engagement_profiling_churn_prediction"><path d="M1009.5,471.33 C1009.5,486.56 1009.5,499.58 1009.5,514.78" fill="none" id="engagement_profiling-to-churn_prediction" style="stroke:#007ACC;stroke-width:2;"/><polygon fill="#007ACC" points="1009.5,520.78,1013.5,511.78,1009.5,515.78,1005.5,511.78,1009.5,520.78" style="stroke:#007ACC;stroke-width:2;"/><text fill="#212529" font-family="Arial" font-size="12" lengthAdjust="spacing" textLength="52.043" x="956.5" y="493.3159">enhances</text></g><!--link engagement_profiling to retention_campaigns--><g class="link" data-entity-1="engagement_profiling" data-entity-2="retention_campaigns" data-source-line="349" data-uid="lnk28" id="link_engagement_profiling_retention_campaigns"><path d="M1046.5,471.47 C1046.5,510.87 1046.5,577.9 1046.5,617.31" fill="none" id="engagement_profiling-to-retention_campaigns" style="stroke:#007ACC;stroke-width:2;"/><polygon fill="#007ACC" points="1046.5,623.31,1050.5,614.31,1046.5,618.31,1042.5,614.31,1046.5,623.31" style="stroke:#007ACC;stroke-width:2;"/><text fill="#212529" font-family="Arial" font-size="12" lengthAdjust="spacing" textLength="35.3613" x="1047.5" y="544.6459">guides</text></g><!--link form_validation to lead_scoring--><g class="link" data-entity-1="form_validation" data-entity-2="lead_scoring" data-source-line="349" data-uid="lnk29" id="link_form_validation_lead_scoring"><path d="M731,60.14 C731,75.37 731,88.38 731,103.59" fill="none" id="form_validation-to-lead_scoring" style="stroke:#007ACC;stroke-width:2;"/><polygon fill="#007ACC" points="731,109.59,735,100.59,731,104.59,727,100.59,731,109.59" style="stroke:#007ACC;stroke-width:2;"/><text fill="#212529" font-family="Arial" font-size="12" lengthAdjust="spacing" textLength="42.0352" x="688" y="82.1159">enables</text></g><!--link lead_scoring to conversion_analytics--><g class="link" data-entity-1="lead_scoring" data-entity-2="conversion_analytics" data-source-line="349" data-uid="lnk30" id="link_lead_scoring_conversion_analytics"><path d="M731,162.94 C731,178.17 731,191.18 731,206.39" fill="none" id="lead_scoring-to-conversion_analytics" style="stroke:#007ACC;stroke-width:2;"/><polygon fill="#007ACC" points="731,212.39,735,203.39,731,207.39,727,203.39,731,212.39" style="stroke:#007ACC;stroke-width:2;"/><text fill="#212529" font-family="Arial" font-size="12" lengthAdjust="spacing" textLength="29.3555" x="701" y="184.9159">feeds</text></g><!--link conversion_analytics to ltv_calculation--><g class="link" data-entity-1="conversion_analytics" data-entity-2="ltv_calculation" data-source-line="349" data-uid="lnk31" id="link_conversion_analytics_ltv_calculation"><path d="M771,265.74 C771,280.97 771,293.98 771,309.19" fill="none" id="conversion_analytics-to-ltv_calculation" style="stroke:#007ACC;stroke-width:2;"/><polygon fill="#007ACC" points="771,315.19,775,306.19,771,310.19,767,306.19,771,315.19" style="stroke:#007ACC;stroke-width:2;"/><text fill="#212529" font-family="Arial" font-size="12" lengthAdjust="spacing" textLength="58.6992" x="698" y="287.7159">contributes</text><text fill="#212529" font-family="Arial" font-size="12" lengthAdjust="spacing" textLength="3.334" x="756.6992" y="287.7159">&#160;</text><text fill="#212529" font-family="Arial" font-size="12" lengthAdjust="spacing" textLength="10.0078" x="760.0332" y="287.7159">to</text></g><!--link campaign_management to click_tracking--><g class="link" data-entity-1="campaign_management" data-entity-2="click_tracking" data-source-line="349" data-uid="lnk32" id="link_campaign_management_click_tracking"><path d="M549,60.14 C549,75.37 549,88.38 549,103.59" fill="none" id="campaign_management-to-click_tracking" style="stroke:#007ACC;stroke-width:2;"/><polygon fill="#007ACC" points="549,109.59,553,100.59,549,104.59,545,100.59,549,109.59" style="stroke:#007ACC;stroke-width:2;"/><text fill="#212529" font-family="Arial" font-size="12" lengthAdjust="spacing" textLength="44.0273" x="504" y="82.1159">includes</text></g><!--link click_tracking to conversion_analytics--><g class="link" data-entity-1="click_tracking" data-entity-2="conversion_analytics" data-source-line="349" data-uid="lnk33" id="link_click_tracking_conversion_analytics"><path d="M590,162.88 C590,195.83 590,247.59 590,247.59 C590,247.59 619.53,247.59 654.91,247.59" fill="none" id="click_tracking-to-conversion_analytics" style="stroke:#007ACC;stroke-width:2;"/><polygon fill="#007ACC" points="660.91,247.59,651.91,243.59,655.91,247.59,651.91,251.59,660.91,247.59" style="stroke:#007ACC;stroke-width:2;"/><text fill="#212529" font-family="Arial" font-size="12" lengthAdjust="spacing" textLength="32.0039" x="557" y="237.9459">tracks</text></g><!--link data_integration to customer_journey--><g class="link" data-entity-1="data_integration" data-entity-2="customer_journey" data-source-line="349" data-uid="lnk34" id="link_data_integration_customer_journey"><path d="M257,162.94 C257,178.17 257,191.18 257,206.39" fill="none" id="data_integration-to-customer_journey" style="stroke:#007ACC;stroke-width:2;"/><polygon fill="#007ACC" points="257,212.39,261,203.39,257,207.39,253,203.39,257,212.39" style="stroke:#007ACC;stroke-width:2;"/><text fill="#212529" font-family="Arial" font-size="12" lengthAdjust="spacing" textLength="46.0254" x="210" y="184.9159">supports</text></g><!--link real_time_analytics to data_integration--><g class="link" data-entity-1="real_time_analytics" data-entity-2="data_integration" data-source-line="349" data-uid="lnk35" id="link_real_time_analytics_data_integration"><path d="M257,60.14 C257,75.37 257,88.38 257,103.59" fill="none" id="real_time_analytics-to-data_integration" style="stroke:#007ACC;stroke-width:2;"/><polygon fill="#007ACC" points="257,109.59,261,100.59,257,104.59,253,100.59,257,109.59" style="stroke:#007ACC;stroke-width:2;"/><text fill="#212529" font-family="Arial" font-size="12" lengthAdjust="spacing" textLength="45.3574" x="211" y="82.1159">provides</text></g><!--link business_rules to ltv_calculation--><g class="link" data-entity-1="business_rules" data-entity-2="ltv_calculation" data-source-line="349" data-uid="lnk36" id="link_business_rules_ltv_calculation"><path d="M867.77,60.23 C867.77,118.7 867.77,251.03 867.77,309.25" fill="none" id="business_rules-to-ltv_calculation" style="stroke:#007ACC;stroke-width:2;"/><polygon fill="#007ACC" points="867.77,315.25,871.77,306.25,867.77,310.25,863.77,306.25,867.77,315.25" style="stroke:#007ACC;stroke-width:2;"/><text fill="#212529" font-family="Arial" font-size="12" lengthAdjust="spacing" textLength="47.3613" x="819.77" y="184.9959">validates</text></g><!--link business_rules to churn_prediction--><g class="link" data-entity-1="business_rules" data-entity-2="churn_prediction" data-source-line="349" data-uid="lnk37" id="link_business_rules_churn_prediction"><path d="M933.7,59.95 C933.7,148.34 933.7,426.07 933.7,514.69" fill="none" id="business_rules-to-churn_prediction" style="stroke:#007ACC;stroke-width:2;"/><polygon fill="#007ACC" points="933.7,520.69,937.7,511.69,933.7,515.69,929.7,511.69,933.7,520.69" style="stroke:#007ACC;stroke-width:2;"/><text fill="#212529" font-family="Arial" font-size="12" lengthAdjust="spacing" textLength="47.3613" x="885.7" y="287.5759">validates</text></g><!--link business_rules to lead_scoring--><g class="link" data-entity-1="business_rules" data-entity-2="lead_scoring" data-source-line="349" data-uid="lnk38" id="link_business_rules_lead_scoring"><path d="M854.53,60.24 C854.53,90.82 854.53,136.59 854.53,136.59 C854.53,136.59 835.17,136.59 807.43,136.59" fill="none" id="business_rules-to-lead_scoring" style="stroke:#007ACC;stroke-width:2;"/><polygon fill="#007ACC" points="801.43,136.59,810.43,140.59,806.43,136.59,810.43,132.59,801.43,136.59" style="stroke:#007ACC;stroke-width:2;"/><text fill="#212529" font-family="Arial" font-size="12" lengthAdjust="spacing" textLength="47.3613" x="806.53" y="122.2259">validates</text></g><!--SRC=[ZLTRZzeu57xdLxZTX-rAErg67IwLHYEH059NszLee7sDZ6E2byIER8UAhlhVzpWN2CanXNaOylbyvsQVp-5ThccIKSBsL1jkoPVDwc4sU2SaIukOasUgsLvarF8_vistby7078JCgQOPsL9sIBGgP1ogL6doowhyj2nYlgD5QbTAsdzenibS2vhYwslndPF74RvO-nyzZiQZZoqJfh9SIIuj-Mz0o5RfcElDNh23vCQGqHch-N-M7uVsCb-wFrZPjLAfd-mfvKGgdK7gXDGiBRacZqC0p9x6wfkG2R6wu8CVM7hFpq5XX4lgvQLAjT-wIJ09kWbNw6BXyphFyrGmQeMIFiTFot0HFdKTLwZVyOQplGJJvEJrEmwcYyUUtnBr-ttTdmmadFhRC1zEv_qsEDJlzREoudYp2nzdYrauw_gjKB_VjTLmvlqzM4qNuMJLoxP4_Lu_PNdAC_XwC-CWcAt2PTTtXVfy1xq1k1X9PJaUQH9Enx1fmswi2g-du7e2sz5Jdd0P-xQp58IEuyLoELfEVkfOIClrZZ9FsgFPVFeqxleUma49moi_EJ1fShFuaQ_u7rSTZ3rEgg2FzoH3jLRVIY_sIgUOb-726fwJfs4Br5GU73XkWzjQOmAFk22MgDYqihteI-0H5jmOrPgBgJtBI-3H5TGMLPhMHjVY4dXK1R54LUPYbvs59V0e2cgBQip5qjIo4dZq1B54zQKrAbUI4dYqn6kFAWmcCDLTM6JfQ30O_4gMbHCpQ6wtw5Kh1ly_iC9ObN4T_QiAk2fFlvFtOGsHlohe_MzzMcgFKQmoAcJ4bER0-dlpbSmbJKzMC4CMvLgRkIeaSpMKLDXHLgHbJJKrl20eYwczqZQYBe8HngLP8bLCG52MuScvUUtArYqSAqzp2ykms2dohS5l5SZsqBOerpmMh0di8F9wXb3U9IYZMKv58irLoB11KJQN2MYdgmf2gvr8uKK7w5yCbBiyhw5xoMdStKo0IBtkNfXkLBk3zwteI5CHDrrU0KA-dX7y4BYO1g9LMPRnrjMZP_lbaMlZcaERGrQUWGQ-d3sinAQXKGRigXEENQFaynd5WuDQ7YAOS7QeqWqTG3OrqEQikJuAnZz0wJHozsAYpuTFAsCUgawIJvSbZAuvJIChCdvLxHkW3nlXNi-nOi_vDfT6f8kKEs9ZGjuSu8u3F08LbE6DLqDdzY8t0tYgSf09eWpzeUUIRi4ZkBhDzCtJlNpaYEBKdhXq5637UTmBrvMMEpZN9iZ42-a6enUgPuWFlTKYIU1WT-ZuZ2FHkTnJoVXzV3o5f11npq5ls3jpxDcKAoFFAECxWvdsBn2mWuvj2mk7swgk4spsUoDT_vRkPT2nyoHV6dIvVGr0BbjJv3cSlYuN5G14L60RZyW-THMWtx9w4t_AH0xNlTJEsMZJ_WS0]--></g></svg>