<svg xmlns="http://www.w3.org/2000/svg" xmlns:xlink="http://www.w3.org/1999/xlink" contentStyleType="text/css" data-diagram-type="DESCRIPTION" height="579px" preserveAspectRatio="none" style="width:1593px;height:579px;background:#FFFFFF;" version="1.1" viewBox="0 0 1593 579" width="1593px" zoomAndPan="magnify"><defs/><g><!--entity domain_layer--><g class="entity" data-entity="domain_layer" data-source-line="127" data-uid="ent0002" id="entity_domain_layer"><rect fill="#FFFFCC" height="52.7988" rx="12.5" ry="12.5" style="stroke:#181818;stroke-width:0.5;" width="140" x="7" y="109.8"/><path d="M131.729,123.3 A0.5001,0.5001 0 0 0 131.4009,123.7746 L131.4263,126.4113 L118.8693,126.4153 A0.5001,0.5001 0 0 0 118.3693,126.9153 L118.3654,132.9641 A0.5001,0.5001 0 0 0 118.8673,133.4641 L131.3963,133.4172 L131.3963,135.7434 A0.5001,0.5001 0 0 0 132.2791,136.0637 L137.2732,130.1106 A0.5001,0.5001 0 0 0 137.2752,129.47 L132.285,123.4505 A0.5001,0.5001 0 0 0 131.7284,123.3001 M132.4146,125.173 L136.2408,129.7882 L132.397,134.3683 L132.397,132.9152 A0.5001,0.5001 0 0 0 131.895,132.4152 L119.366,132.4621 L119.3699,127.4152 L131.9309,127.4112 A0.5001,0.5001 0 0 0 132.4309,126.9073" fill="#000000"/><text fill="#212529" font-family="Arial" font-size="12" lengthAdjust="spacing" textLength="41.3496" x="39.6494" y="150.0559">Domain</text><text fill="#212529" font-family="Arial" font-size="12" lengthAdjust="spacing" textLength="3.334" x="80.999" y="150.0559">&#160;</text><text fill="#212529" font-family="Arial" font-size="12" lengthAdjust="spacing" textLength="30.0176" x="84.333" y="150.0559">Layer</text></g><!--entity entities--><g class="entity" data-entity="entities" data-source-line="146" data-uid="ent0003" id="entity_entities"><rect fill="#FFFFCC" height="52.7988" rx="0.5" ry="0.5" style="stroke:#181818;stroke-width:0.5;" width="140" x="817" y="212.59"/><path d="M929.05,226.3 A0.5001,0.5001 0 0 0 928.5498,226.7997 L928.5498,239.0077 A0.5001,0.5001 0 0 0 929.05,239.5074 L947.103,239.5074 A0.5001,0.5001 0 0 0 947.6032,239.0077 L947.6032,226.7997 A0.5001,0.5001 0 0 0 947.103,226.3 M929.5497,227.2999 L946.6027,227.2999 L946.6027,229.385 L929.5497,229.2961 M929.5497,230.2961 L946.6027,230.385 L946.6027,238.507 L929.5497,238.507" fill="#000000"/><text fill="#212529" font-family="Arial" font-size="12" lengthAdjust="spacing" textLength="39.3516" x="867.3242" y="252.8459">Entities</text></g><!--entity value_objects--><g class="entity" data-entity="value_objects" data-source-line="146" data-uid="ent0004" id="entity_value_objects"><rect fill="#FFFFCC" height="52.7988" rx="0.5" ry="0.5" style="stroke:#181818;stroke-width:0.5;" width="140" x="907" y="109.8"/><path d="M1019.05,123.51 A0.5001,0.5001 0 0 0 1018.5498,124.0097 L1018.5498,136.2177 A0.5001,0.5001 0 0 0 1019.05,136.7174 L1037.103,136.7174 A0.5001,0.5001 0 0 0 1037.6032,136.2177 L1037.6032,124.0097 A0.5001,0.5001 0 0 0 1037.103,123.51 M1019.5497,124.5099 L1036.6027,124.5099 L1036.6027,126.595 L1019.5497,126.5061 M1019.5497,127.5061 L1036.6027,127.595 L1036.6027,135.717 L1019.5497,135.717" fill="#000000"/><text fill="#212529" font-family="Arial" font-size="12" lengthAdjust="spacing" textLength="30.6914" x="939.6465" y="150.0559">Value</text><text fill="#212529" font-family="Arial" font-size="12" lengthAdjust="spacing" textLength="3.334" x="970.3379" y="150.0559">&#160;</text><text fill="#212529" font-family="Arial" font-size="12" lengthAdjust="spacing" textLength="40.6816" x="973.6719" y="150.0559">Objects</text></g><!--entity domain_services--><g class="entity" data-entity="domain_services" data-source-line="130" data-uid="ent0005" id="entity_domain_services"><rect fill="#FFFFCC" height="52.7988" rx="12.5" ry="12.5" style="stroke:#181818;stroke-width:0.5;" width="140" x="678" y="315.39"/><path d="M798.759,329.71 L789.7961,333.6788 A0.5001,0.5001 0 0 0 789.4992,334.1358 L789.4992,342.1729 A0.5001,0.5001 0 0 0 790.2004,342.63 L798.9953,338.7511 L807.7883,342.63 A0.5001,0.5001 0 0 0 808.4914,342.1729 L808.4914,334.169 A0.5001,0.5001 0 0 0 808.1926,333.712 L799.1653,329.71 A0.5001,0.5001 0 0 0 798.759,329.71 M798.9621,330.7139 L807.4914,334.4932 L807.4914,341.4073 L799.1965,337.7471 A0.5001,0.5001 0 0 0 798.7922,337.7471 L790.4992,341.4073 L790.4992,334.462" fill="#000000"/><text fill="#212529" font-family="Arial" font-size="12" lengthAdjust="spacing" textLength="41.3496" x="702.6514" y="355.6459">Domain</text><text fill="#212529" font-family="Arial" font-size="12" lengthAdjust="spacing" textLength="3.334" x="744.001" y="355.6459">&#160;</text><text fill="#212529" font-family="Arial" font-size="12" lengthAdjust="spacing" textLength="46.0137" x="747.335" y="355.6459">Services</text></g><!--entity repositories--><g class="entity" data-entity="repositories" data-source-line="124" data-uid="ent0006" id="entity_repositories"><rect fill="#FFFFCC" height="52.7988" rx="0.5" ry="0.5" style="stroke:#181818;stroke-width:0.5;" width="140" x="678" y="418.19"/><path d="M801.495,431.52 C798.1568,431.5654 795.4614,434.2518 795.3734,437.561 L790.0006,437.561 A0.5,0.5 0 0 0 789.5009,438.0607 A0.5,0.5 0 0 0 790.0006,438.5609 L795.4271,438.5609 C795.8382,441.6199 798.4805,443.9722 801.6433,443.9399 C805.0627,443.9049 807.8189,441.0956 807.7897,437.6762 C807.7605,434.2568 804.9574,431.4966 801.5379,431.52 A0.5,0.5 0 0 0 801.526,431.5314 A0.5,0.5 0 0 0 801.495,431.52 M801.5183,432.5101 A0.5,0.5 0 0 0 801.5436,432.5201 C804.4233,432.5004 806.7652,434.8066 806.7898,437.6862 C806.8143,440.5658 804.5131,442.9107 801.6335,442.9402 C798.7539,442.9696 796.4041,440.6712 796.3697,437.7917 C796.3354,434.9122 798.6289,432.5594 801.5084,432.5202 A0.5,0.5 0 0 0 801.5182,432.5102" fill="#000000"/><text fill="#212529" font-family="Arial" font-size="12" lengthAdjust="spacing" textLength="57.3574" x="691.3076" y="458.4459">Repository</text><text fill="#212529" font-family="Arial" font-size="12" lengthAdjust="spacing" textLength="3.334" x="748.665" y="458.4459">&#160;</text><text fill="#212529" font-family="Arial" font-size="12" lengthAdjust="spacing" textLength="52.6934" x="751.999" y="458.4459">Interfaces</text></g><!--entity application_layer--><g class="entity" data-entity="application_layer" data-source-line="167" data-uid="ent0007" id="entity_application_layer"><rect fill="#C2F0FF" height="52.7988" rx="0.5" ry="0.5" style="stroke:#181818;stroke-width:0.5;" width="140" x="1087" y="109.8"/><path d="M1216.76,124.439 L1201.934,124.486 A0.5001,0.5001 0 0 0 1201.4343,124.9857 L1201.4343,126.4233 L1198.9461,126.4037 A0.5001,0.5001 0 0 0 1198.4417,126.9039 L1198.4417,128.8392 A0.5001,0.5001 0 0 0 1198.942,129.3394 L1201.4225,129.3394 L1201.3987,130.3822 L1198.8991,130.3626 A0.5001,0.5001 0 0 0 1198.3952,130.8628 L1198.3952,132.7981 A0.5001,0.5001 0 0 0 1198.8949,133.2984 L1201.3873,133.2984 L1201.3873,136.3003 A0.5001,0.5001 0 0 0 1201.8876,136.8005 L1216.7606,136.847 A0.5001,0.5001 0 0 0 1217.2624,136.3473 L1217.2624,124.9393 A0.5001,0.5001 0 0 0 1216.7606,124.4391 M1216.2618,125.441 L1216.2618,135.845 L1202.3868,135.8021 L1202.3868,133.2984 L1204.8812,133.2984 A0.5001,0.5001 0 0 0 1205.381,132.7982 L1205.381,130.9099 A0.5001,0.5001 0 0 0 1204.8849,130.4096 L1202.3987,130.39 L1202.4225,129.3394 L1204.9278,129.3394 A0.5001,0.5001 0 0 0 1205.428,128.8392 L1205.428,126.9504 A0.5001,0.5001 0 0 0 1204.9319,126.4507 L1202.4339,126.431 L1202.4339,125.4838 M1199.4418,127.4078 L1204.4281,127.4466 L1204.4281,128.3395 L1199.4418,128.3395 M1199.3948,131.3667 L1204.3811,131.406 L1204.3811,132.2984 L1199.3948,132.2984" fill="#000000"/><text fill="#212529" font-family="Arial" font-size="12" lengthAdjust="spacing" textLength="58.7051" x="1110.9717" y="150.0559">Application</text><text fill="#212529" font-family="Arial" font-size="12" lengthAdjust="spacing" textLength="3.334" x="1169.6768" y="150.0559">&#160;</text><text fill="#212529" font-family="Arial" font-size="12" lengthAdjust="spacing" textLength="30.0176" x="1173.0107" y="150.0559">Layer</text></g><!--entity commands--><g class="entity" data-entity="commands" data-source-line="176" data-uid="ent0008" id="entity_commands"><rect fill="#C2F0FF" height="52.7988" rx="12.5" ry="12.5" style="stroke:#181818;stroke-width:0.5;" width="140" x="187" y="109.8"/><path d="M307.759,124.12 L298.7961,128.0888 A0.5001,0.5001 0 0 0 298.4992,128.5458 L298.4992,136.5829 A0.5001,0.5001 0 0 0 299.2004,137.04 L307.9953,133.1611 L316.7883,137.04 A0.5001,0.5001 0 0 0 317.4914,136.5829 L317.4914,128.579 A0.5001,0.5001 0 0 0 317.1926,128.122 L308.1653,124.12 A0.5001,0.5001 0 0 0 307.759,124.12 M307.9621,125.1239 L316.4914,128.9032 L316.4914,135.8173 L308.1965,132.1571 A0.5001,0.5001 0 0 0 307.7922,132.1571 L299.4992,135.8173 L299.4992,128.872" fill="#000000"/><text fill="#212529" font-family="Arial" font-size="12" lengthAdjust="spacing" textLength="61.3535" x="226.3232" y="150.0559">Commands</text></g><!--entity queries--><g class="entity" data-entity="queries" data-source-line="176" data-uid="ent0009" id="entity_queries"><rect fill="#C2F0FF" height="52.7988" rx="12.5" ry="12.5" style="stroke:#181818;stroke-width:0.5;" width="140" x="367" y="109.8"/><path d="M487.759,124.12 L478.7961,128.0888 A0.5001,0.5001 0 0 0 478.4992,128.5458 L478.4992,136.5829 A0.5001,0.5001 0 0 0 479.2004,137.04 L487.9953,133.1611 L496.7883,137.04 A0.5001,0.5001 0 0 0 497.4914,136.5829 L497.4914,128.579 A0.5001,0.5001 0 0 0 497.1926,128.122 L488.1653,124.12 A0.5001,0.5001 0 0 0 487.759,124.12 M487.9621,125.1239 L496.4914,128.9032 L496.4914,135.8173 L488.1965,132.1571 A0.5001,0.5001 0 0 0 487.7922,132.1571 L479.4992,135.8173 L479.4992,128.872" fill="#000000"/><text fill="#212529" font-family="Arial" font-size="12" lengthAdjust="spacing" textLength="42.0176" x="415.9912" y="150.0559">Queries</text></g><!--entity handlers--><g class="entity" data-entity="handlers" data-source-line="176" data-uid="ent0010" id="entity_handlers"><rect fill="#C2F0FF" height="52.7988" rx="12.5" ry="12.5" style="stroke:#181818;stroke-width:0.5;" width="140" x="547" y="212.59"/><path d="M667.759,226.91 L658.7961,230.8788 A0.5001,0.5001 0 0 0 658.4992,231.3358 L658.4992,239.3729 A0.5001,0.5001 0 0 0 659.2004,239.83 L667.9953,235.9511 L676.7883,239.83 A0.5001,0.5001 0 0 0 677.4914,239.3729 L677.4914,231.369 A0.5001,0.5001 0 0 0 677.1926,230.912 L668.1653,226.91 A0.5001,0.5001 0 0 0 667.759,226.91 M667.9621,227.9139 L676.4914,231.6932 L676.4914,238.6073 L668.1965,234.9471 A0.5001,0.5001 0 0 0 667.7922,234.9471 L659.4992,238.6073 L659.4992,231.662" fill="#000000"/><text fill="#212529" font-family="Arial" font-size="12" lengthAdjust="spacing" textLength="48.0234" x="592.9883" y="252.8459">Handlers</text></g><!--entity infrastructure_layer--><g class="entity" data-entity="infrastructure_layer" data-source-line="203" data-uid="ent0011" id="entity_infrastructure_layer"><rect fill="#C9FFC9" height="52.7988" rx="0.5" ry="0.5" style="stroke:#181818;stroke-width:0.5;" width="140" x="1267" y="7"/><path d="M1384.023,19.9 A0.5001,0.5001 0 0 0 1383.7186,19.9992 L1379.6176,23.0745 L1379.6032,23.0854 L1379.6037,23.0859 A0.5001,0.5001 0 0 0 1379.4021,23.488 L1379.4492,32.2358 A0.5001,0.5001 0 0 0 1379.9473,32.7318 L1391.8743,32.7788 A0.5001,0.5001 0 0 0 1392.3105,32.5267 L1396.2534,29.4468 A0.5001,0.5001 0 0 0 1396.4446,29.0525 L1396.4446,20.4918 A0.5001,0.5001 0 0 0 1395.9485,19.9915 M1384.1832,20.8999 L1394.4572,20.98 L1391.7127,23.0321 L1381.3957,22.9913 M1395.4452,21.4911 L1395.4452,28.808 L1392.3767,31.2073 L1392.3767,23.7824 M1380.4042,23.9876 L1391.3762,24.031 L1391.3762,31.7768 L1380.4462,31.7339" fill="#000000"/><text fill="#212529" font-family="Arial" font-size="12" lengthAdjust="spacing" textLength="70.6934" x="1284.9775" y="47.2559">Infrastructure</text><text fill="#212529" font-family="Arial" font-size="12" lengthAdjust="spacing" textLength="3.334" x="1355.6709" y="47.2559">&#160;</text><text fill="#212529" font-family="Arial" font-size="12" lengthAdjust="spacing" textLength="30.0176" x="1359.0049" y="47.2559">Layer</text></g><!--entity postgres_repo--><g class="entity" data-entity="postgres_repo" data-source-line="210" data-uid="ent0012" id="entity_postgres_repo"><rect fill="#C9FFC9" height="52.7988" rx="0.5" ry="0.5" style="stroke:#181818;stroke-width:0.5;" width="155.3984" x="482.31" y="520.99"/><path d="M618.6984,534.34 C616.173,534.3017 613.8792,535.7995 612.8926,538.1108 C611.5182,539.2672 610.6521,541.0066 610.6752,542.9379 C610.716,546.3572 613.5288,549.1094 616.9482,549.0745 C619.4806,549.0486 621.6484,547.5011 622.5908,545.3109 A0.5,0.5 0 0 0 622.6027,545.3009 C624.5846,543.6333 625.3233,540.9051 624.4543,538.4651 C623.5853,536.0251 621.2884,534.3791 618.6986,534.3398 M618.6829,535.3399 C620.8587,535.3729 622.7809,536.7507 623.511,538.8007 C624.0414,540.2897 623.8604,541.902 623.0837,543.2097 C623.0907,543.0777 623.0941,542.9448 623.0927,542.8108 C623.0635,539.3914 620.2604,536.6312 616.8409,536.6546 A0.5,0.5 0 0 0 616.8213,536.6626 A0.5,0.5 0 0 0 616.7996,536.6546 C616.085,536.6646 615.4001,536.7952 614.7636,537.0272 C615.7493,535.9525 617.1644,535.3169 618.6827,535.34 M616.8313,537.6467 A0.5,0.5 0 0 0 616.8489,537.6547 C619.7286,537.635 622.0685,539.9412 622.093,542.8208 C622.1176,545.7004 619.8163,548.0453 616.9367,548.0747 C614.0571,548.1041 611.7093,545.8057 611.675,542.9262 C611.6561,541.3378 612.3452,539.9099 613.4506,538.942 A0.5,0.5 0 0 0 613.7157,538.7245 C614.5745,538.0669 615.6461,537.6707 616.8137,537.6548 A0.5,0.5 0 0 0 616.8313,537.6468" fill="#000000"/><text fill="#212529" font-family="Arial" font-size="12" lengthAdjust="spacing" textLength="65.3672" x="492.31" y="561.2459">PostgreSQL</text><text fill="#212529" font-family="Arial" font-size="12" lengthAdjust="spacing" textLength="3.334" x="557.6772" y="561.2459">&#160;</text><text fill="#212529" font-family="Arial" font-size="12" lengthAdjust="spacing" textLength="66.6973" x="561.0112" y="561.2459">Repositories</text></g><!--entity sqlite_repo--><g class="entity" data-entity="sqlite_repo" data-source-line="210" data-uid="ent0013" id="entity_sqlite_repo"><rect fill="#C9FFC9" height="52.7988" rx="0.5" ry="0.5" style="stroke:#181818;stroke-width:0.5;" width="140" x="678" y="520.99"/><path d="M798.99,534.34 C796.4646,534.3017 794.1708,535.7995 793.1842,538.1108 C791.8098,539.2672 790.9437,541.0066 790.9668,542.9379 C791.0076,546.3572 793.8204,549.1094 797.2398,549.0745 C799.7722,549.0486 801.94,547.5011 802.8824,545.3109 A0.5,0.5 0 0 0 802.8943,545.3009 C804.8762,543.6333 805.6149,540.9051 804.7459,538.4651 C803.8769,536.0251 801.58,534.3791 798.9902,534.3398 M798.9745,535.3399 C801.1503,535.3729 803.0725,536.7507 803.8026,538.8007 C804.3329,540.2897 804.152,541.902 803.3752,543.2097 C803.3822,543.0777 803.3856,542.9448 803.3842,542.8108 C803.355,539.3914 800.5519,536.6312 797.1324,536.6546 A0.5,0.5 0 0 0 797.1128,536.6626 A0.5,0.5 0 0 0 797.0911,536.6546 C796.3765,536.6646 795.6916,536.7952 795.0551,537.0272 C796.0409,535.9525 797.4559,535.3169 798.9742,535.34 M797.1229,537.6467 A0.5,0.5 0 0 0 797.1405,537.6547 C800.0202,537.635 802.3601,539.9412 802.3846,542.8208 C802.4092,545.7004 800.1079,548.0453 797.2283,548.0747 C794.3487,548.1041 792.0009,545.8057 791.9666,542.9262 C791.9477,541.3378 792.6368,539.9099 793.7422,538.942 A0.5,0.5 0 0 0 794.0073,538.7245 C794.8661,538.0669 795.9377,537.6707 797.1053,537.6548 A0.5,0.5 0 0 0 797.1229,537.6468" fill="#000000"/><text fill="#212529" font-family="Arial" font-size="12" lengthAdjust="spacing" textLength="36.6855" x="694.6416" y="561.2459">SQLite</text><text fill="#212529" font-family="Arial" font-size="12" lengthAdjust="spacing" textLength="3.334" x="731.3271" y="561.2459">&#160;</text><text fill="#212529" font-family="Arial" font-size="12" lengthAdjust="spacing" textLength="66.6973" x="734.6611" y="561.2459">Repositories</text></g><!--entity in_memory_repo--><g class="entity" data-entity="in_memory_repo" data-source-line="210" data-uid="ent0014" id="entity_in_memory_repo"><rect fill="#C9FFC9" height="52.7988" rx="0.5" ry="0.5" style="stroke:#181818;stroke-width:0.5;" width="147.3711" x="858.32" y="520.99"/><path d="M986.6811,534.34 C984.1557,534.3017 981.8619,535.7995 980.8753,538.1108 C979.5009,539.2672 978.6348,541.0066 978.6579,542.9379 C978.6987,546.3572 981.5115,549.1094 984.9309,549.0745 C987.4633,549.0486 989.6311,547.5011 990.5735,545.3109 A0.5,0.5 0 0 0 990.5854,545.3009 C992.5673,543.6333 993.306,540.9051 992.437,538.4651 C991.568,536.0251 989.2711,534.3791 986.6813,534.3398 M986.6656,535.3399 C988.8414,535.3729 990.7636,536.7507 991.4937,538.8007 C992.024,540.2897 991.8431,541.902 991.0663,543.2097 C991.0733,543.0777 991.0767,542.9448 991.0753,542.8108 C991.0461,539.3914 988.243,536.6312 984.8235,536.6546 A0.5,0.5 0 0 0 984.8039,536.6626 A0.5,0.5 0 0 0 984.7822,536.6546 C984.0676,536.6646 983.3827,536.7952 982.7462,537.0272 C983.7319,535.9525 985.147,535.3169 986.6653,535.34 M984.814,537.6467 A0.5,0.5 0 0 0 984.8316,537.6547 C987.7113,537.635 990.0512,539.9412 990.0757,542.8208 C990.1003,545.7004 987.799,548.0453 984.9194,548.0747 C982.0398,548.1041 979.692,545.8057 979.6577,542.9262 C979.6388,541.3378 980.3279,539.9099 981.4333,538.942 A0.5,0.5 0 0 0 981.6984,538.7245 C982.5572,538.0669 983.6288,537.6707 984.7964,537.6548 A0.5,0.5 0 0 0 984.814,537.6468" fill="#000000"/><text fill="#212529" font-family="Arial" font-size="12" lengthAdjust="spacing" textLength="57.3398" x="868.32" y="561.2459">In-Memory</text><text fill="#212529" font-family="Arial" font-size="12" lengthAdjust="spacing" textLength="3.334" x="925.6598" y="561.2459">&#160;</text><text fill="#212529" font-family="Arial" font-size="12" lengthAdjust="spacing" textLength="66.6973" x="928.9938" y="561.2459">Repositories</text></g><!--entity presentation_layer--><g class="entity" data-entity="presentation_layer" data-source-line="173" data-uid="ent0015" id="entity_presentation_layer"><rect fill="#C2F0FF" height="52.7988" rx="0.5" ry="0.5" style="stroke:#181818;stroke-width:0.5;" width="140" x="1447" y="7"/><path d="M1570.495,20.33 C1567.1568,20.3754 1564.4614,23.0618 1564.3734,26.371 L1559.0006,26.371 A0.5,0.5 0 0 0 1558.5009,26.8707 A0.5,0.5 0 0 0 1559.0006,27.3709 L1564.4271,27.3709 C1564.8382,30.4299 1567.4805,32.7822 1570.6433,32.7499 C1574.0627,32.7149 1576.8189,29.9056 1576.7897,26.4862 C1576.7605,23.0668 1573.9574,20.3066 1570.5379,20.33 A0.5,0.5 0 0 0 1570.526,20.3414 A0.5,0.5 0 0 0 1570.495,20.33 M1570.5183,21.3201 A0.5,0.5 0 0 0 1570.5436,21.3301 C1573.4233,21.3104 1575.7652,23.6166 1575.7898,26.4962 C1575.8143,29.3758 1573.5131,31.7207 1570.6335,31.7502 C1567.7539,31.7796 1565.4041,29.4812 1565.3697,26.6017 C1565.3354,23.7222 1567.6289,21.3694 1570.5084,21.3302 A0.5,0.5 0 0 0 1570.5182,21.3202" fill="#000000"/><text fill="#212529" font-family="Arial" font-size="12" lengthAdjust="spacing" textLength="67.377" x="1466.6357" y="47.2559">Presentation</text><text fill="#212529" font-family="Arial" font-size="12" lengthAdjust="spacing" textLength="3.334" x="1534.0127" y="47.2559">&#160;</text><text fill="#212529" font-family="Arial" font-size="12" lengthAdjust="spacing" textLength="30.0176" x="1537.3467" y="47.2559">Layer</text></g><!--entity rest_api--><g class="entity" data-entity="rest_api" data-source-line="173" data-uid="ent0016" id="entity_rest_api"><rect fill="#C2F0FF" height="52.7988" rx="0.5" ry="0.5" style="stroke:#181818;stroke-width:0.5;" width="140" x="547" y="109.8"/><path d="M670.495,123.13 C667.1568,123.1754 664.4614,125.8618 664.3734,129.171 L659.0006,129.171 A0.5,0.5 0 0 0 658.5009,129.6707 A0.5,0.5 0 0 0 659.0006,130.1709 L664.4271,130.1709 C664.8382,133.2299 667.4805,135.5822 670.6433,135.5499 C674.0627,135.5149 676.8189,132.7056 676.7897,129.2862 C676.7605,125.8668 673.9574,123.1066 670.5379,123.13 A0.5,0.5 0 0 0 670.526,123.1414 A0.5,0.5 0 0 0 670.495,123.13 M670.5183,124.1201 A0.5,0.5 0 0 0 670.5436,124.1301 C673.4233,124.1104 675.7652,126.4166 675.7898,129.2962 C675.8143,132.1758 673.5131,134.5207 670.6335,134.5502 C667.7539,134.5796 665.4041,132.2812 665.3697,129.4017 C665.3354,126.5222 667.6289,124.1694 670.5084,124.1302 A0.5,0.5 0 0 0 670.5182,124.1202" fill="#000000"/><text fill="#212529" font-family="Arial" font-size="12" lengthAdjust="spacing" textLength="32.0039" x="589.6602" y="150.0559">REST</text><text fill="#212529" font-family="Arial" font-size="12" lengthAdjust="spacing" textLength="3.334" x="621.6641" y="150.0559">&#160;</text><text fill="#212529" font-family="Arial" font-size="12" lengthAdjust="spacing" textLength="19.3418" x="624.998" y="150.0559">API</text></g><!--entity dtos--><g class="entity" data-entity="dtos" data-source-line="176" data-uid="ent0017" id="entity_dtos"><rect fill="#C2F0FF" height="52.7988" rx="12.5" ry="12.5" style="stroke:#181818;stroke-width:0.5;" width="140" x="457" y="7"/><path d="M577.759,21.32 L568.7961,25.2888 A0.5001,0.5001 0 0 0 568.4992,25.7458 L568.4992,33.7829 A0.5001,0.5001 0 0 0 569.2004,34.24 L577.9953,30.3611 L586.7883,34.24 A0.5001,0.5001 0 0 0 587.4914,33.7829 L587.4914,25.779 A0.5001,0.5001 0 0 0 587.1926,25.322 L578.1653,21.32 A0.5001,0.5001 0 0 0 577.759,21.32 M577.9621,22.3239 L586.4914,26.1032 L586.4914,33.0173 L578.1965,29.3571 A0.5001,0.5001 0 0 0 577.7922,29.3571 L569.4992,33.0173 L569.4992,26.072" fill="#000000"/><text fill="#212529" font-family="Arial" font-size="12" lengthAdjust="spacing" textLength="31.3301" x="511.335" y="47.2559">DTOs</text></g><!--entity middleware--><g class="entity" data-entity="middleware" data-source-line="176" data-uid="ent0018" id="entity_middleware"><rect fill="#C2F0FF" height="52.7988" rx="12.5" ry="12.5" style="stroke:#181818;stroke-width:0.5;" width="140" x="637" y="7"/><path d="M757.759,21.32 L748.7961,25.2888 A0.5001,0.5001 0 0 0 748.4992,25.7458 L748.4992,33.7829 A0.5001,0.5001 0 0 0 749.2004,34.24 L757.9953,30.3611 L766.7883,34.24 A0.5001,0.5001 0 0 0 767.4914,33.7829 L767.4914,25.779 A0.5001,0.5001 0 0 0 767.1926,25.322 L758.1653,21.32 A0.5001,0.5001 0 0 0 757.759,21.32 M757.9621,22.3239 L766.4914,26.1032 L766.4914,33.0173 L758.1965,29.3571 A0.5001,0.5001 0 0 0 757.7922,29.3571 L749.4992,33.0173 L749.4992,26.072" fill="#000000"/><text fill="#212529" font-family="Arial" font-size="12" lengthAdjust="spacing" textLength="61.3594" x="676.3203" y="47.2559">Middleware</text></g><!--entity ddd_principle--><g class="entity" data-entity="ddd_principle" data-source-line="286" data-uid="ent0019" id="entity_ddd_principle"><path d="M18.65,7 L135.359,7 L147.359,19 L147.359,47.7988 L135.359,59.7988 L18.65,59.7988 L6.65,47.7988 L6.65,19 L18.65,7" fill="#CCCCFF" style="stroke:#181818;stroke-width:0.5;"/><path d="M128.399,20.367 C126.7573,20.371 125.1143,20.4398 123.7951,20.5722 C123.1355,20.6383 122.558,20.7197 122.0919,20.8218 C121.7593,20.8946 121.5361,21.0153 121.2992,21.1422 L121.1235,21.1422 L120.9808,21.2713 C120.7006,21.5254 120.5925,21.8408 120.4827,22.2263 C120.3728,22.6118 120.2916,23.0732 120.2269,23.5952 C120.0974,24.6393 120.0422,25.9215 120.0512,27.2048 C120.0602,28.4881 120.1326,29.7682 120.2662,30.8103 C120.3329,31.3313 120.4141,31.792 120.5158,32.1735 C120.6174,32.555 120.7069,32.8543 120.9534,33.1151 C121.2588,33.4381 121.5844,33.4785 122.0376,33.574 C122.4909,33.6694 123.059,33.7436 123.7114,33.8024 C125.0162,33.9199 126.658,33.9744 128.3013,33.9703 C129.9447,33.9662 131.5851,33.9022 132.8871,33.7827 C133.5381,33.723 134.1031,33.6505 134.5531,33.5584 C135.0032,33.4664 135.3171,33.435 135.6275,33.1249 C135.8856,32.867 135.9838,32.5604 136.0901,32.1776 C136.1963,31.7949 136.2804,31.3354 136.3479,30.8159 C136.4829,29.777 136.5527,28.5023 136.5608,27.2244 C136.5688,25.9465 136.5148,24.6691 136.397,23.6267 C136.3381,23.1055 136.2628,22.6437 136.1665,22.2593 C136.0702,21.875 135.9817,21.5732 135.7443,21.3085 C135.4503,20.9805 135.1091,20.9144 134.6529,20.8083 C134.1968,20.7021 133.6304,20.6198 132.9791,20.5545 C131.6765,20.4239 130.0407,20.363 128.399,20.3669 M128.403,21.3669 C130.0183,21.363 131.6298,21.4251 132.8797,21.5504 C133.5047,21.6131 134.0395,21.6929 134.4264,21.7829 C134.7534,21.859 134.9783,21.9876 135.0062,21.9881 L135.0072,21.9881 L135.0077,21.9876 C135.0343,22.0388 135.1302,22.2336 135.1979,22.5038 C135.2774,22.821 135.3474,23.2476 135.4031,23.7399 C135.5144,24.7246 135.5691,25.9728 135.5612,27.2182 C135.5532,28.4636 135.4831,29.7091 135.356,30.6872 C135.2925,31.1763 135.214,31.5986 135.1276,31.9099 C135.0593,32.1561 134.9675,32.3328 134.9338,32.3941 C134.9042,32.3914 134.6701,32.5147 134.3525,32.5797 C133.9626,32.6594 133.4239,32.7313 132.7955,32.7889 C131.5385,32.9043 129.9172,32.9663 128.2976,32.9703 C126.678,32.9743 125.0567,32.9197 123.7997,32.8065 C123.1712,32.7499 122.6336,32.677 122.2447,32.5951 C121.9278,32.5284 121.7011,32.4047 121.67,32.4055 C121.6392,32.3446 121.549,32.1634 121.483,31.9156 C121.3993,31.6013 121.3218,31.1753 121.2587,30.6831 C121.1326,29.6987 121.0602,28.4468 121.0515,27.197 C121.0425,25.9472 121.0981,24.6971 121.2194,23.7187 C121.2801,23.2295 121.3587,22.8071 121.4463,22.4997 C121.526,22.2202 121.6378,22.0398 121.652,22.0145 C121.6685,22.0143 121.9322,21.8802 122.3057,21.7985 C122.7106,21.7098 123.2598,21.6317 123.8953,21.568 C125.1661,21.4405 126.7877,21.3709 128.403,21.367 M127.2036,22.6521 A0.5001,0.5001 0 0 0 126.7158,23.2557 L127.817,28.5019 A0.5001,0.5001 0 0 0 128.7993,28.4802 L129.6784,23.234 A0.5001,0.5001 0 0 0 129.1864,22.6521 M128.2935,30.0956 C127.8142,30.1022 127.4206,30.5067 127.4264,30.986 C127.4324,31.4654 127.8358,31.8601 128.3152,31.8552 C128.7945,31.8503 129.1905,31.4478 129.1865,30.9685 C129.1835,30.6241 128.9439,30.381 128.649,30.2398 A0.5,0.5 0 0 0 128.5162,30.1856 C128.4389,30.1634 128.3834,30.0951 128.2997,30.0956 A0.5,0.5 0 0 0 128.2977,30.0977 A0.5,0.5 0 0 0 128.2937,30.0956" fill="#000000"/><text fill="#212529" font-family="Arial" font-size="12" lengthAdjust="spacing" textLength="80.0215" x="16.65" y="47.2559">Domain-Driven</text><text fill="#212529" font-family="Arial" font-size="12" lengthAdjust="spacing" textLength="3.334" x="96.6715" y="47.2559">&#160;</text><text fill="#212529" font-family="Arial" font-size="12" lengthAdjust="spacing" textLength="37.3535" x="100.0055" y="47.2559">Design</text></g><!--entity clean_arch--><g class="entity" data-entity="clean_arch" data-source-line="286" data-uid="ent0020" id="entity_clean_arch"><path d="M1099,7 L1215,7 L1227,19 L1227,47.7988 L1215,59.7988 L1099,59.7988 L1087,47.7988 L1087,19 L1099,7" fill="#CCCCFF" style="stroke:#181818;stroke-width:0.5;"/><path d="M1208.04,20.367 C1206.3983,20.371 1204.7553,20.4398 1203.4361,20.5722 C1202.7765,20.6383 1202.199,20.7197 1201.7329,20.8218 C1201.4003,20.8946 1201.1772,21.0153 1200.9402,21.1422 L1200.7645,21.1422 L1200.6219,21.2713 C1200.3417,21.5254 1200.2336,21.8408 1200.1237,22.2263 C1200.0138,22.6118 1199.9326,23.0732 1199.8679,23.5952 C1199.7384,24.6393 1199.6833,25.9215 1199.6922,27.2048 C1199.7012,28.4881 1199.7736,29.7682 1199.9072,30.8103 C1199.9739,31.3313 1200.0552,31.792 1200.1568,32.1735 C1200.2584,32.555 1200.3479,32.8543 1200.5945,33.1151 C1200.8998,33.4381 1201.2254,33.4785 1201.6787,33.574 C1202.1319,33.6694 1202.7001,33.7436 1203.3525,33.8024 C1204.6573,33.9199 1206.2991,33.9744 1207.9424,33.9703 C1209.5858,33.9662 1211.2262,33.9022 1212.5282,33.7827 C1213.1791,33.723 1213.7442,33.6505 1214.1942,33.5584 C1214.6443,33.4664 1214.9581,33.435 1215.2686,33.1249 C1215.5266,32.867 1215.6248,32.5604 1215.7311,32.1776 C1215.8373,31.7949 1215.9214,31.3354 1215.9889,30.8159 C1216.1239,29.777 1216.1937,28.5023 1216.2018,27.2244 C1216.2098,25.9465 1216.1558,24.6691 1216.038,23.6267 C1215.9791,23.1055 1215.9039,22.6437 1215.8076,22.2593 C1215.7113,21.875 1215.6227,21.5732 1215.3854,21.3085 C1215.0913,20.9805 1214.7501,20.9144 1214.294,20.8083 C1213.8378,20.7021 1213.2715,20.6198 1212.6202,20.5545 C1211.3176,20.4239 1209.6818,20.363 1208.0401,20.3669 M1208.044,21.3669 C1209.6593,21.363 1211.2708,21.4251 1212.5207,21.5504 C1213.1457,21.6131 1213.6805,21.6929 1214.0674,21.7829 C1214.3944,21.859 1214.6193,21.9876 1214.6472,21.9881 L1214.6482,21.9881 L1214.6488,21.9876 C1214.6754,22.0388 1214.7712,22.2336 1214.8389,22.5038 C1214.9184,22.821 1214.9884,23.2476 1215.0441,23.7399 C1215.1554,24.7246 1215.2101,25.9728 1215.2022,27.2182 C1215.1942,28.4636 1215.1241,29.7091 1214.9971,30.6872 C1214.9336,31.1763 1214.8551,31.5986 1214.7687,31.9099 C1214.7004,32.1561 1214.6086,32.3328 1214.5749,32.3941 C1214.5453,32.3914 1214.3111,32.5147 1213.9935,32.5797 C1213.6037,32.6594 1213.065,32.7313 1212.4365,32.7889 C1211.1795,32.9043 1209.5582,32.9663 1207.9386,32.9703 C1206.319,32.9743 1204.6977,32.9197 1203.4407,32.8065 C1202.8122,32.7499 1202.2746,32.677 1201.8857,32.5951 C1201.5688,32.5284 1201.3422,32.4047 1201.3111,32.4055 C1201.2803,32.3446 1201.19,32.1634 1201.124,31.9156 C1201.0403,31.6013 1200.9628,31.1753 1200.8997,30.6831 C1200.7736,29.6987 1200.7012,28.4468 1200.6925,27.197 C1200.6835,25.9472 1200.7391,24.6971 1200.8604,23.7187 C1200.9211,23.2295 1200.9997,22.8071 1201.0873,22.4997 C1201.167,22.2202 1201.2789,22.0398 1201.293,22.0145 C1201.3095,22.0143 1201.5732,21.8802 1201.9467,21.7985 C1202.3516,21.7098 1202.9009,21.6317 1203.5363,21.568 C1204.8071,21.4405 1206.4287,21.3709 1208.044,21.367 M1206.8446,22.6521 A0.5001,0.5001 0 0 0 1206.3568,23.2557 L1207.458,28.5019 A0.5001,0.5001 0 0 0 1208.4404,28.4802 L1209.3194,23.234 A0.5001,0.5001 0 0 0 1208.8274,22.6521 M1207.9345,30.0956 C1207.4553,30.1022 1207.0617,30.5067 1207.0674,30.986 C1207.0734,31.4654 1207.4769,31.8601 1207.9562,31.8552 C1208.4355,31.8503 1208.8316,31.4478 1208.8275,30.9685 C1208.8245,30.6241 1208.5849,30.381 1208.29,30.2398 A0.5,0.5 0 0 0 1208.1572,30.1856 C1208.0799,30.1634 1208.0244,30.0951 1207.9407,30.0956 A0.5,0.5 0 0 0 1207.9387,30.0977 A0.5,0.5 0 0 0 1207.9347,30.0956" fill="#000000"/><text fill="#212529" font-family="Arial" font-size="12" lengthAdjust="spacing" textLength="31.3535" x="1107.6436" y="47.2559">Clean</text><text fill="#212529" font-family="Arial" font-size="12" lengthAdjust="spacing" textLength="3.334" x="1138.9971" y="47.2559">&#160;</text><text fill="#212529" font-family="Arial" font-size="12" lengthAdjust="spacing" textLength="64.0254" x="1142.3311" y="47.2559">Architecture</text></g><!--entity cqrs--><g class="entity" data-entity="cqrs" data-source-line="286" data-uid="ent0021" id="entity_cqrs"><path d="M739,109.8 L855,109.8 L867,121.8 L867,150.5988 L855,162.5988 L739,162.5988 L727,150.5988 L727,121.8 L739,109.8" fill="#CCCCFF" style="stroke:#181818;stroke-width:0.5;"/><path d="M848.04,123.167 C846.3983,123.171 844.7553,123.2398 843.4361,123.3722 C842.7765,123.4383 842.199,123.5197 841.7329,123.6218 C841.4003,123.6946 841.1772,123.8153 840.9402,123.9421 L840.7645,123.9421 L840.6219,124.0713 C840.3417,124.3254 840.2336,124.6408 840.1237,125.0263 C840.0138,125.4118 839.9326,125.8732 839.8679,126.3952 C839.7384,127.4393 839.6833,128.7215 839.6922,130.0048 C839.7012,131.2881 839.7736,132.5682 839.9072,133.6103 C839.9739,134.1313 840.0552,134.592 840.1568,134.9735 C840.2584,135.355 840.3479,135.6543 840.5945,135.9151 C840.8998,136.2381 841.2254,136.2785 841.6787,136.3739 C842.1319,136.4694 842.7001,136.5436 843.3525,136.6024 C844.6573,136.7199 846.2991,136.7744 847.9424,136.7703 C849.5858,136.7662 851.2262,136.7022 852.5282,136.5827 C853.1791,136.523 853.7442,136.4505 854.1942,136.3584 C854.6443,136.2664 854.9581,136.235 855.2686,135.9249 C855.5266,135.667 855.6248,135.3604 855.7311,134.9776 C855.8373,134.5949 855.9214,134.1354 855.9889,133.6159 C856.1239,132.577 856.1937,131.3023 856.2018,130.0244 C856.2098,128.7465 856.1558,127.4691 856.038,126.4267 C855.9791,125.9055 855.9039,125.4437 855.8076,125.0593 C855.7113,124.675 855.6227,124.3732 855.3854,124.1085 C855.0913,123.7805 854.7501,123.7144 854.294,123.6083 C853.8378,123.5021 853.2715,123.4198 852.6202,123.3545 C851.3176,123.2239 849.6818,123.163 848.0401,123.1669 M848.044,124.1669 C849.6593,124.163 851.2708,124.2251 852.5207,124.3504 C853.1457,124.413 853.6805,124.4929 854.0674,124.5829 C854.3944,124.659 854.6193,124.7876 854.6472,124.7881 L854.6482,124.7881 L854.6488,124.7876 C854.6754,124.8388 854.7712,125.0336 854.8389,125.3038 C854.9184,125.621 854.9884,126.0476 855.0441,126.5399 C855.1554,127.5246 855.2101,128.7728 855.2022,130.0182 C855.1942,131.2636 855.1241,132.5091 854.9971,133.4872 C854.9336,133.9763 854.8551,134.3986 854.7687,134.7099 C854.7004,134.9561 854.6086,135.1328 854.5749,135.1941 C854.5453,135.1914 854.3111,135.3147 853.9935,135.3797 C853.6037,135.4594 853.065,135.5313 852.4365,135.5889 C851.1795,135.7043 849.5582,135.7663 847.9386,135.7703 C846.319,135.7743 844.6977,135.7197 843.4407,135.6065 C842.8122,135.5499 842.2746,135.477 841.8857,135.3951 C841.5688,135.3284 841.3422,135.2047 841.3111,135.2055 C841.2803,135.1446 841.19,134.9634 841.124,134.7156 C841.0403,134.4013 840.9628,133.9753 840.8997,133.4831 C840.7736,132.4987 840.7012,131.2468 840.6925,129.997 C840.6835,128.7472 840.7391,127.4971 840.8604,126.5187 C840.9211,126.0295 840.9997,125.6071 841.0873,125.2997 C841.167,125.0202 841.2789,124.8398 841.293,124.8145 C841.3095,124.8143 841.5732,124.6802 841.9467,124.5985 C842.3516,124.5098 842.9009,124.4317 843.5363,124.368 C844.8071,124.2405 846.4287,124.1709 848.044,124.167 M846.8446,125.4521 A0.5001,0.5001 0 0 0 846.3568,126.0557 L847.458,131.3019 A0.5001,0.5001 0 0 0 848.4404,131.2802 L849.3194,126.034 A0.5001,0.5001 0 0 0 848.8274,125.4521 M847.9345,132.8956 C847.4553,132.9022 847.0617,133.3067 847.0674,133.786 C847.0734,134.2653 847.4769,134.6601 847.9562,134.6552 C848.4355,134.6503 848.8316,134.2478 848.8275,133.7684 C848.8245,133.4241 848.5849,133.181 848.29,133.0398 A0.5,0.5 0 0 0 848.1572,132.9855 C848.0799,132.9634 848.0244,132.895 847.9407,132.8956 A0.5,0.5 0 0 0 847.9387,132.8977 A0.5,0.5 0 0 0 847.9347,132.8956" fill="#000000"/><text fill="#212529" font-family="Arial" font-size="12" lengthAdjust="spacing" textLength="34.6699" x="758.6533" y="150.0559">CQRS</text><text fill="#212529" font-family="Arial" font-size="12" lengthAdjust="spacing" textLength="3.334" x="793.3232" y="150.0559">&#160;</text><text fill="#212529" font-family="Arial" font-size="12" lengthAdjust="spacing" textLength="38.6895" x="796.6572" y="150.0559">Pattern</text></g><!--entity ports_adapters--><g class="entity" data-entity="ports_adapters" data-source-line="286" data-uid="ent0022" id="entity_ports_adapters"><path d="M870,315.39 L986,315.39 L998,327.39 L998,356.1888 L986,368.1888 L870,368.1888 L858,356.1888 L858,327.39 L870,315.39" fill="#CCCCFF" style="stroke:#181818;stroke-width:0.5;"/><path d="M979.04,328.757 C977.3983,328.761 975.7553,328.8298 974.4361,328.9622 C973.7765,329.0283 973.199,329.1097 972.7329,329.2118 C972.4003,329.2846 972.1772,329.4053 971.9402,329.5322 L971.7645,329.5322 L971.6219,329.6613 C971.3417,329.9154 971.2336,330.2308 971.1237,330.6163 C971.0138,331.0018 970.9326,331.4632 970.8679,331.9852 C970.7384,333.0293 970.6833,334.3115 970.6922,335.5948 C970.7012,336.8781 970.7736,338.1582 970.9072,339.2003 C970.9739,339.7213 971.0552,340.182 971.1568,340.5635 C971.2584,340.945 971.3479,341.2443 971.5945,341.5051 C971.8998,341.8281 972.2254,341.8685 972.6787,341.964 C973.1319,342.0594 973.7001,342.1336 974.3525,342.1924 C975.6573,342.3099 977.2991,342.3644 978.9424,342.3603 C980.5858,342.3562 982.2262,342.2922 983.5282,342.1727 C984.1791,342.113 984.7442,342.0405 985.1942,341.9484 C985.6443,341.8564 985.9581,341.825 986.2686,341.5149 C986.5266,341.257 986.6248,340.9504 986.7311,340.5676 C986.8373,340.1849 986.9214,339.7254 986.9889,339.2059 C987.1239,338.167 987.1937,336.8923 987.2018,335.6144 C987.2098,334.3365 987.1558,333.0591 987.038,332.0167 C986.9791,331.4956 986.9039,331.0337 986.8076,330.6493 C986.7113,330.265 986.6227,329.9632 986.3854,329.6985 C986.0913,329.3706 985.7501,329.3044 985.294,329.1983 C984.8378,329.0921 984.2715,329.0098 983.6202,328.9445 C982.3176,328.8139 980.6818,328.753 979.0401,328.7569 M979.044,329.7569 C980.6593,329.753 982.2708,329.8151 983.5207,329.9404 C984.1457,330.0031 984.6805,330.0829 985.0674,330.1729 C985.3944,330.249 985.6193,330.3776 985.6472,330.3781 L985.6482,330.3781 L985.6488,330.3776 C985.6754,330.4288 985.7712,330.6236 985.8389,330.8938 C985.9184,331.211 985.9884,331.6376 986.0441,332.1299 C986.1554,333.1146 986.2101,334.3628 986.2022,335.6082 C986.1942,336.8536 986.1241,338.0991 985.9971,339.0772 C985.9336,339.5663 985.8551,339.9886 985.7687,340.2999 C985.7004,340.5461 985.6086,340.7228 985.5749,340.7841 C985.5453,340.7814 985.3111,340.9047 984.9935,340.9697 C984.6037,341.0494 984.065,341.1213 983.4365,341.1789 C982.1795,341.2943 980.5582,341.3563 978.9386,341.3603 C977.319,341.3643 975.6977,341.3097 974.4407,341.1965 C973.8122,341.1399 973.2746,341.067 972.8857,340.9851 C972.5688,340.9184 972.3422,340.7947 972.3111,340.7955 C972.2803,340.7346 972.19,340.5534 972.124,340.3056 C972.0403,339.9913 971.9628,339.5653 971.8997,339.0731 C971.7736,338.0887 971.7012,336.8368 971.6925,335.587 C971.6835,334.3372 971.7391,333.0871 971.8604,332.1087 C971.9211,331.6195 971.9997,331.1971 972.0873,330.8897 C972.167,330.6102 972.2789,330.4298 972.293,330.4045 C972.3095,330.4043 972.5732,330.2702 972.9467,330.1885 C973.3516,330.0998 973.9009,330.0217 974.5363,329.958 C975.8071,329.8305 977.4287,329.7609 979.044,329.757 M977.8446,331.0421 A0.5001,0.5001 0 0 0 977.3568,331.6457 L978.458,336.8919 A0.5001,0.5001 0 0 0 979.4404,336.8702 L980.3194,331.624 A0.5001,0.5001 0 0 0 979.8274,331.0421 M978.9345,338.4856 C978.4553,338.4922 978.0617,338.8967 978.0674,339.376 C978.0734,339.8554 978.4769,340.2501 978.9562,340.2452 C979.4355,340.2403 979.8316,339.8378 979.8275,339.3585 C979.8245,339.0141 979.5849,338.771 979.29,338.6298 A0.5,0.5 0 0 0 979.1572,338.5756 C979.0799,338.5534 979.0244,338.4851 978.9407,338.4856 A0.5,0.5 0 0 0 978.9387,338.4877 A0.5,0.5 0 0 0 978.9347,338.4856" fill="#000000"/><text fill="#212529" font-family="Arial" font-size="12" lengthAdjust="spacing" textLength="28.0078" x="882.6455" y="355.6459">Ports</text><text fill="#212529" font-family="Arial" font-size="12" lengthAdjust="spacing" textLength="3.334" x="910.6533" y="355.6459">&#160;</text><text fill="#212529" font-family="Arial" font-size="12" lengthAdjust="spacing" textLength="8.0039" x="913.9873" y="355.6459">&amp;</text><text fill="#212529" font-family="Arial" font-size="12" lengthAdjust="spacing" textLength="3.334" x="921.9912" y="355.6459">&#160;</text><text fill="#212529" font-family="Arial" font-size="12" lengthAdjust="spacing" textLength="48.0293" x="925.3252" y="355.6459">Adapters</text></g><!--link ddd_principle to domain_layer--><g class="link" data-entity-1="ddd_principle" data-entity-2="domain_layer" data-source-line="349" data-uid="lnk23" id="link_ddd_principle_domain_layer"><path d="M77,60.14 C77,75.37 77,88.38 77,103.59" fill="none" id="ddd_principle-to-domain_layer" style="stroke:#007ACC;stroke-width:2;"/><polygon fill="#007ACC" points="77,109.59,81,100.59,77,104.59,73,100.59,77,109.59" style="stroke:#007ACC;stroke-width:2;"/><text fill="#212529" font-family="Arial" font-size="12" lengthAdjust="spacing" textLength="35.3613" x="41" y="82.1159">guides</text></g><!--link clean_arch to application_layer--><g class="link" data-entity-1="clean_arch" data-entity-2="application_layer" data-source-line="349" data-uid="lnk24" id="link_clean_arch_application_layer"><path d="M1157,60.14 C1157,75.37 1157,88.38 1157,103.59" fill="none" id="clean_arch-to-application_layer" style="stroke:#007ACC;stroke-width:2;"/><polygon fill="#007ACC" points="1157,109.59,1161,100.59,1157,104.59,1153,100.59,1157,109.59" style="stroke:#007ACC;stroke-width:2;"/><text fill="#212529" font-family="Arial" font-size="12" lengthAdjust="spacing" textLength="52.6816" x="1104" y="82.1159">structures</text></g><!--link cqrs to handlers--><g class="link" data-entity-1="cqrs" data-entity-2="handlers" data-source-line="349" data-uid="lnk25" id="link_cqrs_handlers"><path d="M772,162.88 C772,193.28 772,238.79 772,238.79 C772,238.79 734.26,238.79 693.25,238.79" fill="none" id="cqrs-to-handlers" style="stroke:#007ACC;stroke-width:2;"/><polygon fill="#007ACC" points="687.25,238.79,696.25,242.79,692.25,238.79,696.25,234.79,687.25,238.79" style="stroke:#007ACC;stroke-width:2;"/><text fill="#212529" font-family="Arial" font-size="12" lengthAdjust="spacing" textLength="61.3535" x="705.58" y="236.0459">implements</text></g><!--link ports_adapters to repositories--><g class="link" data-entity-1="ports_adapters" data-entity-2="repositories" data-source-line="349" data-uid="lnk26" id="link_ports_adapters_repositories"><path d="M951.44,368.48 C951.44,396.27 951.44,435.79 951.44,435.79 C951.44,435.79 883.1,435.79 824.3,435.79" fill="none" id="ports_adapters-to-repositories" style="stroke:#007ACC;stroke-width:2;"/><polygon fill="#007ACC" points="818.3,435.79,827.3,439.79,823.3,435.79,827.3,431.79,818.3,435.79" style="stroke:#007ACC;stroke-width:2;"/><text fill="#212529" font-family="Arial" font-size="12" lengthAdjust="spacing" textLength="42.0352" x="875.53" y="433.0459">enables</text></g><!--link entities to domain_services--><g class="link" data-entity-1="entities" data-entity-2="domain_services" data-source-line="349" data-uid="lnk27" id="link_entities_domain_services"><path d="M838,265.73 C838,296.19 838,341.79 838,341.79 C838,341.79 835.86,341.79 824.48,341.79" fill="none" id="entities-to-domain_services" style="stroke:#007ACC;stroke-width:2;"/><polygon fill="#007ACC" points="818.48,341.79,827.48,345.79,823.48,341.79,827.48,337.79,818.48,341.79" style="stroke:#007ACC;stroke-width:2;"/><text fill="#212529" font-family="Arial" font-size="12" lengthAdjust="spacing" textLength="26.0215" x="795" y="310.7859">used</text><text fill="#212529" font-family="Arial" font-size="12" lengthAdjust="spacing" textLength="3.334" x="821.0215" y="310.7859">&#160;</text><text fill="#212529" font-family="Arial" font-size="12" lengthAdjust="spacing" textLength="12.6738" x="824.3555" y="310.7859">by</text></g><!--link value_objects to entities--><g class="link" data-entity-1="value_objects" data-entity-2="entities" data-source-line="349" data-uid="lnk28" id="link_value_objects_entities"><path d="M932,162.94 C932,178.17 932,191.18 932,206.39" fill="none" id="value_objects-to-entities" style="stroke:#007ACC;stroke-width:2;"/><polygon fill="#007ACC" points="932,212.39,936,203.39,932,207.39,928,203.39,932,212.39" style="stroke:#007ACC;stroke-width:2;"/><text fill="#212529" font-family="Arial" font-size="12" lengthAdjust="spacing" textLength="48.6914" x="883" y="184.9159">compose</text></g><!--link domain_services to repositories--><g class="link" data-entity-1="domain_services" data-entity-2="repositories" data-source-line="349" data-uid="lnk29" id="link_domain_services_repositories"><path d="M748,368.53 C748,383.76 748,396.78 748,411.98" fill="none" id="domain_services-to-repositories" style="stroke:#007ACC;stroke-width:2;"/><polygon fill="#007ACC" points="748,417.98,752,408.98,748,412.98,744,408.98,748,417.98" style="stroke:#007ACC;stroke-width:2;"/><text fill="#212529" font-family="Arial" font-size="12" lengthAdjust="spacing" textLength="25.3477" x="722" y="390.5159">uses</text></g><!--link commands to handlers--><g class="link" data-entity-1="commands" data-entity-2="handlers" data-source-line="349" data-uid="lnk30" id="link_commands_handlers"><path d="M257,162.93 C257,195.94 257,247.79 257,247.79 C257,247.79 435.97,247.79 540.74,247.79" fill="none" id="commands-to-handlers" style="stroke:#007ACC;stroke-width:2;"/><polygon fill="#007ACC" points="546.74,247.79,537.74,243.79,541.74,247.79,537.74,251.79,546.74,247.79" style="stroke:#007ACC;stroke-width:2;"/><text fill="#212529" font-family="Arial" font-size="12" lengthAdjust="spacing" textLength="55.3652" x="287.44" y="245.0459">processed</text><text fill="#212529" font-family="Arial" font-size="12" lengthAdjust="spacing" textLength="3.334" x="342.8052" y="245.0459">&#160;</text><text fill="#212529" font-family="Arial" font-size="12" lengthAdjust="spacing" textLength="12.6738" x="346.1392" y="245.0459">by</text></g><!--link queries to handlers--><g class="link" data-entity-1="queries" data-entity-2="handlers" data-source-line="349" data-uid="lnk31" id="link_queries_handlers"><path d="M494.65,163.02 C494.65,190.67 494.65,229.79 494.65,229.79 C494.65,229.79 513.34,229.79 540.54,229.79" fill="none" id="queries-to-handlers" style="stroke:#007ACC;stroke-width:2;"/><polygon fill="#007ACC" points="546.54,229.79,537.54,225.79,541.54,229.79,537.54,233.79,546.54,229.79" style="stroke:#007ACC;stroke-width:2;"/><text fill="#212529" font-family="Arial" font-size="12" lengthAdjust="spacing" textLength="55.3652" x="422.65" y="219.6059">processed</text><text fill="#212529" font-family="Arial" font-size="12" lengthAdjust="spacing" textLength="3.334" x="478.0152" y="219.6059">&#160;</text><text fill="#212529" font-family="Arial" font-size="12" lengthAdjust="spacing" textLength="12.6738" x="481.3492" y="219.6059">by</text></g><!--link handlers to domain_services--><g class="link" data-entity-1="handlers" data-entity-2="domain_services" data-source-line="349" data-uid="lnk32" id="link_handlers_domain_services"><path d="M682.5,265.73 C682.5,280.96 682.5,293.98 682.5,309.19" fill="none" id="handlers-to-domain_services" style="stroke:#007ACC;stroke-width:2;"/><polygon fill="#007ACC" points="682.5,315.19,686.5,306.19,682.5,310.19,678.5,306.19,682.5,315.19" style="stroke:#007ACC;stroke-width:2;"/><text fill="#212529" font-family="Arial" font-size="12" lengthAdjust="spacing" textLength="66.0293" x="615.5" y="287.7159">orchestrates</text></g><!--link handlers to repositories--><g class="link" data-entity-1="handlers" data-entity-2="repositories" data-source-line="349" data-uid="lnk33" id="link_handlers_repositories"><path d="M657.85,265.53 C657.85,319.25 657.85,435.79 657.85,435.79 C657.85,435.79 660.22,435.79 671.86,435.79" fill="none" id="handlers-to-repositories" style="stroke:#007ACC;stroke-width:2;"/><polygon fill="#007ACC" points="677.86,435.79,668.86,431.79,672.86,435.79,668.86,439.79,677.86,435.79" style="stroke:#007ACC;stroke-width:2;"/><text fill="#212529" font-family="Arial" font-size="12" lengthAdjust="spacing" textLength="25.3477" x="631.85" y="357.9259">uses</text></g><!--link repositories to postgres_repo--><g class="link" data-entity-1="repositories" data-entity-2="postgres_repo" data-source-line="349" data-uid="lnk34" id="link_repositories_postgres_repo"><path d="M677.92,453.79 C636.61,453.79 592.35,453.79 592.35,453.79 C592.35,453.79 592.35,486.91 592.35,514.57" fill="none" id="repositories-to-postgres_repo" style="stroke:#007ACC;stroke-width:2;"/><polygon fill="#007ACC" points="592.35,520.57,596.35,511.57,592.35,515.57,588.35,511.57,592.35,520.57" style="stroke:#007ACC;stroke-width:2;"/><text fill="#212529" font-family="Arial" font-size="12" lengthAdjust="spacing" textLength="68.7012" x="516.75" y="451.0459">implemented</text><text fill="#212529" font-family="Arial" font-size="12" lengthAdjust="spacing" textLength="3.334" x="585.4512" y="451.0459">&#160;</text><text fill="#212529" font-family="Arial" font-size="12" lengthAdjust="spacing" textLength="12.6738" x="588.7852" y="451.0459">by</text></g><!--link repositories to sqlite_repo--><g class="link" data-entity-1="repositories" data-entity-2="sqlite_repo" data-source-line="349" data-uid="lnk35" id="link_repositories_sqlite_repo"><path d="M748,471.33 C748,486.56 748,499.58 748,514.78" fill="none" id="repositories-to-sqlite_repo" style="stroke:#007ACC;stroke-width:2;"/><polygon fill="#007ACC" points="748,520.78,752,511.78,748,515.78,744,511.78,748,520.78" style="stroke:#007ACC;stroke-width:2;"/><text fill="#212529" font-family="Arial" font-size="12" lengthAdjust="spacing" textLength="68.7012" x="663" y="493.3159">implemented</text><text fill="#212529" font-family="Arial" font-size="12" lengthAdjust="spacing" textLength="3.334" x="731.7012" y="493.3159">&#160;</text><text fill="#212529" font-family="Arial" font-size="12" lengthAdjust="spacing" textLength="12.6738" x="735.0352" y="493.3159">by</text></g><!--link repositories to in_memory_repo--><g class="link" data-entity-1="repositories" data-entity-2="in_memory_repo" data-source-line="349" data-uid="lnk36" id="link_repositories_in_memory_repo"><path d="M818.18,453.79 C859.95,453.79 904.88,453.79 904.88,453.79 C904.88,453.79 904.88,486.91 904.88,514.57" fill="none" id="repositories-to-in_memory_repo" style="stroke:#007ACC;stroke-width:2;"/><polygon fill="#007ACC" points="904.88,520.57,908.88,511.57,904.88,515.57,900.88,511.57,904.88,520.57" style="stroke:#007ACC;stroke-width:2;"/><text fill="#212529" font-family="Arial" font-size="12" lengthAdjust="spacing" textLength="68.7012" x="895.92" y="451.0459">implemented</text><text fill="#212529" font-family="Arial" font-size="12" lengthAdjust="spacing" textLength="3.334" x="964.6212" y="451.0459">&#160;</text><text fill="#212529" font-family="Arial" font-size="12" lengthAdjust="spacing" textLength="12.6738" x="967.9552" y="451.0459">by</text></g><!--link rest_api to handlers--><g class="link" data-entity-1="rest_api" data-entity-2="handlers" data-source-line="349" data-uid="lnk37" id="link_rest_api_handlers"><path d="M617,162.94 C617,178.17 617,191.18 617,206.39" fill="none" id="rest_api-to-handlers" style="stroke:#007ACC;stroke-width:2;"/><polygon fill="#007ACC" points="617,212.39,621,203.39,617,207.39,613,203.39,617,212.39" style="stroke:#007ACC;stroke-width:2;"/><text fill="#212529" font-family="Arial" font-size="12" lengthAdjust="spacing" textLength="24.0059" x="592" y="184.9159">calls</text></g><!--link dtos to rest_api--><g class="link" data-entity-1="dtos" data-entity-2="rest_api" data-source-line="349" data-uid="lnk38" id="link_dtos_rest_api"><path d="M572,60.14 C572,75.37 572,88.38 572,103.59" fill="none" id="dtos-to-rest_api" style="stroke:#007ACC;stroke-width:2;"/><polygon fill="#007ACC" points="572,109.59,576,100.59,572,104.59,568,100.59,572,109.59" style="stroke:#007ACC;stroke-width:2;"/><text fill="#212529" font-family="Arial" font-size="12" lengthAdjust="spacing" textLength="26.0215" x="529" y="82.1159">used</text><text fill="#212529" font-family="Arial" font-size="12" lengthAdjust="spacing" textLength="3.334" x="555.0215" y="82.1159">&#160;</text><text fill="#212529" font-family="Arial" font-size="12" lengthAdjust="spacing" textLength="12.6738" x="558.3555" y="82.1159">by</text></g><!--link middleware to rest_api--><g class="link" data-entity-1="middleware" data-entity-2="rest_api" data-source-line="349" data-uid="lnk39" id="link_middleware_rest_api"><path d="M662,60.14 C662,75.37 662,88.38 662,103.59" fill="none" id="middleware-to-rest_api" style="stroke:#007ACC;stroke-width:2;"/><polygon fill="#007ACC" points="662,109.59,666,100.59,662,104.59,658,100.59,662,109.59" style="stroke:#007ACC;stroke-width:2;"/><text fill="#212529" font-family="Arial" font-size="12" lengthAdjust="spacing" textLength="46.0254" x="615" y="82.1159">supports</text></g><!--SRC=[bLPRRzis57xths0xOFE01RFT-58W2639DcQWQPtOxQj0IySs5ubKI2g1D_I_ZzILbiWaSnv27dtduxdnapwa71yJZC8JvW8a-hvRNSrw7mWDuom2T8DvU289bl3dl5hTzdhYaT0KSvoWFGuVZvnbDF9Pp3ZwPPN_34G41vp5SiMe_8eJG7DES6n_lYN_01gEx0zB_j5mD1vzDY0XIr96WKhqRm-XFUCHyDs9X8yKX42ZsbRwVyf_sjg9VAd_r9E34Kgva-SO46KyKQ4ZL7fn2XmD1yeWJZXYBuGUaUGPz7xQmhkvyJ91T52tjqMetT9Dl8dN3hYmBXOkrdcQnYJ4aZ3g8hvU-Wl_karSMDt4EmXFL46FPoVls9ikXXtUtEhctPpEGWKSkyim7qpdtJ9egvlrZado_6eLFiyMCt_MvYsiRjwjv6hctJLOJHV-PDM9DhUwMTT96aEYbgz6x7cpbRziSnTM5xVNkG0DY389zfCc_dIicZPedrNOorjmUGFDqsCu0erSxSm5eKMyM2v7oycRn8HAu0SSEi8UpURJwt6RUw06nVSlU5BbYO-l9Zzo9V_peeAHWwGuTFYUO33dx2LdaHSw5JezzB42KdGzC8mSqqTj79l6VQandaDSB4Yhs1ZHDlhYEOJ53hPgJGELjRnu3bsnOgrAOpIw51VFeIeMf5Lb6bnI2uldK1Ghrgen3LAKik8vzCI2jEgBSLKk9CLpQ8aJRrKOcy0Kxy8iYKUzNkytj2n8HAzwkmKRpaBrln-n11CQnFWC_0_qSP5lqHUz_VXx0_-s_nj2sLSSH18G2haibnRKCuup25Y-qT0VUe-AXnVuLKP3dLSLXG3-JCASlWnaMrfChtKbDtqEAHD4Cbw4z51jpwZ6Q4_ZvHluLONwnYseqpUGTGrCxpfWLUW4qqYVwfTB5_GfWpA- -sBb0fuKImnS8_ygbmhQlE23hqfW-eGUE5RZbeKour17lhumry4Rtjkpa91isK6-O0vzLIfvv202NKH5i2dss_ilwC4ewwiSuYac4Ye6vQfsx_TM3KyWKTsg2DRqwYutj3dCSZNTJrNqrSsewx0nZDOMcjCZP81JeYTdkTsX-MRjQaqaMJwKks_ExYKaKYtJYIdWNRrHyEQZHzqwzSrEr9NkHr4KfDMkdlUh1IVFGD4213bIbsyO0wQ1_kZNuwStAF_kLmAic-zqUyfdoxz_sA8DbgeCpXDIngK8S8HJMGpaHXlGhsXUcfIZafK7Y7DFSIAfwAbTaDzNUcodrrAPOqQYlB6cYvcLxMxMmzrnpFCoRayjccraEwsMVW35-xX3tsXULwKo0H7QdriUBVqpH3FNPm4jV8Ut5PSwfPDphJz6tccXwRQGQX5w7xn1TNDcgaDGlE-4q-tj32uHRJMgMsYBxjBrKeJ-XsD7VzxmhTJ2AA7wCedRYHLQOOYBVKXClJ308alpALNe_m00]--></g></svg>