<svg xmlns="http://www.w3.org/2000/svg" xmlns:xlink="http://www.w3.org/1999/xlink" contentStyleType="text/css" data-diagram-type="DESCRIPTION" height="374px" preserveAspectRatio="none" style="width:3261px;height:374px;background:#FFFFFF;" version="1.1" viewBox="0 0 3261 374" width="3261px" zoomAndPan="magnify"><defs/><g><!--entity current_state--><g class="entity" data-entity="current_state" data-source-line="320" data-uid="ent0002" id="entity_current_state"><rect fill="#FFE0E0" height="52.7988" rx="0.5" ry="0.5" style="stroke:#181818;stroke-width:0.5;" width="142.0684" x="2752.97" y="109.8"/><path d="M2872.1114,125.8 L2872.1114,127.7999 L2884.1304,127.7999 L2884.1304,125.8 M2870.0759,129.8215 L2870.0759,131.8214 L2882.0959,131.8214 L2882.0959,129.8215 M2868.1344,133.8213 L2868.1344,135.8217 L2880.1554,135.8217 L2880.1554,133.8213" fill="#000000"/><text fill="#212529" font-family="Arial" font-size="12" lengthAdjust="spacing" textLength="34.0254" x="2762.97" y="150.0559">Phase</text><text fill="#212529" font-family="Arial" font-size="12" lengthAdjust="spacing" textLength="3.334" x="2796.9954" y="150.0559">&#160;</text><text fill="#212529" font-family="Arial" font-size="12" lengthAdjust="spacing" textLength="10.0078" x="2800.3294" y="150.0559">1:</text><text fill="#212529" font-family="Arial" font-size="12" lengthAdjust="spacing" textLength="3.334" x="2810.3372" y="150.0559">&#160;</text><text fill="#212529" font-family="Arial" font-size="12" lengthAdjust="spacing" textLength="40.0137" x="2813.6712" y="150.0559">Current</text><text fill="#212529" font-family="Arial" font-size="12" lengthAdjust="spacing" textLength="3.334" x="2853.6848" y="150.0559">&#160;</text><text fill="#212529" font-family="Arial" font-size="12" lengthAdjust="spacing" textLength="28.0195" x="2857.0188" y="150.0559">State</text></g><!--entity ddd_implementation--><g class="entity" data-entity="ddd_implementation" data-source-line="286" data-uid="ent0003" id="entity_ddd_implementation"><path d="M2406,7 L2522,7 L2534,19 L2534,47.7988 L2522,59.7988 L2406,59.7988 L2394,47.7988 L2394,19 L2406,7" fill="#CCCCFF" style="stroke:#181818;stroke-width:0.5;"/><path d="M2515.04,20.367 C2513.3983,20.371 2511.7553,20.4398 2510.4361,20.5722 C2509.7765,20.6383 2509.199,20.7197 2508.7329,20.8218 C2508.4003,20.8946 2508.1772,21.0153 2507.9402,21.1422 L2507.7645,21.1422 L2507.6219,21.2713 C2507.3417,21.5254 2507.2336,21.8408 2507.1237,22.2263 C2507.0138,22.6118 2506.9326,23.0732 2506.8679,23.5952 C2506.7384,24.6393 2506.6833,25.9215 2506.6922,27.2048 C2506.7012,28.4881 2506.7736,29.7682 2506.9072,30.8103 C2506.9739,31.3313 2507.0552,31.792 2507.1568,32.1735 C2507.2584,32.555 2507.3479,32.8543 2507.5945,33.1151 C2507.8998,33.4381 2508.2254,33.4785 2508.6787,33.574 C2509.1319,33.6694 2509.7001,33.7436 2510.3525,33.8024 C2511.6573,33.9199 2513.2991,33.9744 2514.9424,33.9703 C2516.5858,33.9662 2518.2262,33.9022 2519.5282,33.7827 C2520.1791,33.723 2520.7442,33.6505 2521.1942,33.5584 C2521.6443,33.4664 2521.9581,33.435 2522.2686,33.1249 C2522.5266,32.867 2522.6248,32.5604 2522.7311,32.1776 C2522.8373,31.7949 2522.9214,31.3354 2522.9889,30.8159 C2523.1239,29.777 2523.1937,28.5023 2523.2018,27.2244 C2523.2098,25.9465 2523.1558,24.6691 2523.038,23.6267 C2522.9791,23.1055 2522.9039,22.6437 2522.8076,22.2593 C2522.7113,21.875 2522.6227,21.5732 2522.3854,21.3085 C2522.0913,20.9805 2521.7501,20.9144 2521.294,20.8083 C2520.8378,20.7021 2520.2715,20.6198 2519.6202,20.5545 C2518.3175,20.4239 2516.6818,20.363 2515.0401,20.3669 M2515.044,21.3669 C2516.6593,21.363 2518.2708,21.4251 2519.5207,21.5504 C2520.1457,21.6131 2520.6805,21.6929 2521.0674,21.7829 C2521.3944,21.859 2521.6193,21.9876 2521.6472,21.9881 L2521.6482,21.9881 L2521.6488,21.9876 C2521.6754,22.0388 2521.7712,22.2336 2521.8389,22.5038 C2521.9184,22.821 2521.9884,23.2476 2522.0441,23.7399 C2522.1554,24.7246 2522.2101,25.9728 2522.2022,27.2182 C2522.1942,28.4636 2522.1241,29.7091 2521.9971,30.6872 C2521.9336,31.1763 2521.8551,31.5986 2521.7687,31.9099 C2521.7004,32.1561 2521.6086,32.3328 2521.5749,32.3941 C2521.5453,32.3914 2521.3111,32.5147 2520.9935,32.5797 C2520.6037,32.6594 2520.065,32.7313 2519.4365,32.7889 C2518.1795,32.9043 2516.5582,32.9663 2514.9386,32.9703 C2513.319,32.9743 2511.6977,32.9197 2510.4407,32.8065 C2509.8122,32.7499 2509.2746,32.677 2508.8857,32.5951 C2508.5688,32.5284 2508.3422,32.4047 2508.3111,32.4055 C2508.2803,32.3446 2508.19,32.1634 2508.124,31.9156 C2508.0403,31.6013 2507.9628,31.1753 2507.8997,30.6831 C2507.7736,29.6987 2507.7012,28.4468 2507.6925,27.197 C2507.6835,25.9472 2507.7391,24.6971 2507.8604,23.7187 C2507.9211,23.2295 2507.9997,22.8071 2508.0873,22.4997 C2508.167,22.2202 2508.2789,22.0398 2508.293,22.0145 C2508.3095,22.0143 2508.5732,21.8802 2508.9467,21.7985 C2509.3516,21.7098 2509.9009,21.6317 2510.5363,21.568 C2511.8071,21.4405 2513.4287,21.3709 2515.044,21.367 M2513.8446,22.6521 A0.5001,0.5001 0 0 0 2513.3568,23.2557 L2514.458,28.5019 A0.5001,0.5001 0 0 0 2515.4404,28.4802 L2516.3194,23.234 A0.5001,0.5001 0 0 0 2515.8274,22.6521 M2514.9345,30.0956 C2514.4553,30.1022 2514.0617,30.5067 2514.0674,30.986 C2514.0734,31.4654 2514.4769,31.8601 2514.9562,31.8552 C2515.4355,31.8503 2515.8316,31.4478 2515.8275,30.9685 C2515.8245,30.6241 2515.5849,30.381 2515.29,30.2398 A0.5,0.5 0 0 0 2515.1572,30.1856 C2515.0799,30.1634 2515.0244,30.0951 2514.9407,30.0956 A0.5,0.5 0 0 0 2514.9387,30.0977 A0.5,0.5 0 0 0 2514.9347,30.0956" fill="#000000"/><text fill="#212529" font-family="Arial" font-size="12" lengthAdjust="spacing" textLength="25.998" x="2417.3213" y="47.2559">DDD</text><text fill="#212529" font-family="Arial" font-size="12" lengthAdjust="spacing" textLength="3.334" x="2443.3193" y="47.2559">&#160;</text><text fill="#212529" font-family="Arial" font-size="12" lengthAdjust="spacing" textLength="64.0254" x="2446.6533" y="47.2559">Architecture</text></g><!--entity business_domains--><g class="entity" data-entity="business_domains" data-source-line="127" data-uid="ent0004" id="entity_business_domains"><rect fill="#FFFFCC" height="52.7988" rx="12.5" ry="12.5" style="stroke:#181818;stroke-width:0.5;" width="140" x="2574" y="7"/><path d="M2698.729,20.5 A0.5001,0.5001 0 0 0 2698.4009,20.9746 L2698.4263,23.6113 L2685.8693,23.6153 A0.5001,0.5001 0 0 0 2685.3693,24.1153 L2685.3654,30.1641 A0.5001,0.5001 0 0 0 2685.8673,30.6641 L2698.3963,30.6172 L2698.3963,32.9434 A0.5001,0.5001 0 0 0 2699.2791,33.2637 L2704.2732,27.3106 A0.5001,0.5001 0 0 0 2704.2752,26.67 L2699.285,20.6505 A0.5001,0.5001 0 0 0 2698.7284,20.5001 M2699.4146,22.373 L2703.2408,26.9882 L2699.397,31.5683 L2699.397,30.1152 A0.5001,0.5001 0 0 0 2698.895,29.6152 L2686.366,29.6621 L2686.3699,24.6152 L2698.9309,24.6112 A0.5001,0.5001 0 0 0 2699.4309,24.1073" fill="#000000"/><text fill="#212529" font-family="Arial" font-size="12" lengthAdjust="spacing" textLength="48.6914" x="2594.3125" y="47.2559">Business</text><text fill="#212529" font-family="Arial" font-size="12" lengthAdjust="spacing" textLength="3.334" x="2643.0039" y="47.2559">&#160;</text><text fill="#212529" font-family="Arial" font-size="12" lengthAdjust="spacing" textLength="47.3496" x="2646.3379" y="47.2559">Domains</text></g><!--entity clean_architecture--><g class="entity" data-entity="clean_architecture" data-source-line="286" data-uid="ent0005" id="entity_clean_architecture"><path d="M2766,7 L2882,7 L2894,19 L2894,47.7988 L2882,59.7988 L2766,59.7988 L2754,47.7988 L2754,19 L2766,7" fill="#CCCCFF" style="stroke:#181818;stroke-width:0.5;"/><path d="M2875.04,20.367 C2873.3983,20.371 2871.7553,20.4398 2870.4361,20.5722 C2869.7765,20.6383 2869.199,20.7197 2868.7329,20.8218 C2868.4003,20.8946 2868.1772,21.0153 2867.9402,21.1422 L2867.7645,21.1422 L2867.6219,21.2713 C2867.3417,21.5254 2867.2336,21.8408 2867.1237,22.2263 C2867.0138,22.6118 2866.9326,23.0732 2866.8679,23.5952 C2866.7384,24.6393 2866.6833,25.9215 2866.6922,27.2048 C2866.7012,28.4881 2866.7736,29.7682 2866.9072,30.8103 C2866.9739,31.3313 2867.0552,31.792 2867.1568,32.1735 C2867.2584,32.555 2867.3479,32.8543 2867.5945,33.1151 C2867.8998,33.4381 2868.2254,33.4785 2868.6787,33.574 C2869.1319,33.6694 2869.7001,33.7436 2870.3525,33.8024 C2871.6573,33.9199 2873.2991,33.9744 2874.9424,33.9703 C2876.5858,33.9662 2878.2262,33.9022 2879.5282,33.7827 C2880.1791,33.723 2880.7442,33.6505 2881.1942,33.5584 C2881.6443,33.4664 2881.9581,33.435 2882.2686,33.1249 C2882.5266,32.867 2882.6248,32.5604 2882.7311,32.1776 C2882.8373,31.7949 2882.9214,31.3354 2882.9889,30.8159 C2883.1239,29.777 2883.1937,28.5023 2883.2018,27.2244 C2883.2098,25.9465 2883.1558,24.6691 2883.038,23.6267 C2882.9791,23.1055 2882.9039,22.6437 2882.8076,22.2593 C2882.7113,21.875 2882.6227,21.5732 2882.3854,21.3085 C2882.0913,20.9805 2881.7501,20.9144 2881.294,20.8083 C2880.8378,20.7021 2880.2715,20.6198 2879.6202,20.5545 C2878.3175,20.4239 2876.6818,20.363 2875.0401,20.3669 M2875.044,21.3669 C2876.6593,21.363 2878.2708,21.4251 2879.5207,21.5504 C2880.1457,21.6131 2880.6805,21.6929 2881.0674,21.7829 C2881.3944,21.859 2881.6193,21.9876 2881.6472,21.9881 L2881.6482,21.9881 L2881.6488,21.9876 C2881.6754,22.0388 2881.7712,22.2336 2881.8389,22.5038 C2881.9184,22.821 2881.9884,23.2476 2882.0441,23.7399 C2882.1554,24.7246 2882.2101,25.9728 2882.2022,27.2182 C2882.1942,28.4636 2882.1241,29.7091 2881.9971,30.6872 C2881.9336,31.1763 2881.8551,31.5986 2881.7687,31.9099 C2881.7004,32.1561 2881.6086,32.3328 2881.5749,32.3941 C2881.5453,32.3914 2881.3111,32.5147 2880.9935,32.5797 C2880.6037,32.6594 2880.065,32.7313 2879.4365,32.7889 C2878.1795,32.9043 2876.5582,32.9663 2874.9386,32.9703 C2873.319,32.9743 2871.6977,32.9197 2870.4407,32.8065 C2869.8122,32.7499 2869.2746,32.677 2868.8857,32.5951 C2868.5688,32.5284 2868.3422,32.4047 2868.3111,32.4055 C2868.2803,32.3446 2868.19,32.1634 2868.124,31.9156 C2868.0403,31.6013 2867.9628,31.1753 2867.8997,30.6831 C2867.7736,29.6987 2867.7012,28.4468 2867.6925,27.197 C2867.6835,25.9472 2867.7391,24.6971 2867.8604,23.7187 C2867.9211,23.2295 2867.9997,22.8071 2868.0873,22.4997 C2868.167,22.2202 2868.2789,22.0398 2868.293,22.0145 C2868.3095,22.0143 2868.5732,21.8802 2868.9467,21.7985 C2869.3516,21.7098 2869.9009,21.6317 2870.5363,21.568 C2871.8071,21.4405 2873.4287,21.3709 2875.044,21.367 M2873.8446,22.6521 A0.5001,0.5001 0 0 0 2873.3568,23.2557 L2874.458,28.5019 A0.5001,0.5001 0 0 0 2875.4404,28.4802 L2876.3194,23.234 A0.5001,0.5001 0 0 0 2875.8274,22.6521 M2874.9345,30.0956 C2874.4553,30.1022 2874.0617,30.5067 2874.0674,30.986 C2874.0734,31.4654 2874.4769,31.8601 2874.9562,31.8552 C2875.4355,31.8503 2875.8316,31.4478 2875.8275,30.9685 C2875.8245,30.6241 2875.5849,30.381 2875.29,30.2398 A0.5,0.5 0 0 0 2875.1572,30.1856 C2875.0799,30.1634 2875.0244,30.0951 2874.9407,30.0956 A0.5,0.5 0 0 0 2874.9387,30.0977 A0.5,0.5 0 0 0 2874.9347,30.0956" fill="#000000"/><text fill="#212529" font-family="Arial" font-size="12" lengthAdjust="spacing" textLength="31.3535" x="2774.6436" y="47.2559">Clean</text><text fill="#212529" font-family="Arial" font-size="12" lengthAdjust="spacing" textLength="3.334" x="2805.9971" y="47.2559">&#160;</text><text fill="#212529" font-family="Arial" font-size="12" lengthAdjust="spacing" textLength="64.0254" x="2809.3311" y="47.2559">Architecture</text></g><!--entity multi_database--><g class="entity" data-entity="multi_database" data-source-line="203" data-uid="ent0006" id="entity_multi_database"><rect fill="#C9FFC9" height="52.7988" rx="0.5" ry="0.5" style="stroke:#181818;stroke-width:0.5;" width="140" x="2934" y="7"/><path d="M3051.023,19.9 A0.5001,0.5001 0 0 0 3050.7186,19.9992 L3046.6176,23.0745 L3046.6032,23.0854 L3046.6037,23.0859 A0.5001,0.5001 0 0 0 3046.4021,23.488 L3046.4492,32.2358 A0.5001,0.5001 0 0 0 3046.9473,32.7318 L3058.8743,32.7788 A0.5001,0.5001 0 0 0 3059.3105,32.5267 L3063.2534,29.4468 A0.5001,0.5001 0 0 0 3063.4446,29.0525 L3063.4446,20.4918 A0.5001,0.5001 0 0 0 3062.9485,19.9915 M3051.1832,20.8999 L3061.4572,20.98 L3058.7127,23.0321 L3048.3957,22.9913 M3062.4452,21.4911 L3062.4452,28.808 L3059.3767,31.2073 L3059.3767,23.7824 M3047.4042,23.9876 L3058.3762,24.031 L3058.3762,31.7768 L3047.4462,31.7339" fill="#000000"/><text fill="#212529" font-family="Arial" font-size="12" lengthAdjust="spacing" textLength="80.7012" x="2963.6494" y="47.2559">Multi-Database</text></g><!--entity production_ready--><g class="entity" data-entity="production_ready" data-source-line="280" data-uid="ent0007" id="entity_production_ready"><path d="M3126,7 L3242,7 L3254,19 L3254,47.7988 L3242,59.7988 L3126,59.7988 L3114,47.7988 L3114,19 L3126,7" fill="#CCCCFF" style="stroke:#181818;stroke-width:0.5;"/><path d="M3235.025,20.754 A0.5,0.5 0 0 0 3235.0038,20.7638 A0.5,0.5 0 0 0 3234.9842,20.756 C3231.565,20.8025 3228.8182,23.62 3228.859,27.0393 C3228.8997,30.4586 3231.7111,33.2088 3235.1305,33.1738 C3238.5499,33.1388 3241.3066,30.3316 3241.2774,26.9122 C3241.2482,23.4928 3238.4446,20.7305 3235.0251,20.7539 M3235.0234,21.7441 A0.5,0.5 0 0 0 3235.0327,21.7539 C3237.9124,21.7342 3240.2528,24.0404 3240.2773,26.92 C3240.3019,29.7996 3238.0006,32.1445 3235.121,32.1739 C3232.2414,32.2034 3229.8936,29.907 3229.8593,27.0274 C3229.825,24.1479 3232.118,21.7951 3234.9975,21.7559 A0.5,0.5 0 0 0 3235.0233,21.744 M3235.0151,23.096 C3232.8867,23.125 3231.1734,24.8815 3231.1988,27.01 C3231.2242,29.1385 3232.9786,30.8558 3235.1071,30.8341 C3237.2356,30.8124 3238.9555,29.0606 3238.9374,26.932 C3238.9192,24.8035 3237.1696,23.0815 3235.041,23.0961 A0.5,0.5 0 0 0 3235.0291,23.1075 A0.5,0.5 0 0 0 3235.0152,23.0961 M3235.0425,24.0898 A0.5,0.5 0 0 0 3235.0487,24.096 C3236.6374,24.0851 3237.9239,25.351 3237.9374,26.9398 C3237.9509,28.5285 3236.686,29.818 3235.0973,29.8342 C3233.5086,29.8504 3232.2177,28.5869 3232.1988,26.9982 C3232.1799,25.4095 3233.4405,24.1177 3235.0291,24.0961 A0.5,0.5 0 0 0 3235.0425,24.0899 M3235.0446,25.2773 C3234.1253,25.2898 3233.3697,26.0654 3233.3806,26.9847 C3233.3916,27.904 3234.1666,28.6617 3235.0859,28.6523 C3236.0052,28.6429 3236.7634,27.8689 3236.7556,26.9496 C3236.7478,26.0302 3235.9758,25.2711 3235.0565,25.2774 A0.959,0.959 0 0 0 3235.0503,25.2836 A0.959,0.959 0 0 0 3235.0446,25.2774" fill="#000000"/><text fill="#212529" font-family="Arial" font-size="12" lengthAdjust="spacing" textLength="57.3691" x="3136.3047" y="47.2559">Production</text><text fill="#212529" font-family="Arial" font-size="12" lengthAdjust="spacing" textLength="3.334" x="3193.6738" y="47.2559">&#160;</text><text fill="#212529" font-family="Arial" font-size="12" lengthAdjust="spacing" textLength="34.6875" x="3197.0078" y="47.2559">Ready</text></g><!--entity phase2_short_term--><g class="entity" data-entity="phase2_short_term" data-source-line="320" data-uid="ent0008" id="entity_phase2_short_term"><rect fill="#FFE0E0" height="52.7988" rx="0.5" ry="0.5" style="stroke:#181818;stroke-width:0.5;" width="200.0586" x="2162.97" y="212.6"/><path d="M2340.1016,228.6 L2340.1016,230.5999 L2352.1206,230.5999 L2352.1206,228.6 M2338.0661,232.6215 L2338.0661,234.6214 L2350.0861,234.6214 L2350.0861,232.6215 M2336.1246,236.6213 L2336.1246,238.6217 L2348.1456,238.6217 L2348.1456,236.6213" fill="#000000"/><text fill="#212529" font-family="Arial" font-size="12" lengthAdjust="spacing" textLength="34.0254" x="2172.97" y="252.8559">Phase</text><text fill="#212529" font-family="Arial" font-size="12" lengthAdjust="spacing" textLength="3.334" x="2206.9954" y="252.8559">&#160;</text><text fill="#212529" font-family="Arial" font-size="12" lengthAdjust="spacing" textLength="10.0078" x="2210.3294" y="252.8559">2:</text><text fill="#212529" font-family="Arial" font-size="12" lengthAdjust="spacing" textLength="3.334" x="2220.3372" y="252.8559">&#160;</text><text fill="#212529" font-family="Arial" font-size="12" lengthAdjust="spacing" textLength="58.002" x="2223.6712" y="252.8559">Near-Term</text><text fill="#212529" font-family="Arial" font-size="12" lengthAdjust="spacing" textLength="3.334" x="2281.6731" y="252.8559">&#160;</text><text fill="#212529" font-family="Arial" font-size="12" lengthAdjust="spacing" textLength="21.3398" x="2285.0071" y="252.8559">(3-6</text><text fill="#212529" font-family="Arial" font-size="12" lengthAdjust="spacing" textLength="3.334" x="2306.347" y="252.8559">&#160;</text><text fill="#212529" font-family="Arial" font-size="12" lengthAdjust="spacing" textLength="43.3477" x="2309.6809" y="252.8559">months)</text></g><!--entity jwt_auth--><g class="entity" data-entity="jwt_auth" data-source-line="176" data-uid="ent0009" id="entity_jwt_auth"><rect fill="#C2F0FF" height="52.7988" rx="12.5" ry="12.5" style="stroke:#181818;stroke-width:0.5;" width="140" x="1833" y="109.8"/><path d="M1953.759,124.12 L1944.7961,128.0888 A0.5001,0.5001 0 0 0 1944.4992,128.5458 L1944.4992,136.5829 A0.5001,0.5001 0 0 0 1945.2004,137.04 L1953.9953,133.1611 L1962.7883,137.04 A0.5001,0.5001 0 0 0 1963.4914,136.5829 L1963.4914,128.579 A0.5001,0.5001 0 0 0 1963.1926,128.122 L1954.1653,124.12 A0.5001,0.5001 0 0 0 1953.759,124.12 M1953.9621,125.1239 L1962.4914,128.9032 L1962.4914,135.8173 L1954.1965,132.1571 A0.5001,0.5001 0 0 0 1953.7922,132.1571 L1945.4992,135.8173 L1945.4992,128.872" fill="#000000"/><text fill="#212529" font-family="Arial" font-size="12" lengthAdjust="spacing" textLength="24.6563" x="1850.9775" y="150.0559">JWT</text><text fill="#212529" font-family="Arial" font-size="12" lengthAdjust="spacing" textLength="3.334" x="1875.6338" y="150.0559">&#160;</text><text fill="#212529" font-family="Arial" font-size="12" lengthAdjust="spacing" textLength="76.0547" x="1878.9678" y="150.0559">Authentication</text></g><!--entity redis_caching--><g class="entity" data-entity="redis_caching" data-source-line="203" data-uid="ent0010" id="entity_redis_caching"><rect fill="#C9FFC9" height="52.7988" rx="0.5" ry="0.5" style="stroke:#181818;stroke-width:0.5;" width="140" x="2013" y="109.8"/><path d="M2130.023,122.7 A0.5001,0.5001 0 0 0 2129.7186,122.7992 L2125.6176,125.8745 L2125.6032,125.8854 L2125.6037,125.8859 A0.5001,0.5001 0 0 0 2125.4021,126.288 L2125.4492,135.0358 A0.5001,0.5001 0 0 0 2125.9473,135.5319 L2137.8743,135.5789 A0.5001,0.5001 0 0 0 2138.3105,135.3267 L2142.2534,132.2468 A0.5001,0.5001 0 0 0 2142.4446,131.8525 L2142.4446,123.2918 A0.5001,0.5001 0 0 0 2141.9485,122.7915 M2130.1832,123.6999 L2140.4572,123.78 L2137.7127,125.8321 L2127.3957,125.7913 M2141.4452,124.2911 L2141.4452,131.608 L2138.3767,134.0073 L2138.3767,126.5824 M2126.4042,126.7876 L2137.3762,126.831 L2137.3762,134.5768 L2126.4462,134.5339" fill="#000000"/><text fill="#212529" font-family="Arial" font-size="12" lengthAdjust="spacing" textLength="30.6797" x="2043.9795" y="150.0559">Redis</text><text fill="#212529" font-family="Arial" font-size="12" lengthAdjust="spacing" textLength="3.334" x="2074.6592" y="150.0559">&#160;</text><text fill="#212529" font-family="Arial" font-size="12" lengthAdjust="spacing" textLength="44.0273" x="2077.9932" y="150.0559">Caching</text></g><!--entity async_processing--><g class="entity" data-entity="async_processing" data-source-line="176" data-uid="ent0011" id="entity_async_processing"><rect fill="#C2F0FF" height="52.7988" rx="12.5" ry="12.5" style="stroke:#181818;stroke-width:0.5;" width="140" x="2193" y="109.8"/><path d="M2313.759,124.12 L2304.7961,128.0888 A0.5001,0.5001 0 0 0 2304.4992,128.5458 L2304.4992,136.5829 A0.5001,0.5001 0 0 0 2305.2004,137.04 L2313.9953,133.1611 L2322.7883,137.04 A0.5001,0.5001 0 0 0 2323.4914,136.5829 L2323.4914,128.579 A0.5001,0.5001 0 0 0 2323.1926,128.122 L2314.1653,124.12 A0.5001,0.5001 0 0 0 2313.759,124.12 M2313.9621,125.1239 L2322.4914,128.9032 L2322.4914,135.8173 L2314.1965,132.1571 A0.5001,0.5001 0 0 0 2313.7922,132.1571 L2305.4992,135.8173 L2305.4992,128.872" fill="#000000"/><text fill="#212529" font-family="Arial" font-size="12" lengthAdjust="spacing" textLength="32.6777" x="2215.3135" y="150.0559">Async</text><text fill="#212529" font-family="Arial" font-size="12" lengthAdjust="spacing" textLength="3.334" x="2247.9912" y="150.0559">&#160;</text><text fill="#212529" font-family="Arial" font-size="12" lengthAdjust="spacing" textLength="59.3613" x="2251.3252" y="150.0559">Processing</text></g><!--entity api_versioning--><g class="entity" data-entity="api_versioning" data-source-line="173" data-uid="ent0012" id="entity_api_versioning"><rect fill="#C2F0FF" height="52.7988" rx="0.5" ry="0.5" style="stroke:#181818;stroke-width:0.5;" width="140" x="2373" y="109.8"/><path d="M2496.495,123.13 C2493.1568,123.1754 2490.4614,125.8618 2490.3734,129.171 L2485.0006,129.171 A0.5,0.5 0 0 0 2484.5009,129.6707 A0.5,0.5 0 0 0 2485.0006,130.1709 L2490.4271,130.1709 C2490.8382,133.2299 2493.4805,135.5822 2496.6433,135.5499 C2500.0627,135.5149 2502.8189,132.7056 2502.7897,129.2862 C2502.7605,125.8668 2499.9574,123.1066 2496.5379,123.13 A0.5,0.5 0 0 0 2496.526,123.1414 A0.5,0.5 0 0 0 2496.495,123.13 M2496.5183,124.1201 A0.5,0.5 0 0 0 2496.5436,124.1301 C2499.4233,124.1104 2501.7652,126.4166 2501.7898,129.2962 C2501.8143,132.1758 2499.5131,134.5207 2496.6335,134.5502 C2493.7539,134.5796 2491.4041,132.2812 2491.3697,129.4017 C2491.3354,126.5222 2493.6289,124.1694 2496.5084,124.1302 A0.5,0.5 0 0 0 2496.5182,124.1202" fill="#000000"/><text fill="#212529" font-family="Arial" font-size="12" lengthAdjust="spacing" textLength="19.3418" x="2403.3115" y="150.0559">API</text><text fill="#212529" font-family="Arial" font-size="12" lengthAdjust="spacing" textLength="3.334" x="2422.6533" y="150.0559">&#160;</text><text fill="#212529" font-family="Arial" font-size="12" lengthAdjust="spacing" textLength="56.7012" x="2425.9873" y="150.0559">Versioning</text></g><!--entity monitoring--><g class="entity" data-entity="monitoring" data-source-line="176" data-uid="ent0013" id="entity_monitoring"><rect fill="#C2F0FF" height="52.7988" rx="12.5" ry="12.5" style="stroke:#181818;stroke-width:0.5;" width="160.0566" x="2552.97" y="109.8"/><path d="M2693.7856,124.12 L2684.8227,128.0888 A0.5001,0.5001 0 0 0 2684.5259,128.5458 L2684.5259,136.5829 A0.5001,0.5001 0 0 0 2685.227,137.04 L2694.0219,133.1611 L2702.8149,137.04 A0.5001,0.5001 0 0 0 2703.5181,136.5829 L2703.5181,128.579 A0.5001,0.5001 0 0 0 2703.2192,128.122 L2694.1919,124.12 A0.5001,0.5001 0 0 0 2693.7857,124.12 M2693.9888,125.1239 L2702.5181,128.9032 L2702.5181,135.8173 L2694.2232,132.1571 A0.5001,0.5001 0 0 0 2693.8189,132.1571 L2685.5259,135.8173 L2685.5259,128.872" fill="#000000"/><text fill="#212529" font-family="Arial" font-size="12" lengthAdjust="spacing" textLength="56.0273" x="2562.97" y="150.0559">Monitoring</text><text fill="#212529" font-family="Arial" font-size="12" lengthAdjust="spacing" textLength="3.334" x="2618.9973" y="150.0559">&#160;</text><text fill="#212529" font-family="Arial" font-size="12" lengthAdjust="spacing" textLength="8.0039" x="2622.3313" y="150.0559">&amp;</text><text fill="#212529" font-family="Arial" font-size="12" lengthAdjust="spacing" textLength="3.334" x="2630.3352" y="150.0559">&#160;</text><text fill="#212529" font-family="Arial" font-size="12" lengthAdjust="spacing" textLength="69.3574" x="2633.6692" y="150.0559">Observability</text></g><!--entity phase3_long_term--><g class="entity" data-entity="phase3_long_term" data-source-line="320" data-uid="ent0014" id="entity_phase3_long_term"><rect fill="#FFE0E0" height="52.7988" rx="0.5" ry="0.5" style="stroke:#181818;stroke-width:0.5;" width="243.4355" x="1056.28" y="315.4"/><path d="M1276.7885,331.4 L1276.7885,333.3999 L1288.8075,333.3999 L1288.8075,331.4 M1274.753,335.4215 L1274.753,337.4214 L1286.773,337.4214 L1286.773,335.4215 M1272.8115,339.4213 L1272.8115,341.4217 L1284.8325,341.4217 L1284.8325,339.4213" fill="#000000"/><text fill="#212529" font-family="Arial" font-size="12" lengthAdjust="spacing" textLength="34.0254" x="1066.28" y="355.6559">Phase</text><text fill="#212529" font-family="Arial" font-size="12" lengthAdjust="spacing" textLength="3.334" x="1100.3054" y="355.6559">&#160;</text><text fill="#212529" font-family="Arial" font-size="12" lengthAdjust="spacing" textLength="10.0078" x="1103.6394" y="355.6559">3:</text><text fill="#212529" font-family="Arial" font-size="12" lengthAdjust="spacing" textLength="3.334" x="1113.6472" y="355.6559">&#160;</text><text fill="#212529" font-family="Arial" font-size="12" lengthAdjust="spacing" textLength="58.6875" x="1116.9812" y="355.6559">Long-Term</text><text fill="#212529" font-family="Arial" font-size="12" lengthAdjust="spacing" textLength="3.334" x="1175.6687" y="355.6559">&#160;</text><text fill="#212529" font-family="Arial" font-size="12" lengthAdjust="spacing" textLength="32.6836" x="1179.0027" y="355.6559">Vision</text><text fill="#212529" font-family="Arial" font-size="12" lengthAdjust="spacing" textLength="3.334" x="1211.6863" y="355.6559">&#160;</text><text fill="#212529" font-family="Arial" font-size="12" lengthAdjust="spacing" textLength="28.0137" x="1215.0202" y="355.6559">(6-12</text><text fill="#212529" font-family="Arial" font-size="12" lengthAdjust="spacing" textLength="3.334" x="1243.0339" y="355.6559">&#160;</text><text fill="#212529" font-family="Arial" font-size="12" lengthAdjust="spacing" textLength="43.3477" x="1246.3679" y="355.6559">months)</text></g><!--entity microservices_architecture--><g class="entity" data-entity="microservices_architecture" data-source-line="203" data-uid="ent0015" id="entity_microservices_architecture"><rect fill="#C9FFC9" height="52.7988" rx="0.5" ry="0.5" style="stroke:#181818;stroke-width:0.5;" width="160.7012" x="446.65" y="212.6"/><path d="M584.3742,225.5 A0.5001,0.5001 0 0 0 584.0698,225.5992 L579.9688,228.6745 L579.9543,228.6854 L579.9548,228.6859 A0.5001,0.5001 0 0 0 579.7533,229.088 L579.8003,237.8358 A0.5001,0.5001 0 0 0 580.2985,238.3318 L592.2255,238.3788 A0.5001,0.5001 0 0 0 592.6616,238.1267 L596.6045,235.0468 A0.5001,0.5001 0 0 0 596.7957,234.6525 L596.7957,226.0918 A0.5001,0.5001 0 0 0 596.2996,225.5915 M584.5344,226.4999 L594.8084,226.58 L592.0639,228.6321 L581.7469,228.5913 M595.7964,227.0911 L595.7964,234.408 L592.7279,236.8073 L592.7279,229.3824 M580.7554,229.5876 L591.7274,229.631 L591.7274,237.3768 L580.7974,237.3339" fill="#000000"/><text fill="#212529" font-family="Arial" font-size="12" lengthAdjust="spacing" textLength="73.3418" x="456.65" y="252.8559">Microservices</text><text fill="#212529" font-family="Arial" font-size="12" lengthAdjust="spacing" textLength="3.334" x="529.9918" y="252.8559">&#160;</text><text fill="#212529" font-family="Arial" font-size="12" lengthAdjust="spacing" textLength="64.0254" x="533.3258" y="252.8559">Architecture</text></g><!--entity campaign_service--><g class="entity" data-entity="campaign_service" data-source-line="167" data-uid="ent0016" id="entity_campaign_service"><rect fill="#C2F0FF" height="52.7988" rx="0.5" ry="0.5" style="stroke:#181818;stroke-width:0.5;" width="140" x="7" y="109.8"/><path d="M136.76,124.439 L121.934,124.486 A0.5001,0.5001 0 0 0 121.4343,124.9857 L121.4343,126.4233 L118.9461,126.4037 A0.5001,0.5001 0 0 0 118.4417,126.9039 L118.4417,128.8392 A0.5001,0.5001 0 0 0 118.942,129.3395 L121.4225,129.3395 L121.3987,130.3823 L118.8991,130.3626 A0.5001,0.5001 0 0 0 118.3952,130.8628 L118.3952,132.7981 A0.5001,0.5001 0 0 0 118.8949,133.2984 L121.3873,133.2984 L121.3873,136.3003 A0.5001,0.5001 0 0 0 121.8876,136.8005 L136.7606,136.847 A0.5001,0.5001 0 0 0 137.2624,136.3473 L137.2624,124.9393 A0.5001,0.5001 0 0 0 136.7606,124.4391 M136.2618,125.441 L136.2618,135.845 L122.3868,135.8021 L122.3868,133.2984 L124.8812,133.2984 A0.5001,0.5001 0 0 0 125.381,132.7982 L125.381,130.9099 A0.5001,0.5001 0 0 0 124.8849,130.4097 L122.3987,130.39 L122.4225,129.3394 L124.9278,129.3394 A0.5001,0.5001 0 0 0 125.428,128.8392 L125.428,126.9504 A0.5001,0.5001 0 0 0 124.9319,126.4507 L122.4339,126.431 L122.4339,125.4838 M119.4418,127.4078 L124.4281,127.4466 L124.4281,128.3395 L119.4418,128.3395 M119.3948,131.3667 L124.3811,131.406 L124.3811,132.2984 L119.3948,132.2984" fill="#000000"/><text fill="#212529" font-family="Arial" font-size="12" lengthAdjust="spacing" textLength="54.6973" x="27.9775" y="150.0559">Campaign</text><text fill="#212529" font-family="Arial" font-size="12" lengthAdjust="spacing" textLength="3.334" x="82.6748" y="150.0559">&#160;</text><text fill="#212529" font-family="Arial" font-size="12" lengthAdjust="spacing" textLength="40.0137" x="86.0088" y="150.0559">Service</text></g><!--entity ltv_service--><g class="entity" data-entity="ltv_service" data-source-line="167" data-uid="ent0017" id="entity_ltv_service"><rect fill="#C2F0FF" height="52.7988" rx="0.5" ry="0.5" style="stroke:#181818;stroke-width:0.5;" width="140" x="187" y="109.8"/><path d="M316.76,124.439 L301.934,124.486 A0.5001,0.5001 0 0 0 301.4343,124.9857 L301.4343,126.4233 L298.9461,126.4037 A0.5001,0.5001 0 0 0 298.4417,126.9039 L298.4417,128.8392 A0.5001,0.5001 0 0 0 298.942,129.3395 L301.4225,129.3395 L301.3987,130.3823 L298.8991,130.3626 A0.5001,0.5001 0 0 0 298.3952,130.8628 L298.3952,132.7981 A0.5001,0.5001 0 0 0 298.8949,133.2984 L301.3873,133.2984 L301.3873,136.3003 A0.5001,0.5001 0 0 0 301.8876,136.8005 L316.7606,136.847 A0.5001,0.5001 0 0 0 317.2624,136.3473 L317.2624,124.9393 A0.5001,0.5001 0 0 0 316.7606,124.4391 M316.2618,125.441 L316.2618,135.845 L302.3868,135.8021 L302.3868,133.2984 L304.8812,133.2984 A0.5001,0.5001 0 0 0 305.381,132.7982 L305.381,130.9099 A0.5001,0.5001 0 0 0 304.8849,130.4097 L302.3987,130.39 L302.4225,129.3394 L304.9278,129.3394 A0.5001,0.5001 0 0 0 305.428,128.8392 L305.428,126.9504 A0.5001,0.5001 0 0 0 304.9319,126.4507 L302.4339,126.431 L302.4339,125.4838 M299.4418,127.4078 L304.4281,127.4466 L304.4281,128.3395 L299.4418,128.3395 M299.3948,131.3667 L304.3811,131.406 L304.3811,132.2984 L299.3948,132.2984" fill="#000000"/><text fill="#212529" font-family="Arial" font-size="12" lengthAdjust="spacing" textLength="22.0078" x="224.3223" y="150.0559">LTV</text><text fill="#212529" font-family="Arial" font-size="12" lengthAdjust="spacing" textLength="3.334" x="246.3301" y="150.0559">&#160;</text><text fill="#212529" font-family="Arial" font-size="12" lengthAdjust="spacing" textLength="40.0137" x="249.6641" y="150.0559">Service</text></g><!--entity retention_service--><g class="entity" data-entity="retention_service" data-source-line="167" data-uid="ent0018" id="entity_retention_service"><rect fill="#C2F0FF" height="52.7988" rx="0.5" ry="0.5" style="stroke:#181818;stroke-width:0.5;" width="140" x="367" y="109.8"/><path d="M496.76,124.439 L481.934,124.486 A0.5001,0.5001 0 0 0 481.4343,124.9857 L481.4343,126.4233 L478.9461,126.4037 A0.5001,0.5001 0 0 0 478.4417,126.9039 L478.4417,128.8392 A0.5001,0.5001 0 0 0 478.942,129.3395 L481.4225,129.3395 L481.3987,130.3823 L478.8991,130.3626 A0.5001,0.5001 0 0 0 478.3952,130.8628 L478.3952,132.7981 A0.5001,0.5001 0 0 0 478.8949,133.2984 L481.3873,133.2984 L481.3873,136.3003 A0.5001,0.5001 0 0 0 481.8876,136.8005 L496.7606,136.847 A0.5001,0.5001 0 0 0 497.2624,136.3473 L497.2624,124.9393 A0.5001,0.5001 0 0 0 496.7606,124.4391 M496.2618,125.441 L496.2618,135.845 L482.3868,135.8021 L482.3868,133.2984 L484.8812,133.2984 A0.5001,0.5001 0 0 0 485.381,132.7982 L485.381,130.9099 A0.5001,0.5001 0 0 0 484.8849,130.4097 L482.3987,130.39 L482.4225,129.3394 L484.9278,129.3394 A0.5001,0.5001 0 0 0 485.428,128.8392 L485.428,126.9504 A0.5001,0.5001 0 0 0 484.9319,126.4507 L482.4339,126.431 L482.4339,125.4838 M479.4418,127.4078 L484.4281,127.4466 L484.4281,128.3395 L479.4418,128.3395 M479.3948,131.3667 L484.3811,131.406 L484.3811,132.2984 L479.3948,132.2984" fill="#000000"/><text fill="#212529" font-family="Arial" font-size="12" lengthAdjust="spacing" textLength="51.3691" x="389.6416" y="150.0559">Retention</text><text fill="#212529" font-family="Arial" font-size="12" lengthAdjust="spacing" textLength="3.334" x="441.0107" y="150.0559">&#160;</text><text fill="#212529" font-family="Arial" font-size="12" lengthAdjust="spacing" textLength="40.0137" x="444.3447" y="150.0559">Service</text></g><!--entity lead_service--><g class="entity" data-entity="lead_service" data-source-line="167" data-uid="ent0019" id="entity_lead_service"><rect fill="#C2F0FF" height="52.7988" rx="0.5" ry="0.5" style="stroke:#181818;stroke-width:0.5;" width="140" x="547" y="109.8"/><path d="M676.76,124.439 L661.934,124.486 A0.5001,0.5001 0 0 0 661.4343,124.9857 L661.4343,126.4233 L658.9461,126.4037 A0.5001,0.5001 0 0 0 658.4417,126.9039 L658.4417,128.8392 A0.5001,0.5001 0 0 0 658.942,129.3395 L661.4225,129.3395 L661.3987,130.3823 L658.8991,130.3626 A0.5001,0.5001 0 0 0 658.3952,130.8628 L658.3952,132.7981 A0.5001,0.5001 0 0 0 658.8949,133.2984 L661.3873,133.2984 L661.3873,136.3003 A0.5001,0.5001 0 0 0 661.8876,136.8005 L676.7606,136.847 A0.5001,0.5001 0 0 0 677.2624,136.3473 L677.2624,124.9393 A0.5001,0.5001 0 0 0 676.7606,124.4391 M676.2618,125.441 L676.2618,135.845 L662.3868,135.8021 L662.3868,133.2984 L664.8812,133.2984 A0.5001,0.5001 0 0 0 665.381,132.7982 L665.381,130.9099 A0.5001,0.5001 0 0 0 664.8849,130.4097 L662.3987,130.39 L662.4225,129.3394 L664.9278,129.3394 A0.5001,0.5001 0 0 0 665.428,128.8392 L665.428,126.9504 A0.5001,0.5001 0 0 0 664.9319,126.4507 L662.4339,126.431 L662.4339,125.4838 M659.4418,127.4078 L664.4281,127.4466 L664.4281,128.3395 L659.4418,128.3395 M659.3948,131.3667 L664.3811,131.406 L664.3811,132.2984 L659.3948,132.2984" fill="#000000"/><text fill="#212529" font-family="Arial" font-size="12" lengthAdjust="spacing" textLength="26.6953" x="581.9785" y="150.0559">Lead</text><text fill="#212529" font-family="Arial" font-size="12" lengthAdjust="spacing" textLength="3.334" x="608.6738" y="150.0559">&#160;</text><text fill="#212529" font-family="Arial" font-size="12" lengthAdjust="spacing" textLength="40.0137" x="612.0078" y="150.0559">Service</text></g><!--entity auth_service--><g class="entity" data-entity="auth_service" data-source-line="167" data-uid="ent0020" id="entity_auth_service"><rect fill="#C2F0FF" height="52.7988" rx="0.5" ry="0.5" style="stroke:#181818;stroke-width:0.5;" width="140" x="727" y="109.8"/><path d="M856.76,124.439 L841.934,124.486 A0.5001,0.5001 0 0 0 841.4343,124.9857 L841.4343,126.4233 L838.9461,126.4037 A0.5001,0.5001 0 0 0 838.4417,126.9039 L838.4417,128.8392 A0.5001,0.5001 0 0 0 838.942,129.3395 L841.4225,129.3395 L841.3987,130.3823 L838.8991,130.3626 A0.5001,0.5001 0 0 0 838.3952,130.8628 L838.3952,132.7981 A0.5001,0.5001 0 0 0 838.8949,133.2984 L841.3873,133.2984 L841.3873,136.3003 A0.5001,0.5001 0 0 0 841.8876,136.8005 L856.7606,136.847 A0.5001,0.5001 0 0 0 857.2624,136.3473 L857.2624,124.9393 A0.5001,0.5001 0 0 0 856.7606,124.4391 M856.2618,125.441 L856.2618,135.845 L842.3868,135.8021 L842.3868,133.2984 L844.8812,133.2984 A0.5001,0.5001 0 0 0 845.381,132.7982 L845.381,130.9099 A0.5001,0.5001 0 0 0 844.8849,130.4097 L842.3987,130.39 L842.4225,129.3394 L844.9278,129.3394 A0.5001,0.5001 0 0 0 845.428,128.8392 L845.428,126.9504 A0.5001,0.5001 0 0 0 844.9319,126.4507 L842.4339,126.431 L842.4339,125.4838 M839.4418,127.4078 L844.4281,127.4466 L844.4281,128.3395 L839.4418,128.3395 M839.3948,131.3667 L844.3811,131.406 L844.3811,132.2984 L839.3948,132.2984" fill="#000000"/><text fill="#212529" font-family="Arial" font-size="12" lengthAdjust="spacing" textLength="24.6855" x="762.9834" y="150.0559">Auth</text><text fill="#212529" font-family="Arial" font-size="12" lengthAdjust="spacing" textLength="3.334" x="787.6689" y="150.0559">&#160;</text><text fill="#212529" font-family="Arial" font-size="12" lengthAdjust="spacing" textLength="40.0137" x="791.0029" y="150.0559">Service</text></g><!--entity advanced_analytics--><g class="entity" data-entity="advanced_analytics" data-source-line="130" data-uid="ent0021" id="entity_advanced_analytics"><rect fill="#FFFFCC" height="52.7988" rx="12.5" ry="12.5" style="stroke:#181818;stroke-width:0.5;" width="140" x="928" y="212.6"/><path d="M1048.759,226.92 L1039.7961,230.8888 A0.5001,0.5001 0 0 0 1039.4992,231.3458 L1039.4992,239.3829 A0.5001,0.5001 0 0 0 1040.2004,239.84 L1048.9953,235.9611 L1057.7883,239.84 A0.5001,0.5001 0 0 0 1058.4914,239.3829 L1058.4914,231.379 A0.5001,0.5001 0 0 0 1058.1926,230.922 L1049.1653,226.92 A0.5001,0.5001 0 0 0 1048.759,226.92 M1048.9621,227.9239 L1057.4914,231.7032 L1057.4914,238.6173 L1049.1965,234.9571 A0.5001,0.5001 0 0 0 1048.7922,234.9571 L1040.4992,238.6173 L1040.4992,231.672" fill="#000000"/><text fill="#212529" font-family="Arial" font-size="12" lengthAdjust="spacing" textLength="53.373" x="945.6377" y="252.8559">Advanced</text><text fill="#212529" font-family="Arial" font-size="12" lengthAdjust="spacing" textLength="3.334" x="999.0107" y="252.8559">&#160;</text><text fill="#212529" font-family="Arial" font-size="12" lengthAdjust="spacing" textLength="48.0176" x="1002.3447" y="252.8559">Analytics</text></g><!--entity scalable_infrastructure--><g class="entity" data-entity="scalable_infrastructure" data-source-line="203" data-uid="ent0022" id="entity_scalable_infrastructure"><rect fill="#C9FFC9" height="52.7988" rx="0.5" ry="0.5" style="stroke:#181818;stroke-width:0.5;" width="140.0586" x="1107.97" y="212.6"/><path d="M1225.0516,225.5 A0.5001,0.5001 0 0 0 1224.7472,225.5992 L1220.6462,228.6745 L1220.6318,228.6854 L1220.6323,228.6859 A0.5001,0.5001 0 0 0 1220.4307,229.088 L1220.4778,237.8358 A0.5001,0.5001 0 0 0 1220.9759,238.3318 L1232.9029,238.3788 A0.5001,0.5001 0 0 0 1233.3391,238.1267 L1237.282,235.0468 A0.5001,0.5001 0 0 0 1237.4732,234.6525 L1237.4732,226.0918 A0.5001,0.5001 0 0 0 1236.9771,225.5915 M1225.2118,226.4999 L1235.4858,226.58 L1232.7413,228.6321 L1222.4243,228.5913 M1236.4738,227.0911 L1236.4738,234.408 L1233.4053,236.8073 L1233.4053,229.3824 M1221.4328,229.5876 L1232.4048,229.631 L1232.4048,237.3768 L1221.4748,237.3339" fill="#000000"/><text fill="#212529" font-family="Arial" font-size="12" lengthAdjust="spacing" textLength="46.0313" x="1117.97" y="252.8559">Scalable</text><text fill="#212529" font-family="Arial" font-size="12" lengthAdjust="spacing" textLength="3.334" x="1164.0013" y="252.8559">&#160;</text><text fill="#212529" font-family="Arial" font-size="12" lengthAdjust="spacing" textLength="70.6934" x="1167.3352" y="252.8559">Infrastructure</text></g><!--entity strategic_goals--><g class="entity" data-entity="strategic_goals" data-source-line="280" data-uid="ent0023" id="entity_strategic_goals"><path d="M1300.3,212.6 L1425.6926,212.6 L1437.6926,224.6 L1437.6926,253.3988 L1425.6926,265.3988 L1300.3,265.3988 L1288.3,253.3988 L1288.3,224.6 L1300.3,212.6" fill="#CCCCFF" style="stroke:#181818;stroke-width:0.5;"/><path d="M1418.7176,226.354 A0.5,0.5 0 0 0 1418.6964,226.3638 A0.5,0.5 0 0 0 1418.6767,226.356 C1415.2575,226.4025 1412.5107,229.22 1412.5515,232.6393 C1412.5923,236.0586 1415.4036,238.8088 1418.823,238.7738 C1422.2424,238.7388 1424.9991,235.9316 1424.9699,232.5122 C1424.9408,229.0928 1422.1371,226.3305 1418.7176,226.3539 M1418.716,227.3441 A0.5,0.5 0 0 0 1418.7253,227.3539 C1421.605,227.3342 1423.9454,229.6404 1423.9699,232.52 C1423.9944,235.3996 1421.6932,237.7445 1418.8136,237.7739 C1415.934,237.8034 1413.5862,235.507 1413.5519,232.6274 C1413.5176,229.7479 1415.8106,227.3951 1418.6901,227.3559 A0.5,0.5 0 0 0 1418.7159,227.344 M1418.7077,228.696 C1416.5793,228.725 1414.866,230.4815 1414.8914,232.61 C1414.9167,234.7385 1416.6712,236.4558 1418.7997,236.4341 C1420.9282,236.4124 1422.6481,234.6606 1422.63,232.532 C1422.6118,230.4035 1420.8622,228.6815 1418.7336,228.6961 A0.5,0.5 0 0 0 1418.7217,228.7075 A0.5,0.5 0 0 0 1418.7077,228.6961 M1418.7351,229.6898 A0.5,0.5 0 0 0 1418.7413,229.696 C1420.33,229.6851 1421.6165,230.951 1421.63,232.5398 C1421.6435,234.1285 1420.3786,235.418 1418.7899,235.4342 C1417.2012,235.4504 1415.9103,234.1869 1415.8914,232.5982 C1415.8724,231.0095 1417.1331,229.7177 1418.7217,229.6961 A0.5,0.5 0 0 0 1418.7351,229.6899 M1418.7372,230.8773 C1417.8179,230.8898 1417.0623,231.6654 1417.0732,232.5847 C1417.0841,233.504 1417.8592,234.2617 1418.7785,234.2523 C1419.6978,234.2429 1420.456,233.4689 1420.4482,232.5496 C1420.4404,231.6302 1419.6684,230.8711 1418.7491,230.8774 A0.959,0.959 0 0 0 1418.7429,230.8836 A0.959,0.959 0 0 0 1418.7372,230.8774" fill="#000000"/><text fill="#212529" font-family="Arial" font-size="12" lengthAdjust="spacing" textLength="47.3555" x="1298.3" y="252.8559">Strategic</text><text fill="#212529" font-family="Arial" font-size="12" lengthAdjust="spacing" textLength="3.334" x="1345.6555" y="252.8559">&#160;</text><text fill="#212529" font-family="Arial" font-size="12" lengthAdjust="spacing" textLength="31.3477" x="1348.9895" y="252.8559">Goals</text><text fill="#212529" font-family="Arial" font-size="12" lengthAdjust="spacing" textLength="3.334" x="1380.3371" y="252.8559">&#160;</text><text fill="#212529" font-family="Arial" font-size="12" lengthAdjust="spacing" textLength="8.0039" x="1383.6711" y="252.8559">&amp;</text><text fill="#212529" font-family="Arial" font-size="12" lengthAdjust="spacing" textLength="3.334" x="1391.675" y="252.8559">&#160;</text><text fill="#212529" font-family="Arial" font-size="12" lengthAdjust="spacing" textLength="32.6836" x="1395.009" y="252.8559">Vision</text></g><!--entity enterprise_platform--><g class="entity" data-entity="enterprise_platform" data-source-line="280" data-uid="ent0024" id="entity_enterprise_platform"><path d="M919.31,109.8 L1060.6987,109.8 L1072.6987,121.8 L1072.6987,150.5988 L1060.6987,162.5988 L919.31,162.5988 L907.31,150.5988 L907.31,121.8 L919.31,109.8" fill="#CCCCFF" style="stroke:#181818;stroke-width:0.5;"/><path d="M1053.7237,123.554 A0.5,0.5 0 0 0 1053.7025,123.5638 A0.5,0.5 0 0 0 1053.6828,123.556 C1050.2636,123.6025 1047.5168,126.42 1047.5576,129.8393 C1047.5984,133.2586 1050.4097,136.0088 1053.8291,135.9738 C1057.2485,135.9388 1060.0052,133.1316 1059.976,129.7122 C1059.9469,126.2928 1057.1432,123.5305 1053.7237,123.5539 M1053.7221,124.5441 A0.5,0.5 0 0 0 1053.7314,124.5539 C1056.6111,124.5342 1058.9515,126.8404 1058.976,129.72 C1059.0005,132.5996 1056.6993,134.9445 1053.8197,134.9739 C1050.9401,135.0034 1048.5923,132.707 1048.558,129.8274 C1048.5237,126.9479 1050.8167,124.5951 1053.6962,124.5559 A0.5,0.5 0 0 0 1053.722,124.544 M1053.7138,125.896 C1051.5854,125.925 1049.8721,127.6815 1049.8975,129.81 C1049.9228,131.9385 1051.6773,133.6558 1053.8058,133.6341 C1055.9343,133.6124 1057.6542,131.8606 1057.6361,129.732 C1057.6179,127.6035 1055.8683,125.8815 1053.7397,125.8961 A0.5,0.5 0 0 0 1053.7278,125.9075 A0.5,0.5 0 0 0 1053.7138,125.8961 M1053.7412,126.8898 A0.5,0.5 0 0 0 1053.7474,126.896 C1055.3361,126.8851 1056.6226,128.151 1056.6361,129.7398 C1056.6496,131.3285 1055.3847,132.618 1053.796,132.6342 C1052.2073,132.6504 1050.9164,131.3869 1050.8975,129.7982 C1050.8785,128.2095 1052.1392,126.9177 1053.7278,126.8961 A0.5,0.5 0 0 0 1053.7412,126.8899 M1053.7433,128.0773 C1052.824,128.0898 1052.0684,128.8654 1052.0793,129.7847 C1052.0902,130.704 1052.8653,131.4617 1053.7846,131.4523 C1054.7039,131.4429 1055.4621,130.6689 1055.4543,129.7496 C1055.4465,128.8302 1054.6745,128.0711 1053.7552,128.0774 A0.959,0.959 0 0 0 1053.749,128.0836 A0.959,0.959 0 0 0 1053.7433,128.0774" fill="#000000"/><text fill="#212529" font-family="Arial" font-size="12" lengthAdjust="spacing" textLength="54.6914" x="917.31" y="150.0559">Enterprise</text><text fill="#212529" font-family="Arial" font-size="12" lengthAdjust="spacing" textLength="3.334" x="972.0014" y="150.0559">&#160;</text><text fill="#212529" font-family="Arial" font-size="12" lengthAdjust="spacing" textLength="39.3516" x="975.3354" y="150.0559">Affiliate</text><text fill="#212529" font-family="Arial" font-size="12" lengthAdjust="spacing" textLength="3.334" x="1014.687" y="150.0559">&#160;</text><text fill="#212529" font-family="Arial" font-size="12" lengthAdjust="spacing" textLength="44.6777" x="1018.0209" y="150.0559">Platform</text></g><!--entity ai_driven_insights--><g class="entity" data-entity="ai_driven_insights" data-source-line="280" data-uid="ent0025" id="entity_ai_driven_insights"><path d="M1125,109.8 L1241,109.8 L1253,121.8 L1253,150.5988 L1241,162.5988 L1125,162.5988 L1113,150.5988 L1113,121.8 L1125,109.8" fill="#CCCCFF" style="stroke:#181818;stroke-width:0.5;"/><path d="M1234.025,123.554 A0.5,0.5 0 0 0 1234.0038,123.5638 A0.5,0.5 0 0 0 1233.9842,123.556 C1230.565,123.6025 1227.8182,126.42 1227.859,129.8393 C1227.8997,133.2586 1230.7111,136.0088 1234.1305,135.9738 C1237.5499,135.9388 1240.3066,133.1316 1240.2774,129.7122 C1240.2482,126.2928 1237.4446,123.5305 1234.0251,123.5539 M1234.0234,124.5441 A0.5,0.5 0 0 0 1234.0327,124.5539 C1236.9124,124.5342 1239.2528,126.8404 1239.2773,129.72 C1239.3019,132.5996 1237.0006,134.9445 1234.121,134.9739 C1231.2414,135.0034 1228.8936,132.707 1228.8593,129.8274 C1228.825,126.9479 1231.118,124.5951 1233.9975,124.5559 A0.5,0.5 0 0 0 1234.0233,124.544 M1234.0151,125.896 C1231.8867,125.925 1230.1734,127.6815 1230.1988,129.81 C1230.2242,131.9385 1231.9786,133.6558 1234.1071,133.6341 C1236.2356,133.6124 1237.9555,131.8606 1237.9374,129.732 C1237.9192,127.6035 1236.1696,125.8815 1234.041,125.8961 A0.5,0.5 0 0 0 1234.0291,125.9075 A0.5,0.5 0 0 0 1234.0152,125.8961 M1234.0425,126.8898 A0.5,0.5 0 0 0 1234.0487,126.896 C1235.6374,126.8851 1236.9239,128.151 1236.9374,129.7398 C1236.9509,131.3285 1235.686,132.618 1234.0973,132.6342 C1232.5086,132.6504 1231.2177,131.3869 1231.1988,129.7982 C1231.1799,128.2095 1232.4405,126.9177 1234.0291,126.8961 A0.5,0.5 0 0 0 1234.0425,126.8899 M1234.0446,128.0773 C1233.1253,128.0898 1232.3697,128.8654 1232.3806,129.7847 C1232.3916,130.704 1233.1666,131.4617 1234.0859,131.4523 C1235.0052,131.4429 1235.7634,130.6689 1235.7556,129.7496 C1235.7478,128.8302 1234.9758,128.0711 1234.0565,128.0774 A0.959,0.959 0 0 0 1234.0503,128.0836 A0.959,0.959 0 0 0 1234.0446,128.0774" fill="#000000"/><text fill="#212529" font-family="Arial" font-size="12" lengthAdjust="spacing" textLength="50.0098" x="1135.6504" y="150.0559">AI-Driven</text><text fill="#212529" font-family="Arial" font-size="12" lengthAdjust="spacing" textLength="3.334" x="1185.6602" y="150.0559">&#160;</text><text fill="#212529" font-family="Arial" font-size="12" lengthAdjust="spacing" textLength="41.3555" x="1188.9941" y="150.0559">Insights</text></g><!--entity global_scalability--><g class="entity" data-entity="global_scalability" data-source-line="280" data-uid="ent0026" id="entity_global_scalability"><path d="M1305,109.8 L1421,109.8 L1433,121.8 L1433,150.5988 L1421,162.5988 L1305,162.5988 L1293,150.5988 L1293,121.8 L1305,109.8" fill="#CCCCFF" style="stroke:#181818;stroke-width:0.5;"/><path d="M1414.025,123.554 A0.5,0.5 0 0 0 1414.0038,123.5638 A0.5,0.5 0 0 0 1413.9842,123.556 C1410.565,123.6025 1407.8182,126.42 1407.859,129.8393 C1407.8997,133.2586 1410.7111,136.0088 1414.1305,135.9738 C1417.5499,135.9388 1420.3066,133.1316 1420.2774,129.7122 C1420.2482,126.2928 1417.4446,123.5305 1414.0251,123.5539 M1414.0234,124.5441 A0.5,0.5 0 0 0 1414.0327,124.5539 C1416.9124,124.5342 1419.2528,126.8404 1419.2773,129.72 C1419.3019,132.5996 1417.0006,134.9445 1414.121,134.9739 C1411.2414,135.0034 1408.8936,132.707 1408.8593,129.8274 C1408.825,126.9479 1411.118,124.5951 1413.9975,124.5559 A0.5,0.5 0 0 0 1414.0233,124.544 M1414.0151,125.896 C1411.8867,125.925 1410.1734,127.6815 1410.1988,129.81 C1410.2242,131.9385 1411.9786,133.6558 1414.1071,133.6341 C1416.2356,133.6124 1417.9555,131.8606 1417.9374,129.732 C1417.9192,127.6035 1416.1696,125.8815 1414.041,125.8961 A0.5,0.5 0 0 0 1414.0291,125.9075 A0.5,0.5 0 0 0 1414.0152,125.8961 M1414.0425,126.8898 A0.5,0.5 0 0 0 1414.0487,126.896 C1415.6374,126.8851 1416.9239,128.151 1416.9374,129.7398 C1416.9509,131.3285 1415.686,132.618 1414.0973,132.6342 C1412.5086,132.6504 1411.2177,131.3869 1411.1988,129.7982 C1411.1799,128.2095 1412.4405,126.9177 1414.0291,126.8961 A0.5,0.5 0 0 0 1414.0425,126.8899 M1414.0446,128.0773 C1413.1253,128.0898 1412.3697,128.8654 1412.3806,129.7847 C1412.3916,130.704 1413.1666,131.4617 1414.0859,131.4523 C1415.0052,131.4429 1415.7634,130.6689 1415.7556,129.7496 C1415.7478,128.8302 1414.9758,128.0711 1414.0565,128.0774 A0.959,0.959 0 0 0 1414.0503,128.0836 A0.959,0.959 0 0 0 1414.0446,128.0774" fill="#000000"/><text fill="#212529" font-family="Arial" font-size="12" lengthAdjust="spacing" textLength="34.6875" x="1316.9775" y="150.0559">Global</text><text fill="#212529" font-family="Arial" font-size="12" lengthAdjust="spacing" textLength="3.334" x="1351.665" y="150.0559">&#160;</text><text fill="#212529" font-family="Arial" font-size="12" lengthAdjust="spacing" textLength="54.0234" x="1354.999" y="150.0559">Scalability</text></g><!--entity market_leadership--><g class="entity" data-entity="market_leadership" data-source-line="280" data-uid="ent0027" id="entity_market_leadership"><path d="M1485,109.8 L1601,109.8 L1613,121.8 L1613,150.5988 L1601,162.5988 L1485,162.5988 L1473,150.5988 L1473,121.8 L1485,109.8" fill="#CCCCFF" style="stroke:#181818;stroke-width:0.5;"/><path d="M1594.025,123.554 A0.5,0.5 0 0 0 1594.0038,123.5638 A0.5,0.5 0 0 0 1593.9842,123.556 C1590.565,123.6025 1587.8182,126.42 1587.859,129.8393 C1587.8997,133.2586 1590.7111,136.0088 1594.1305,135.9738 C1597.5499,135.9388 1600.3066,133.1316 1600.2774,129.7122 C1600.2482,126.2928 1597.4446,123.5305 1594.0251,123.5539 M1594.0234,124.5441 A0.5,0.5 0 0 0 1594.0327,124.5539 C1596.9124,124.5342 1599.2528,126.8404 1599.2773,129.72 C1599.3019,132.5996 1597.0006,134.9445 1594.121,134.9739 C1591.2414,135.0034 1588.8936,132.707 1588.8593,129.8274 C1588.825,126.9479 1591.118,124.5951 1593.9975,124.5559 A0.5,0.5 0 0 0 1594.0233,124.544 M1594.0151,125.896 C1591.8867,125.925 1590.1734,127.6815 1590.1988,129.81 C1590.2242,131.9385 1591.9786,133.6558 1594.1071,133.6341 C1596.2356,133.6124 1597.9555,131.8606 1597.9374,129.732 C1597.9192,127.6035 1596.1696,125.8815 1594.041,125.8961 A0.5,0.5 0 0 0 1594.0291,125.9075 A0.5,0.5 0 0 0 1594.0152,125.8961 M1594.0425,126.8898 A0.5,0.5 0 0 0 1594.0487,126.896 C1595.6374,126.8851 1596.9239,128.151 1596.9374,129.7398 C1596.9509,131.3285 1595.686,132.618 1594.0973,132.6342 C1592.5086,132.6504 1591.2177,131.3869 1591.1988,129.7982 C1591.1799,128.2095 1592.4405,126.9177 1594.0291,126.8961 A0.5,0.5 0 0 0 1594.0425,126.8899 M1594.0446,128.0773 C1593.1253,128.0898 1592.3697,128.8654 1592.3806,129.7847 C1592.3916,130.704 1593.1666,131.4617 1594.0859,131.4523 C1595.0052,131.4429 1595.7634,130.6689 1595.7556,129.7496 C1595.7478,128.8302 1594.9758,128.0711 1594.0565,128.0774 A0.959,0.959 0 0 0 1594.0503,128.0836 A0.959,0.959 0 0 0 1594.0446,128.0774" fill="#000000"/><text fill="#212529" font-family="Arial" font-size="12" lengthAdjust="spacing" textLength="36.6738" x="1493.3066" y="150.0559">Market</text><text fill="#212529" font-family="Arial" font-size="12" lengthAdjust="spacing" textLength="3.334" x="1529.9805" y="150.0559">&#160;</text><text fill="#212529" font-family="Arial" font-size="12" lengthAdjust="spacing" textLength="59.3789" x="1533.3145" y="150.0559">Leadership</text></g><!--entity innovation_ecosystem--><g class="entity" data-entity="innovation_ecosystem" data-source-line="280" data-uid="ent0028" id="entity_innovation_ecosystem"><path d="M1665,109.8 L1781,109.8 L1793,121.8 L1793,150.5988 L1781,162.5988 L1665,162.5988 L1653,150.5988 L1653,121.8 L1665,109.8" fill="#CCCCFF" style="stroke:#181818;stroke-width:0.5;"/><path d="M1774.025,123.554 A0.5,0.5 0 0 0 1774.0038,123.5638 A0.5,0.5 0 0 0 1773.9842,123.556 C1770.565,123.6025 1767.8182,126.42 1767.859,129.8393 C1767.8997,133.2586 1770.7111,136.0088 1774.1305,135.9738 C1777.5499,135.9388 1780.3066,133.1316 1780.2774,129.7122 C1780.2482,126.2928 1777.4446,123.5305 1774.0251,123.5539 M1774.0234,124.5441 A0.5,0.5 0 0 0 1774.0327,124.5539 C1776.9124,124.5342 1779.2528,126.8404 1779.2773,129.72 C1779.3019,132.5996 1777.0006,134.9445 1774.121,134.9739 C1771.2414,135.0034 1768.8936,132.707 1768.8593,129.8274 C1768.825,126.9479 1771.118,124.5951 1773.9975,124.5559 A0.5,0.5 0 0 0 1774.0233,124.544 M1774.0151,125.896 C1771.8867,125.925 1770.1734,127.6815 1770.1988,129.81 C1770.2242,131.9385 1771.9786,133.6558 1774.1071,133.6341 C1776.2356,133.6124 1777.9555,131.8606 1777.9374,129.732 C1777.9192,127.6035 1776.1696,125.8815 1774.041,125.8961 A0.5,0.5 0 0 0 1774.0291,125.9075 A0.5,0.5 0 0 0 1774.0152,125.8961 M1774.0425,126.8898 A0.5,0.5 0 0 0 1774.0487,126.896 C1775.6374,126.8851 1776.9239,128.151 1776.9374,129.7398 C1776.9509,131.3285 1775.686,132.618 1774.0973,132.6342 C1772.5086,132.6504 1771.2177,131.3869 1771.1988,129.7982 C1771.1799,128.2095 1772.4405,126.9177 1774.0291,126.8961 A0.5,0.5 0 0 0 1774.0425,126.8899 M1774.0446,128.0773 C1773.1253,128.0898 1772.3697,128.8654 1772.3806,129.7847 C1772.3916,130.704 1773.1666,131.4617 1774.0859,131.4523 C1775.0052,131.4429 1775.7634,130.6689 1775.7556,129.7496 C1775.7478,128.8302 1774.9758,128.0711 1774.0565,128.0774 A0.959,0.959 0 0 0 1774.0503,128.0836 A0.959,0.959 0 0 0 1774.0446,128.0774" fill="#000000"/><text fill="#212529" font-family="Arial" font-size="12" lengthAdjust="spacing" textLength="55.377" x="1664.3037" y="150.0559">Innovation</text><text fill="#212529" font-family="Arial" font-size="12" lengthAdjust="spacing" textLength="3.334" x="1719.6807" y="150.0559">&#160;</text><text fill="#212529" font-family="Arial" font-size="12" lengthAdjust="spacing" textLength="58.6816" x="1723.0146" y="150.0559">Ecosystem</text></g><!--link current_state to phase2_short_term--><g class="link" data-entity-1="current_state" data-entity-2="phase2_short_term" data-source-line="349" data-uid="lnk29" id="link_current_state_phase2_short_term"><path d="M2824,163.03 C2824,196.16 2824,248.2 2824,248.2 C2824,248.2 2542.66,248.2 2381.3,248.2" fill="none" id="current_state-to-phase2_short_term" style="stroke:#007ACC;stroke-width:2;stroke-dasharray:1,3;"/><polygon fill="none" points="2363.3,248.2,2381.3,254.2,2381.3,242.2,2363.3,248.2" style="stroke:#007ACC;stroke-width:2;"/><text fill="#212529" font-family="Arial" font-size="12" lengthAdjust="spacing" textLength="28.6875" x="2593.23" y="245.4559">leads</text><text fill="#212529" font-family="Arial" font-size="12" lengthAdjust="spacing" textLength="3.334" x="2621.9175" y="245.4559">&#160;</text><text fill="#212529" font-family="Arial" font-size="12" lengthAdjust="spacing" textLength="10.0078" x="2625.2515" y="245.4559">to</text></g><!--link phase2_short_term to phase3_long_term--><g class="link" data-entity-1="phase2_short_term" data-entity-2="phase3_long_term" data-source-line="349" data-uid="lnk30" id="link_phase2_short_term_phase3_long_term"><path d="M2263,265.85 C2263,296.42 2263,342.2 2263,342.2 C2263,342.2 1601.69,342.2 1318.09,342.2" fill="none" id="phase2_short_term-to-phase3_long_term" style="stroke:#007ACC;stroke-width:2;stroke-dasharray:1,3;"/><polygon fill="none" points="1300.09,342.2,1318.09,348.2,1318.09,336.2,1300.09,342.2" style="stroke:#007ACC;stroke-width:2;"/><text fill="#212529" font-family="Arial" font-size="12" lengthAdjust="spacing" textLength="28.6875" x="1776.72" y="339.4559">leads</text><text fill="#212529" font-family="Arial" font-size="12" lengthAdjust="spacing" textLength="3.334" x="1805.4075" y="339.4559">&#160;</text><text fill="#212529" font-family="Arial" font-size="12" lengthAdjust="spacing" textLength="10.0078" x="1808.7415" y="339.4559">to</text></g><!--link ddd_implementation to current_state--><g class="link" data-entity-1="ddd_implementation" data-entity-2="current_state" data-source-line="349" data-uid="lnk31" id="link_ddd_implementation_current_state"><path d="M2523.5,60.21 C2523.5,72.85 2523.5,85.2 2523.5,85.2 C2523.5,85.2 2800.67,85.2 2800.67,85.2 C2800.67,85.2 2800.67,91.17 2800.67,103.51" fill="none" id="ddd_implementation-to-current_state" style="stroke:#007ACC;stroke-width:2;"/><polygon fill="#007ACC" points="2800.67,109.51,2804.67,100.51,2800.67,104.51,2796.67,100.51,2800.67,109.51" style="stroke:#007ACC;stroke-width:2;"/><text fill="#212529" font-family="Arial" font-size="12" lengthAdjust="spacing" textLength="56.0508" x="2604.74" y="82.4559">foundation</text></g><!--link business_domains to current_state--><g class="link" data-entity-1="business_domains" data-entity-2="current_state" data-source-line="349" data-uid="lnk32" id="link_business_domains_current_state"><path d="M2714.07,33.2 C2725.39,33.2 2733.48,33.2 2733.48,33.2 C2733.48,33.2 2733.48,136.2 2733.48,136.2 C2733.48,136.2 2735.46,136.2 2746.68,136.2" fill="none" id="business_domains-to-current_state" style="stroke:#007ACC;stroke-width:2;"/><polygon fill="#007ACC" points="2752.68,136.2,2743.68,132.2,2747.68,136.2,2743.68,140.2,2752.68,136.2" style="stroke:#007ACC;stroke-width:2;"/><text fill="#212529" font-family="Arial" font-size="12" lengthAdjust="spacing" textLength="23.3438" x="2709.48" y="81.8459">core</text></g><!--link clean_architecture to current_state--><g class="link" data-entity-1="clean_architecture" data-entity-2="current_state" data-source-line="349" data-uid="lnk33" id="link_clean_architecture_current_state"><path d="M2847.33,60.14 C2847.33,75.37 2847.33,88.39 2847.33,103.6" fill="none" id="clean_architecture-to-current_state" style="stroke:#007ACC;stroke-width:2;"/><polygon fill="#007ACC" points="2847.33,109.6,2851.33,100.6,2847.33,104.6,2843.33,100.6,2847.33,109.6" style="stroke:#007ACC;stroke-width:2;"/><text fill="#212529" font-family="Arial" font-size="12" lengthAdjust="spacing" textLength="46.6816" x="2800.33" y="82.1259">structure</text></g><!--link multi_database to current_state--><g class="link" data-entity-1="multi_database" data-entity-2="current_state" data-source-line="349" data-uid="lnk34" id="link_multi_database_current_state"><path d="M3004,60.28 C3004,88 3004,127.2 3004,127.2 C3004,127.2 2951.65,127.2 2901.4,127.2" fill="none" id="multi_database-to-current_state" style="stroke:#007ACC;stroke-width:2;"/><polygon fill="#007ACC" points="2895.4,127.2,2904.4,131.2,2900.4,127.2,2904.4,123.2,2895.4,127.2" style="stroke:#007ACC;stroke-width:2;"/><text fill="#212529" font-family="Arial" font-size="12" lengthAdjust="spacing" textLength="46.0254" x="2936.16" y="124.4559">supports</text></g><!--link production_ready to current_state--><g class="link" data-entity-1="production_ready" data-entity-2="current_state" data-source-line="349" data-uid="lnk35" id="link_production_ready_current_state"><path d="M3184,60.18 C3184,93.26 3184,145.2 3184,145.2 C3184,145.2 3006.04,145.2 2901.12,145.2" fill="none" id="production_ready-to-current_state" style="stroke:#007ACC;stroke-width:2;"/><polygon fill="#007ACC" points="2895.12,145.2,2904.12,149.2,2900.12,145.2,2904.12,141.2,2895.12,145.2" style="stroke:#007ACC;stroke-width:2;"/><text fill="#212529" font-family="Arial" font-size="12" lengthAdjust="spacing" textLength="32.0156" x="3049.07" y="142.4559">status</text></g><!--link jwt_auth to phase2_short_term--><g class="link" data-entity-1="jwt_auth" data-entity-2="phase2_short_term" data-source-line="349" data-uid="lnk36" id="link_jwt_auth_phase2_short_term"><path d="M1903,162.72 C1903,189.27 1903,226.2 1903,226.2 C1903,226.2 2050.2,226.2 2156.72,226.2" fill="none" id="jwt_auth-to-phase2_short_term" style="stroke:#007ACC;stroke-width:2;"/><polygon fill="#007ACC" points="2162.72,226.2,2153.72,222.2,2157.72,226.2,2153.72,230.2,2162.72,226.2" style="stroke:#007ACC;stroke-width:2;"/><text fill="#212529" font-family="Arial" font-size="12" lengthAdjust="spacing" textLength="52.043" x="1948.12" y="223.4559">enhances</text></g><!--link redis_caching to phase2_short_term--><g class="link" data-entity-1="redis_caching" data-entity-2="phase2_short_term" data-source-line="349" data-uid="lnk37" id="link_redis_caching_phase2_short_term"><path d="M2153.03,136.2 C2167.27,136.2 2177.99,136.2 2177.99,136.2 C2177.99,136.2 2177.99,175.8 2177.99,206.26" fill="none" id="redis_caching-to-phase2_short_term" style="stroke:#007ACC;stroke-width:2;"/><polygon fill="#007ACC" points="2177.99,212.26,2181.99,203.26,2177.99,207.26,2173.99,203.26,2177.99,212.26" style="stroke:#007ACC;stroke-width:2;"/><text fill="#212529" font-family="Arial" font-size="12" lengthAdjust="spacing" textLength="48.6797" x="2128.99" y="174.0059">improves</text></g><!--link async_processing to phase2_short_term--><g class="link" data-entity-1="async_processing" data-entity-2="phase2_short_term" data-source-line="349" data-uid="lnk38" id="link_async_processing_phase2_short_term"><path d="M2263,162.94 C2263,178.17 2263,191.19 2263,206.39" fill="none" id="async_processing-to-phase2_short_term" style="stroke:#007ACC;stroke-width:2;"/><polygon fill="#007ACC" points="2263,212.39,2267,203.39,2263,207.39,2259,203.39,2263,212.39" style="stroke:#007ACC;stroke-width:2;"/><text fill="#212529" font-family="Arial" font-size="12" lengthAdjust="spacing" textLength="42.0352" x="2220" y="184.9259">enables</text></g><!--link api_versioning to phase2_short_term--><g class="link" data-entity-1="api_versioning" data-entity-2="phase2_short_term" data-source-line="349" data-uid="lnk39" id="link_api_versioning_phase2_short_term"><path d="M2372.97,136.2 C2358.73,136.2 2348.01,136.2 2348.01,136.2 C2348.01,136.2 2348.01,175.8 2348.01,206.26" fill="none" id="api_versioning-to-phase2_short_term" style="stroke:#007ACC;stroke-width:2;"/><polygon fill="#007ACC" points="2348.01,212.26,2352.01,203.26,2348.01,207.26,2344.01,203.26,2348.01,212.26" style="stroke:#007ACC;stroke-width:2;"/><text fill="#212529" font-family="Arial" font-size="12" lengthAdjust="spacing" textLength="52.0313" x="2295.01" y="174.0059">organizes</text></g><!--link monitoring to phase2_short_term--><g class="link" data-entity-1="monitoring" data-entity-2="phase2_short_term" data-source-line="349" data-uid="lnk40" id="link_monitoring_phase2_short_term"><path d="M2633,162.89 C2633,190.68 2633,230.2 2633,230.2 C2633,230.2 2478.7,230.2 2369.13,230.2" fill="none" id="monitoring-to-phase2_short_term" style="stroke:#007ACC;stroke-width:2;"/><polygon fill="#007ACC" points="2363.13,230.2,2372.13,234.2,2368.13,230.2,2372.13,226.2,2363.13,230.2" style="stroke:#007ACC;stroke-width:2;"/><text fill="#212529" font-family="Arial" font-size="12" lengthAdjust="spacing" textLength="46.0137" x="2484.72" y="227.4559">monitors</text></g><!--link microservices_architecture to phase3_long_term--><g class="link" data-entity-1="microservices_architecture" data-entity-2="phase3_long_term" data-source-line="349" data-uid="lnk41" id="link_microservices_architecture_phase3_long_term"><path d="M527,265.85 C527,296.42 527,342.2 527,342.2 C527,342.2 861.43,342.2 1049.93,342.2" fill="none" id="microservices_architecture-to-phase3_long_term" style="stroke:#007ACC;stroke-width:2;"/><polygon fill="#007ACC" points="1055.93,342.2,1046.93,338.2,1050.93,342.2,1046.93,346.2,1055.93,342.2" style="stroke:#007ACC;stroke-width:2;"/><text fill="#212529" font-family="Arial" font-size="12" lengthAdjust="spacing" textLength="42.0352" x="710.29" y="339.4559">enables</text></g><!--link campaign_service to microservices_architecture--><g class="link" data-entity-1="campaign_service" data-entity-2="microservices_architecture" data-source-line="349" data-uid="lnk42" id="link_campaign_service_microservices_architecture"><path d="M77,163.03 C77,196.16 77,248.2 77,248.2 C77,248.2 310.79,248.2 440.29,248.2" fill="none" id="campaign_service-to-microservices_architecture" style="stroke:#007ACC;stroke-width:2;"/><polygon fill="#007ACC" points="446.29,248.2,437.29,244.2,441.29,248.2,437.29,252.2,446.29,248.2" style="stroke:#007ACC;stroke-width:2;"/><text fill="#212529" font-family="Arial" font-size="12" lengthAdjust="spacing" textLength="58.6934" x="160.06" y="245.4559">specializes</text></g><!--link ltv_service to microservices_architecture--><g class="link" data-entity-1="ltv_service" data-entity-2="microservices_architecture" data-source-line="349" data-uid="lnk43" id="link_ltv_service_microservices_architecture"><path d="M257,162.89 C257,190.68 257,230.2 257,230.2 C257,230.2 360.8,230.2 440.36,230.2" fill="none" id="ltv_service-to-microservices_architecture" style="stroke:#007ACC;stroke-width:2;"/><polygon fill="#007ACC" points="446.36,230.2,437.36,226.2,441.36,230.2,437.36,234.2,446.36,230.2" style="stroke:#007ACC;stroke-width:2;"/><text fill="#212529" font-family="Arial" font-size="12" lengthAdjust="spacing" textLength="58.6934" x="259.02" y="227.4559">specializes</text></g><!--link retention_service to microservices_architecture--><g class="link" data-entity-1="retention_service" data-entity-2="microservices_architecture" data-source-line="349" data-uid="lnk44" id="link_retention_service_microservices_architecture"><path d="M476.82,162.94 C476.82,178.17 476.82,191.19 476.82,206.39" fill="none" id="retention_service-to-microservices_architecture" style="stroke:#007ACC;stroke-width:2;"/><polygon fill="#007ACC" points="476.82,212.39,480.82,203.39,476.82,207.39,472.82,203.39,476.82,212.39" style="stroke:#007ACC;stroke-width:2;"/><text fill="#212529" font-family="Arial" font-size="12" lengthAdjust="spacing" textLength="58.6934" x="417.82" y="184.9259">specializes</text></g><!--link lead_service to microservices_architecture--><g class="link" data-entity-1="lead_service" data-entity-2="microservices_architecture" data-source-line="349" data-uid="lnk45" id="link_lead_service_microservices_architecture"><path d="M577.18,162.94 C577.18,178.17 577.18,191.19 577.18,206.39" fill="none" id="lead_service-to-microservices_architecture" style="stroke:#007ACC;stroke-width:2;"/><polygon fill="#007ACC" points="577.18,212.39,581.18,203.39,577.18,207.39,573.18,203.39,577.18,212.39" style="stroke:#007ACC;stroke-width:2;"/><text fill="#212529" font-family="Arial" font-size="12" lengthAdjust="spacing" textLength="58.6934" x="518.18" y="184.9259">specializes</text></g><!--link auth_service to microservices_architecture--><g class="link" data-entity-1="auth_service" data-entity-2="microservices_architecture" data-source-line="349" data-uid="lnk46" id="link_auth_service_microservices_architecture"><path d="M797,163 C797,193.51 797,239.2 797,239.2 C797,239.2 693.2,239.2 613.64,239.2" fill="none" id="auth_service-to-microservices_architecture" style="stroke:#007ACC;stroke-width:2;"/><polygon fill="#007ACC" points="607.64,239.2,616.64,243.2,612.64,239.2,616.64,235.2,607.64,239.2" style="stroke:#007ACC;stroke-width:2;"/><text fill="#212529" font-family="Arial" font-size="12" lengthAdjust="spacing" textLength="58.6934" x="681.42" y="236.4559">specializes</text></g><!--link advanced_analytics to phase3_long_term--><g class="link" data-entity-1="advanced_analytics" data-entity-2="phase3_long_term" data-source-line="349" data-uid="lnk47" id="link_advanced_analytics_phase3_long_term"><path d="M1062.14,265.74 C1062.14,280.97 1062.14,293.99 1062.14,309.19" fill="none" id="advanced_analytics-to-phase3_long_term" style="stroke:#007ACC;stroke-width:2;"/><polygon fill="#007ACC" points="1062.14,315.19,1066.14,306.19,1062.14,310.19,1058.14,306.19,1062.14,315.19" style="stroke:#007ACC;stroke-width:2;"/><text fill="#212529" font-family="Arial" font-size="12" lengthAdjust="spacing" textLength="52.043" x="1009.14" y="287.7259">enhances</text></g><!--link scalable_infrastructure to phase3_long_term--><g class="link" data-entity-1="scalable_infrastructure" data-entity-2="phase3_long_term" data-source-line="349" data-uid="lnk48" id="link_scalable_infrastructure_phase3_long_term"><path d="M1178,265.74 C1178,280.97 1178,293.99 1178,309.19" fill="none" id="scalable_infrastructure-to-phase3_long_term" style="stroke:#007ACC;stroke-width:2;"/><polygon fill="#007ACC" points="1178,315.19,1182,306.19,1178,310.19,1174,306.19,1178,315.19" style="stroke:#007ACC;stroke-width:2;"/><text fill="#212529" font-family="Arial" font-size="12" lengthAdjust="spacing" textLength="46.0254" x="1131" y="287.7259">supports</text></g><!--link strategic_goals to phase3_long_term--><g class="link" data-entity-1="strategic_goals" data-entity-2="phase3_long_term" data-source-line="349" data-uid="lnk49" id="link_strategic_goals_phase3_long_term"><path d="M1294.01,265.74 C1294.01,280.97 1294.01,293.99 1294.01,309.19" fill="none" id="strategic_goals-to-phase3_long_term" style="stroke:#007ACC;stroke-width:2;"/><polygon fill="#007ACC" points="1294.01,315.19,1298.01,306.19,1294.01,310.19,1290.01,306.19,1294.01,315.19" style="stroke:#007ACC;stroke-width:2;"/><text fill="#212529" font-family="Arial" font-size="12" lengthAdjust="spacing" textLength="35.3613" x="1258.01" y="287.7259">guides</text></g><!--link enterprise_platform to strategic_goals--><g class="link" data-entity-1="enterprise_platform" data-entity-2="strategic_goals" data-source-line="349" data-uid="lnk50" id="link_enterprise_platform_strategic_goals"><path d="M998,162.9 C998,175.24 998,187.2 998,187.2 C998,187.2 1339.67,187.2 1339.67,187.2 C1339.67,187.2 1339.67,193.55 1339.67,206.19" fill="none" id="enterprise_platform-to-strategic_goals" style="stroke:#007ACC;stroke-width:2;"/><polygon fill="#007ACC" points="1339.67,212.19,1343.67,203.19,1339.67,207.19,1335.67,203.19,1339.67,212.19" style="stroke:#007ACC;stroke-width:2;"/><text fill="#212529" font-family="Arial" font-size="12" lengthAdjust="spacing" textLength="30.6797" x="1138.18" y="184.4559">vision</text></g><!--link ai_driven_insights to strategic_goals--><g class="link" data-entity-1="ai_driven_insights" data-entity-2="strategic_goals" data-source-line="349" data-uid="lnk51" id="link_ai_driven_insights_strategic_goals"><path d="M1253.33,136.2 C1263.52,136.2 1270.65,136.2 1270.65,136.2 C1270.65,136.2 1270.65,239.2 1270.65,239.2 C1270.65,239.2 1271.76,239.2 1282.02,239.2" fill="none" id="ai_driven_insights-to-strategic_goals" style="stroke:#007ACC;stroke-width:2;"/><polygon fill="#007ACC" points="1288.02,239.2,1279.02,235.2,1283.02,239.2,1279.02,243.2,1288.02,239.2" style="stroke:#007ACC;stroke-width:2;"/><text fill="#212529" font-family="Arial" font-size="12" lengthAdjust="spacing" textLength="22.6875" x="1247.65" y="184.9859">goal</text></g><!--link global_scalability to strategic_goals--><g class="link" data-entity-1="global_scalability" data-entity-2="strategic_goals" data-source-line="349" data-uid="lnk52" id="link_global_scalability_strategic_goals"><path d="M1386.33,162.94 C1386.33,178.17 1386.33,191.19 1386.33,206.39" fill="none" id="global_scalability-to-strategic_goals" style="stroke:#007ACC;stroke-width:2;"/><polygon fill="#007ACC" points="1386.33,212.39,1390.33,203.39,1386.33,207.39,1382.33,203.39,1386.33,212.39" style="stroke:#007ACC;stroke-width:2;"/><text fill="#212529" font-family="Arial" font-size="12" lengthAdjust="spacing" textLength="30.6855" x="1355.33" y="184.9259">target</text></g><!--link market_leadership to strategic_goals--><g class="link" data-entity-1="market_leadership" data-entity-2="strategic_goals" data-source-line="349" data-uid="lnk53" id="link_market_leadership_strategic_goals"><path d="M1543,163 C1543,193.51 1543,239.2 1543,239.2 C1543,239.2 1493.42,239.2 1444.03,239.2" fill="none" id="market_leadership-to-strategic_goals" style="stroke:#007ACC;stroke-width:2;"/><polygon fill="#007ACC" points="1438.03,239.2,1447.03,243.2,1443.03,239.2,1447.03,235.2,1438.03,239.2" style="stroke:#007ACC;stroke-width:2;"/><text fill="#212529" font-family="Arial" font-size="12" lengthAdjust="spacing" textLength="52.0313" x="1475.62" y="236.4559">aspiration</text></g><!--link innovation_ecosystem to strategic_goals--><g class="link" data-entity-1="innovation_ecosystem" data-entity-2="strategic_goals" data-source-line="349" data-uid="lnk54" id="link_innovation_ecosystem_strategic_goals"><path d="M1723,162.82 C1723,197.06 1723,252.2 1723,252.2 C1723,252.2 1549.54,252.2 1444.03,252.2" fill="none" id="innovation_ecosystem-to-strategic_goals" style="stroke:#007ACC;stroke-width:2;"/><polygon fill="#007ACC" points="1438.03,252.2,1447.03,256.2,1443.03,252.2,1447.03,248.2,1438.03,252.2" style="stroke:#007ACC;stroke-width:2;"/><text fill="#212529" font-family="Arial" font-size="12" lengthAdjust="spacing" textLength="43.3477" x="1581.21" y="249.4559">platform</text></g><!--SRC=[dLPjRzis4FxkNy5rmEO22vOuYPCMHG5BieiCJMV4MVTHe2LQuYAH0acvS8V-zntrOajyIOOu7s8-lEVkU3pUuvygWRCIeoJ7GXA5_dfSdTrEVg8iAUgKe0zO93ajiIA_B_fl7oSJ-KHPXGKkqHOdJvdWDKj3Nd21Vburdu55IdQuBjIAC_K5bmGj1CM5Utz3lnDqCNDlTlvd5xFhsRk1ISBBYZF25FftWj2MYvI8nvmcJun8YMP7hEDVDX-DMfalzH_ix0QfT2jrA0XYN9IGEa8TIp0YqCKv03B7AVz6MOQKgCdaXokz3n-2MbATrCUFRQfswUR1F30JRj4eydbTL5L14wmePpx7Lyim2gzCnotgT_n8afo1QNRm-hqERg8Bos-3-lskyuE4X0j_6HRdDmkx31hrUxtdYkwVhSAxs-Wsl3NzjgZVxqO9w7b_3LOtKJXVMTasgD_hNLaLf8IlpsOS1BUhS6dwRb6Vxy1w02SZnXLnHvg7DzTmQUTch1RlNi7u1GwZ5oGZBFLTPpCG3CVHSZbRpbzqJ9aYOeSJJzgpsyNDrRNf-nmQ9Gn7VYfWukpPmyzyX_yngc3gST86lVW_oM0X-BV6YnhDgSJBq64bgT3L-G0Kc3rfy7e8RhiP4tY6YyFIEMm6sPxcI-0PB6vZvwmvcQhZU0aySyLfwvmqWulkXalWcIeEI-UKETcLny4IU2QAqzOvOqwMiXihWMUUE2oTysNmL4OZ9V3C4g-zSyAu1aohXNLPp2QJoQzesJgHa_58YzS5P8thQL8B0M0i0IU_eJVh74jGrlSeR3VGHc-yUJiv3V1uBU3t1mLtqpHDut6Yu2AA8jJy6e6sKBNGv5vQWSeJ-3_jkpjEUOafaq3hRL3KGhwOIK4mY_4W09133PfHJmePVu4NEYtXfmgDKwpm5Wu9h7iDd4KTC0xuYUDYMWcUracp5WId1rsW8uGUD0GiJsahNSfPB7CkL0npiZoMT_OUVI5Od3q2YAQNPtFeJAPo-HQS3NulnAkQDP6c_tnJCQvL3Xx- -FiHBU0hXElC72SL9AKoJZ2KWsL0Uj1h5BPhNn0i3oo9g_Q6Mjv2GsXzX0pgNJ_-fxYYyPu82MZ7ND-XhqV05nAEJHKNBUN-k42_e3-taeWztjA2gfTgV1aNd6NZ4b- -Hvy1R4lybUeyq7H-TZ4RbDhg3ve8hiDIEAxPOVV3JRFJXeSB-vSuJN1POPgnkAFfFkqWj6aXBxTG-m7jy-FN5nc2ADqJV1ZkeSTUZWUzF0m8onSvkYC77DsL0yxnpPyQBDrZbf0qnWmN1sXV_UmN7OWMFUYu6Gb2WBS5YIdR2GmZj-wlPTFjeBlHZkCjTuEQ9d46InrwqoD86qZekhPH76IYExqIL9AuWjRRyQRLbaSKBNOxQ5LmXzRTliCBXkaZw9umE8UaMQwQ0joTHGq8HsX11pCh-1ONSLk7vaq0yrC3eiq9T31BB9w8YlNzmdFCQQLxkS7GvoFcu576UBSc2PS7gOW-yjqHHiiU1ZOepGCf6bpxanDOnJ0V2_gz0KsTSSr6dQ94YeCxa-qmTxnymq7JYYnpYfGfUpijnVqq7P9jeJAf2M_QRKXoIPH96xRga6kAbCMhgmgg80sQhLHsGAngatOI5jUD49RhjscI37LnCQ7UWkyjfYqnxh3wHLjSGs9SJ2uopEXtYplK6HUlsxTepmY2e__SUTigyApEo8eaL7U-vMWa2Q_quH29rsOp4enNEXaho6kTE6J5UJlEPlPAYyE5v-rPokAWPZLDhTXELR5rQj-hqkZK3YsngVg_GNH9YKrKM6H4cU_1rXARYML5XMkKkXN5Tb2T1FG_]--></g></svg>