<svg xmlns="http://www.w3.org/2000/svg" xmlns:xlink="http://www.w3.org/1999/xlink" contentStyleType="text/css" data-diagram-type="DESCRIPTION" height="374px" preserveAspectRatio="none" style="width:1248px;height:374px;background:#FFFFFF;" version="1.1" viewBox="0 0 1248 374" width="1248px" zoomAndPan="magnify"><defs/><g><!--entity business_layer--><g class="entity" data-entity="business_layer" data-source-line="127" data-uid="ent0002" id="entity_business_layer"><rect fill="#FFFFCC" height="52.7988" rx="12.5" ry="12.5" style="stroke:#181818;stroke-width:0.5;" width="140" x="7" y="7"/><path d="M131.729,20.5 A0.5001,0.5001 0 0 0 131.4009,20.9746 L131.4263,23.6113 L118.8693,23.6153 A0.5001,0.5001 0 0 0 118.3693,24.1153 L118.3654,30.1641 A0.5001,0.5001 0 0 0 118.8673,30.6641 L131.3963,30.6172 L131.3963,32.9434 A0.5001,0.5001 0 0 0 132.2791,33.2637 L137.2732,27.3106 A0.5001,0.5001 0 0 0 137.2752,26.67 L132.285,20.6505 A0.5001,0.5001 0 0 0 131.7284,20.5001 M132.4146,22.373 L136.2408,26.9882 L132.397,31.5683 L132.397,30.1152 A0.5001,0.5001 0 0 0 131.895,29.6152 L119.366,29.6621 L119.3699,24.6152 L131.9309,24.6112 A0.5001,0.5001 0 0 0 132.4309,24.1073" fill="#000000"/><text fill="#212529" font-family="Arial" font-size="12" lengthAdjust="spacing" textLength="48.6914" x="35.9785" y="47.2559">Business</text><text fill="#212529" font-family="Arial" font-size="12" lengthAdjust="spacing" textLength="3.334" x="84.6699" y="47.2559">&#160;</text><text fill="#212529" font-family="Arial" font-size="12" lengthAdjust="spacing" textLength="30.0176" x="88.0039" y="47.2559">Layer</text></g><!--entity ltv_domain--><g class="entity" data-entity="ltv_domain" data-source-line="127" data-uid="ent0003" id="entity_ltv_domain"><rect fill="#FFFFCC" height="52.7988" rx="12.5" ry="12.5" style="stroke:#181818;stroke-width:0.5;" width="140" x="547" y="7"/><path d="M671.729,20.5 A0.5001,0.5001 0 0 0 671.4009,20.9746 L671.4263,23.6113 L658.8693,23.6153 A0.5001,0.5001 0 0 0 658.3693,24.1153 L658.3654,30.1641 A0.5001,0.5001 0 0 0 658.8673,30.6641 L671.3963,30.6172 L671.3963,32.9434 A0.5001,0.5001 0 0 0 672.2791,33.2637 L677.2732,27.3106 A0.5001,0.5001 0 0 0 677.2752,26.67 L672.285,20.6505 A0.5001,0.5001 0 0 0 671.7284,20.5001 M672.4146,22.373 L676.2408,26.9882 L672.397,31.5683 L672.397,30.1152 A0.5001,0.5001 0 0 0 671.895,29.6152 L659.366,29.6621 L659.3699,24.6152 L671.9309,24.6112 A0.5001,0.5001 0 0 0 672.4309,24.1073" fill="#000000"/><text fill="#212529" font-family="Arial" font-size="12" lengthAdjust="spacing" textLength="22.0078" x="583.6543" y="47.2559">LTV</text><text fill="#212529" font-family="Arial" font-size="12" lengthAdjust="spacing" textLength="3.334" x="605.6621" y="47.2559">&#160;</text><text fill="#212529" font-family="Arial" font-size="12" lengthAdjust="spacing" textLength="41.3496" x="608.9961" y="47.2559">Domain</text></g><!--entity retention_domain--><g class="entity" data-entity="retention_domain" data-source-line="127" data-uid="ent0004" id="entity_retention_domain"><rect fill="#FFFFCC" height="52.7988" rx="12.5" ry="12.5" style="stroke:#181818;stroke-width:0.5;" width="140" x="727" y="7"/><path d="M851.729,20.5 A0.5001,0.5001 0 0 0 851.4009,20.9746 L851.4263,23.6113 L838.8693,23.6153 A0.5001,0.5001 0 0 0 838.3693,24.1153 L838.3654,30.1641 A0.5001,0.5001 0 0 0 838.8673,30.6641 L851.3963,30.6172 L851.3963,32.9434 A0.5001,0.5001 0 0 0 852.2791,33.2637 L857.2732,27.3106 A0.5001,0.5001 0 0 0 857.2752,26.67 L852.285,20.6505 A0.5001,0.5001 0 0 0 851.7284,20.5001 M852.4146,22.373 L856.2408,26.9882 L852.397,31.5683 L852.397,30.1152 A0.5001,0.5001 0 0 0 851.895,29.6152 L839.366,29.6621 L839.3699,24.6152 L851.9309,24.6112 A0.5001,0.5001 0 0 0 852.4309,24.1073" fill="#000000"/><text fill="#212529" font-family="Arial" font-size="12" lengthAdjust="spacing" textLength="51.3691" x="748.9736" y="47.2559">Retention</text><text fill="#212529" font-family="Arial" font-size="12" lengthAdjust="spacing" textLength="3.334" x="800.3428" y="47.2559">&#160;</text><text fill="#212529" font-family="Arial" font-size="12" lengthAdjust="spacing" textLength="41.3496" x="803.6768" y="47.2559">Domain</text></g><!--entity lead_domain--><g class="entity" data-entity="lead_domain" data-source-line="127" data-uid="ent0005" id="entity_lead_domain"><rect fill="#FFFFCC" height="52.7988" rx="12.5" ry="12.5" style="stroke:#181818;stroke-width:0.5;" width="154.0742" x="906.96" y="7"/><path d="M1045.7632,20.5 A0.5001,0.5001 0 0 0 1045.4351,20.9746 L1045.4605,23.6113 L1032.9035,23.6153 A0.5001,0.5001 0 0 0 1032.4035,24.1153 L1032.3996,30.1641 A0.5001,0.5001 0 0 0 1032.9015,30.6641 L1045.4305,30.6172 L1045.4305,32.9434 A0.5001,0.5001 0 0 0 1046.3133,33.2637 L1051.3074,27.3106 A0.5001,0.5001 0 0 0 1051.3094,26.67 L1046.3192,20.6505 A0.5001,0.5001 0 0 0 1045.7626,20.5001 M1046.4488,22.373 L1050.275,26.9882 L1046.4312,31.5683 L1046.4312,30.1152 A0.5001,0.5001 0 0 0 1045.9292,29.6152 L1033.4002,29.6621 L1033.4041,24.6152 L1045.9651,24.6112 A0.5001,0.5001 0 0 0 1046.4651,24.1073" fill="#000000"/><text fill="#212529" font-family="Arial" font-size="12" lengthAdjust="spacing" textLength="26.6953" x="916.96" y="47.2559">Lead</text><text fill="#212529" font-family="Arial" font-size="12" lengthAdjust="spacing" textLength="3.334" x="943.6553" y="47.2559">&#160;</text><text fill="#212529" font-family="Arial" font-size="12" lengthAdjust="spacing" textLength="59.3613" x="946.9893" y="47.2559">Processing</text><text fill="#212529" font-family="Arial" font-size="12" lengthAdjust="spacing" textLength="3.334" x="1006.3506" y="47.2559">&#160;</text><text fill="#212529" font-family="Arial" font-size="12" lengthAdjust="spacing" textLength="41.3496" x="1009.6846" y="47.2559">Domain</text></g><!--entity application_layer--><g class="entity" data-entity="application_layer" data-source-line="167" data-uid="ent0006" id="entity_application_layer"><rect fill="#C2F0FF" height="52.7988" rx="0.5" ry="0.5" style="stroke:#181818;stroke-width:0.5;" width="140" x="187" y="7"/><path d="M316.76,21.639 L301.934,21.686 A0.5001,0.5001 0 0 0 301.4343,22.1857 L301.4343,23.6233 L298.9461,23.6037 A0.5001,0.5001 0 0 0 298.4417,24.1039 L298.4417,26.0392 A0.5001,0.5001 0 0 0 298.942,26.5395 L301.4225,26.5395 L301.3987,27.5823 L298.8991,27.5626 A0.5001,0.5001 0 0 0 298.3952,28.0628 L298.3952,29.9981 A0.5001,0.5001 0 0 0 298.8949,30.4984 L301.3873,30.4984 L301.3873,33.5003 A0.5001,0.5001 0 0 0 301.8876,34.0005 L316.7606,34.047 A0.5001,0.5001 0 0 0 317.2624,33.5473 L317.2624,22.1393 A0.5001,0.5001 0 0 0 316.7606,21.6391 M316.2618,22.641 L316.2618,33.045 L302.3868,33.0021 L302.3868,30.4984 L304.8812,30.4984 A0.5001,0.5001 0 0 0 305.381,29.9982 L305.381,28.1099 A0.5001,0.5001 0 0 0 304.8849,27.6096 L302.3987,27.59 L302.4225,26.5394 L304.9278,26.5394 A0.5001,0.5001 0 0 0 305.428,26.0392 L305.428,24.1504 A0.5001,0.5001 0 0 0 304.9319,23.6507 L302.4339,23.631 L302.4339,22.6838 M299.4418,24.6078 L304.4281,24.6466 L304.4281,25.5395 L299.4418,25.5395 M299.3948,28.5667 L304.3811,28.606 L304.3811,29.4984 L299.3948,29.4984" fill="#000000"/><text fill="#212529" font-family="Arial" font-size="12" lengthAdjust="spacing" textLength="58.7051" x="210.9717" y="47.2559">Application</text><text fill="#212529" font-family="Arial" font-size="12" lengthAdjust="spacing" textLength="3.334" x="269.6768" y="47.2559">&#160;</text><text fill="#212529" font-family="Arial" font-size="12" lengthAdjust="spacing" textLength="30.0176" x="273.0107" y="47.2559">Layer</text></g><!--entity api_service--><g class="entity" data-entity="api_service" data-source-line="167" data-uid="ent0007" id="entity_api_service"><rect fill="#C2F0FF" height="52.7988" rx="0.5" ry="0.5" style="stroke:#181818;stroke-width:0.5;" width="140" x="727" y="109.8"/><path d="M856.76,124.439 L841.934,124.486 A0.5001,0.5001 0 0 0 841.4343,124.9857 L841.4343,126.4233 L838.9461,126.4037 A0.5001,0.5001 0 0 0 838.4417,126.9039 L838.4417,128.8392 A0.5001,0.5001 0 0 0 838.942,129.3395 L841.4225,129.3395 L841.3987,130.3823 L838.8991,130.3626 A0.5001,0.5001 0 0 0 838.3952,130.8628 L838.3952,132.7981 A0.5001,0.5001 0 0 0 838.8949,133.2984 L841.3873,133.2984 L841.3873,136.3003 A0.5001,0.5001 0 0 0 841.8876,136.8005 L856.7606,136.847 A0.5001,0.5001 0 0 0 857.2624,136.3473 L857.2624,124.9393 A0.5001,0.5001 0 0 0 856.7606,124.4391 M856.2618,125.441 L856.2618,135.845 L842.3868,135.8021 L842.3868,133.2984 L844.8812,133.2984 A0.5001,0.5001 0 0 0 845.381,132.7982 L845.381,130.9099 A0.5001,0.5001 0 0 0 844.8849,130.4097 L842.3987,130.39 L842.4225,129.3394 L844.9278,129.3394 A0.5001,0.5001 0 0 0 845.428,128.8392 L845.428,126.9504 A0.5001,0.5001 0 0 0 844.9319,126.4507 L842.4339,126.431 L842.4339,125.4838 M839.4418,127.4078 L844.4281,127.4466 L844.4281,128.3395 L839.4418,128.3395 M839.3948,131.3667 L844.3811,131.406 L844.3811,132.2984 L839.3948,132.2984" fill="#000000"/><text fill="#212529" font-family="Arial" font-size="12" lengthAdjust="spacing" textLength="32.0039" x="747.9863" y="150.0559">REST</text><text fill="#212529" font-family="Arial" font-size="12" lengthAdjust="spacing" textLength="3.334" x="779.9902" y="150.0559">&#160;</text><text fill="#212529" font-family="Arial" font-size="12" lengthAdjust="spacing" textLength="19.3418" x="783.3242" y="150.0559">API</text><text fill="#212529" font-family="Arial" font-size="12" lengthAdjust="spacing" textLength="3.334" x="802.666" y="150.0559">&#160;</text><text fill="#212529" font-family="Arial" font-size="12" lengthAdjust="spacing" textLength="40.0137" x="806" y="150.0559">Service</text></g><!--entity admin_panel--><g class="entity" data-entity="admin_panel" data-source-line="167" data-uid="ent0008" id="entity_admin_panel"><rect fill="#C2F0FF" height="52.7988" rx="0.5" ry="0.5" style="stroke:#181818;stroke-width:0.5;" width="140" x="547" y="212.6"/><path d="M676.76,227.239 L661.934,227.286 A0.5001,0.5001 0 0 0 661.4343,227.7857 L661.4343,229.2233 L658.9461,229.2037 A0.5001,0.5001 0 0 0 658.4417,229.7039 L658.4417,231.6392 A0.5001,0.5001 0 0 0 658.942,232.1395 L661.4225,232.1395 L661.3987,233.1823 L658.8991,233.1626 A0.5001,0.5001 0 0 0 658.3952,233.6628 L658.3952,235.5981 A0.5001,0.5001 0 0 0 658.8949,236.0984 L661.3873,236.0984 L661.3873,239.1003 A0.5001,0.5001 0 0 0 661.8876,239.6005 L676.7606,239.647 A0.5001,0.5001 0 0 0 677.2624,239.1473 L677.2624,227.7393 A0.5001,0.5001 0 0 0 676.7606,227.2391 M676.2618,228.241 L676.2618,238.645 L662.3868,238.6021 L662.3868,236.0984 L664.8812,236.0984 A0.5001,0.5001 0 0 0 665.381,235.5982 L665.381,233.7099 A0.5001,0.5001 0 0 0 664.8849,233.2096 L662.3987,233.19 L662.4225,232.1394 L664.9278,232.1394 A0.5001,0.5001 0 0 0 665.428,231.6392 L665.428,229.7504 A0.5001,0.5001 0 0 0 664.9319,229.2507 L662.4339,229.231 L662.4339,228.2838 M659.4418,230.2078 L664.4281,230.2466 L664.4281,231.1395 L659.4418,231.1395 M659.3948,234.1667 L664.3811,234.206 L664.3811,235.0984 L659.3948,235.0984" fill="#000000"/><text fill="#212529" font-family="Arial" font-size="12" lengthAdjust="spacing" textLength="34.0137" x="582.9805" y="252.8559">Admin</text><text fill="#212529" font-family="Arial" font-size="12" lengthAdjust="spacing" textLength="3.334" x="616.9941" y="252.8559">&#160;</text><text fill="#212529" font-family="Arial" font-size="12" lengthAdjust="spacing" textLength="30.6914" x="620.3281" y="252.8559">Panel</text></g><!--entity technology_layer--><g class="entity" data-entity="technology_layer" data-source-line="203" data-uid="ent0009" id="entity_technology_layer"><rect fill="#C9FFC9" height="52.7988" rx="0.5" ry="0.5" style="stroke:#181818;stroke-width:0.5;" width="140" x="367" y="7"/><path d="M484.023,19.9 A0.5001,0.5001 0 0 0 483.7186,19.9992 L479.6176,23.0745 L479.6032,23.0854 L479.6037,23.0859 A0.5001,0.5001 0 0 0 479.4021,23.488 L479.4492,32.2358 A0.5001,0.5001 0 0 0 479.9473,32.7318 L491.8743,32.7788 A0.5001,0.5001 0 0 0 492.3105,32.5267 L496.2534,29.4468 A0.5001,0.5001 0 0 0 496.4446,29.0525 L496.4446,20.4918 A0.5001,0.5001 0 0 0 495.9485,19.9915 M484.1832,20.8999 L494.4572,20.98 L491.7127,23.0321 L481.3957,22.9913 M495.4452,21.4911 L495.4452,28.808 L492.3767,31.2073 L492.3767,23.7824 M480.4042,23.9876 L491.3762,24.031 L491.3762,31.7768 L480.4462,31.7339" fill="#000000"/><text fill="#212529" font-family="Arial" font-size="12" lengthAdjust="spacing" textLength="62.0391" x="389.3047" y="47.2559">Technology</text><text fill="#212529" font-family="Arial" font-size="12" lengthAdjust="spacing" textLength="3.334" x="451.3438" y="47.2559">&#160;</text><text fill="#212529" font-family="Arial" font-size="12" lengthAdjust="spacing" textLength="30.0176" x="454.6777" y="47.2559">Layer</text></g><!--entity postgres_db--><g class="entity" data-entity="postgres_db" data-source-line="203" data-uid="ent0010" id="entity_postgres_db"><rect fill="#C9FFC9" height="52.7988" rx="0.5" ry="0.5" style="stroke:#181818;stroke-width:0.5;" width="140" x="367" y="212.6"/><path d="M484.023,225.5 A0.5001,0.5001 0 0 0 483.7186,225.5992 L479.6176,228.6745 L479.6032,228.6854 L479.6037,228.6859 A0.5001,0.5001 0 0 0 479.4021,229.088 L479.4492,237.8358 A0.5001,0.5001 0 0 0 479.9473,238.3318 L491.8743,238.3788 A0.5001,0.5001 0 0 0 492.3105,238.1267 L496.2534,235.0468 A0.5001,0.5001 0 0 0 496.4446,234.6525 L496.4446,226.0918 A0.5001,0.5001 0 0 0 495.9485,225.5915 M484.1832,226.4999 L494.4572,226.58 L491.7127,228.6321 L481.3957,228.5913 M495.4452,227.0911 L495.4452,234.408 L492.3767,236.8073 L492.3767,229.3824 M480.4042,229.5876 L491.3762,229.631 L491.3762,237.3768 L480.4462,237.3339" fill="#000000"/><text fill="#212529" font-family="Arial" font-size="12" lengthAdjust="spacing" textLength="65.3672" x="404.3164" y="252.8559">PostgreSQL</text></g><!--entity sqlite_db--><g class="entity" data-entity="sqlite_db" data-source-line="203" data-uid="ent0011" id="entity_sqlite_db"><rect fill="#C9FFC9" height="52.7988" rx="0.5" ry="0.5" style="stroke:#181818;stroke-width:0.5;" width="140" x="727" y="212.6"/><path d="M844.023,225.5 A0.5001,0.5001 0 0 0 843.7186,225.5992 L839.6176,228.6745 L839.6032,228.6854 L839.6037,228.6859 A0.5001,0.5001 0 0 0 839.4021,229.088 L839.4492,237.8358 A0.5001,0.5001 0 0 0 839.9473,238.3318 L851.8743,238.3788 A0.5001,0.5001 0 0 0 852.3105,238.1267 L856.2534,235.0468 A0.5001,0.5001 0 0 0 856.4446,234.6525 L856.4446,226.0918 A0.5001,0.5001 0 0 0 855.9485,225.5915 M844.1832,226.4999 L854.4572,226.58 L851.7127,228.6321 L841.3957,228.5913 M855.4452,227.0911 L855.4452,234.408 L852.3767,236.8073 L852.3767,229.3824 M840.4042,229.5876 L851.3762,229.631 L851.3762,237.3768 L840.4462,237.3339" fill="#000000"/><text fill="#212529" font-family="Arial" font-size="12" lengthAdjust="spacing" textLength="36.6855" x="778.6572" y="252.8559">SQLite</text></g><!--entity flask_framework--><g class="entity" data-entity="flask_framework" data-source-line="210" data-uid="ent0012" id="entity_flask_framework"><rect fill="#C9FFC9" height="52.7988" rx="0.5" ry="0.5" style="stroke:#181818;stroke-width:0.5;" width="140" x="907" y="212.6"/><path d="M1027.99,225.95 C1025.4646,225.9117 1023.1708,227.4095 1022.1842,229.7208 C1020.8098,230.8772 1019.9437,232.6166 1019.9668,234.5479 C1020.0076,237.9672 1022.8204,240.7194 1026.2398,240.6845 C1028.7722,240.6586 1030.94,239.1111 1031.8824,236.9209 A0.5,0.5 0 0 0 1031.8943,236.9109 C1033.8762,235.2433 1034.6149,232.5151 1033.7459,230.0751 C1032.8769,227.6351 1030.58,225.9891 1027.9902,225.9498 M1027.9745,226.9499 C1030.1503,226.9829 1032.0725,228.3607 1032.8026,230.4107 C1033.3329,231.8997 1033.152,233.512 1032.3752,234.8197 C1032.3822,234.6877 1032.3856,234.5548 1032.3842,234.4208 C1032.355,231.0014 1029.5519,228.2412 1026.1324,228.2646 A0.5,0.5 0 0 0 1026.1128,228.2726 A0.5,0.5 0 0 0 1026.0911,228.2646 C1025.3765,228.2746 1024.6916,228.4052 1024.0551,228.6372 C1025.0409,227.5625 1026.4559,226.9269 1027.9742,226.95 M1026.1229,229.2567 A0.5,0.5 0 0 0 1026.1405,229.2647 C1029.0202,229.245 1031.3601,231.5512 1031.3846,234.4308 C1031.4092,237.3104 1029.1079,239.6553 1026.2283,239.6847 C1023.3487,239.7141 1021.0009,237.4157 1020.9666,234.5362 C1020.9477,232.9478 1021.6368,231.5199 1022.7422,230.552 A0.5,0.5 0 0 0 1023.0073,230.3345 C1023.8661,229.6769 1024.9377,229.2807 1026.1053,229.2648 A0.5,0.5 0 0 0 1026.1229,229.2568" fill="#000000"/><text fill="#212529" font-family="Arial" font-size="12" lengthAdjust="spacing" textLength="28.6699" x="930.9951" y="252.8559">Flask</text><text fill="#212529" font-family="Arial" font-size="12" lengthAdjust="spacing" textLength="3.334" x="959.665" y="252.8559">&#160;</text><text fill="#212529" font-family="Arial" font-size="12" lengthAdjust="spacing" textLength="60.0059" x="962.999" y="252.8559">Framework</text></g><!--entity physical_layer--><g class="entity" data-entity="physical_layer" data-source-line="253" data-uid="ent0013" id="entity_physical_layer"><rect fill="#97FF97" height="52.7988" rx="0.5" ry="0.5" style="stroke:#181818;stroke-width:0.5;" width="140" x="7" y="109.8"/><path d="M132.8798,120.1801 C132.7306,120.1807 132.5742,120.2045 132.4157,120.2441 C131.9932,120.3499 131.6365,120.5493 131.4995,120.9076 C131.3626,121.266 131.4788,121.5481 131.5445,121.7587 C131.6102,121.9694 131.6615,122.1414 131.6634,122.2832 C131.6652,122.4251 131.6455,122.5437 131.4789,122.7426 C131.3122,122.9416 131.1997,122.9816 131.0598,123.0046 C130.9198,123.0277 130.7412,123.0071 130.5223,122.9793 C130.3034,122.9515 130.0046,122.8886 129.6759,123.0863 C129.3471,123.284 129.2139,123.6703 129.1839,124.1048 C129.1539,124.5393 129.2321,124.9402 129.5306,125.1812 C129.8291,125.4223 130.1327,125.4003 130.3533,125.4029 C130.5739,125.4055 130.7548,125.4084 130.8902,125.4505 C131.0257,125.4925 131.1318,125.5488 131.2695,125.7688 C131.4072,125.9887 131.4103,126.1086 131.3889,126.2489 C131.3676,126.389 131.2923,126.5521 131.1982,126.7517 C131.1638,126.8245 131.1219,126.9061 131.0866,126.9982 C131.096,126.9406 131.1016,126.8795 131.1016,126.8147 C131.1015,126.4338 130.8524,126.0729 130.4701,125.7951 C130.0878,125.5174 129.6671,125.3933 129.3048,125.5109 C128.9425,125.6285 128.7635,125.8809 128.618,126.0566 C128.4725,126.2324 128.358,126.3556 128.2656,126.406 C128.1732,126.4563 128.0937,126.4889 127.8191,126.3998 C127.5445,126.3105 127.4979,126.2369 127.4527,126.1419 C127.4075,126.0469 127.388,125.8792 127.3736,125.6515 C127.3588,125.4238 127.3631,125.1142 127.139,124.8061 C126.9146,124.4983 126.5015,124.3529 126.029,124.3528 C125.5565,124.3528 125.142,124.4974 124.9179,124.8055 C124.6939,125.1136 124.6972,125.4237 124.6828,125.6515 C124.6684,125.8792 124.65,126.0458 124.6048,126.1409 C124.5595,126.2359 124.5135,126.31 124.2389,126.3993 C123.9642,126.4884 123.8823,126.4553 123.7898,126.4049 C123.6974,126.3547 123.5845,126.2308 123.4389,126.0551 C123.2934,125.8793 123.1134,125.6281 122.7511,125.5104 C122.3888,125.3929 121.9696,125.5184 121.5874,125.7962 C121.2052,126.0741 120.956,126.4338 120.9559,126.8148 C120.9557,127.1957 121.1401,127.4442 121.2623,127.6369 C121.3845,127.8297 121.4663,127.9774 121.4855,128.0809 C121.5044,128.1843 121.5118,128.271 121.3419,128.5046 C121.1721,128.7382 121.0871,128.7587 120.9829,128.7726 C120.8786,128.7865 120.7131,128.7528 120.492,128.6961 C120.271,128.6394 119.9783,128.541 119.6161,128.6589 C119.2538,128.7767 118.9887,129.1254 118.8425,129.5746 C118.6965,130.024 118.7071,130.4632 118.9309,130.7714 C119.1545,131.0798 119.4494,131.1721 119.6616,131.2561 C119.8737,131.3402 120.027,131.4101 120.1034,131.4825 C120.1798,131.5548 120.2368,131.6216 120.2367,131.9104 C120.2367,132.1991 120.1793,132.2649 120.1029,132.3372 C120.0264,132.4096 119.8737,132.48 119.6616,132.5641 C119.4494,132.6481 119.1547,132.741 118.9309,133.0493 C118.7071,133.3576 118.6965,133.7952 118.8425,134.2446 C118.9885,134.694 119.2539,135.0414 119.6161,135.1593 C119.9784,135.2772 120.271,135.1809 120.492,135.1242 C120.713,135.0675 120.8786,135.0336 120.9829,135.0472 C121.0873,135.0609 121.1734,135.0818 121.3431,135.3154 C121.5129,135.549 121.505,135.6352 121.4858,135.7386 C121.4664,135.8421 121.3837,135.9898 121.2615,136.1825 C121.1393,136.3753 120.9565,136.6227 120.9566,137.0037 C120.9567,137.3846 121.2043,137.746 121.5865,138.0238 C121.9688,138.3015 122.389,138.4251 122.7513,138.3075 C123.1136,138.1899 123.2931,137.9401 123.4386,137.7644 C123.5842,137.5886 123.6981,137.4633 123.7905,137.4129 C123.8829,137.3626 123.9645,137.3295 124.2391,137.4186 C124.5137,137.5079 124.5587,137.582 124.6039,137.677 C124.6491,137.772 124.6686,137.9397 124.683,138.1674 C124.6979,138.3951 124.6951,138.7047 124.9191,139.0128 C125.1436,139.3206 125.5566,139.4676 126.0291,139.4676 C126.5017,139.4676 126.9141,139.3214 127.1381,139.0134 C127.3621,138.7053 127.3588,138.3952 127.3732,138.1674 C127.3876,137.9397 127.4081,137.7731 127.4533,137.678 C127.4985,137.583 127.5446,137.5089 127.8192,137.4196 C128.0938,137.3304 128.1737,137.3636 128.2662,137.414 C128.3586,137.4642 128.4736,137.588 128.6191,137.7638 C128.7646,137.9396 128.9444,138.1905 129.3069,138.308 C129.6692,138.4256 130.0884,138.3005 130.4707,138.0227 C130.8528,137.7448 131.102,137.3846 131.1021,137.0037 C131.1023,136.6227 130.9179,136.3742 130.7957,136.1815 C130.6735,135.9888 130.5918,135.8431 130.5725,135.7397 C130.5536,135.6362 130.5445,135.548 130.7146,135.3144 C130.8843,135.0808 130.9709,135.0603 131.0751,135.0465 C131.1794,135.0325 131.3429,135.0663 131.564,135.1229 C131.785,135.1796 132.0776,135.278 132.4399,135.1601 C132.8021,135.0423 133.0695,134.6932 133.2156,134.2439 C133.3616,133.7945 133.351,133.3579 133.1272,133.0496 C132.9035,132.7412 132.6091,132.6469 132.397,132.5628 C132.1848,132.4788 132.031,132.4083 131.9546,132.336 C131.8782,132.2637 131.8213,132.1989 131.8213,131.9102 C131.8213,131.6214 131.8788,131.5541 131.9551,131.4818 C132.0316,131.4094 132.1843,131.339 132.3965,131.2549 C132.6086,131.1708 132.9034,131.0774 133.1271,130.7691 C133.3509,130.4609 133.3615,130.0232 133.2155,129.5738 C133.0695,129.1244 132.8026,128.7775 132.4404,128.6597 C132.0781,128.5418 131.7855,128.6403 131.5644,128.6969 C131.3434,128.7536 131.1779,128.7855 131.0735,128.7718 C130.9692,128.7581 130.8851,128.7388 130.7154,128.5051 C130.5456,128.2716 130.553,128.1838 130.5723,128.0804 C130.5916,127.9769 130.6728,127.8292 130.795,127.6365 C130.8667,127.5233 130.9597,127.3911 131.0244,127.2241 C131.0074,127.3326 131.0076,127.4532 131.0389,127.5884 C131.1253,127.9622 131.4504,128.2101 131.8543,128.3728 C132.2583,128.5356 132.6641,128.5833 132.9855,128.3739 C133.307,128.1644 133.382,127.8693 133.4527,127.6602 C133.5233,127.4512 133.5827,127.2815 133.6645,127.1657 C133.7464,127.0499 133.8314,126.9667 134.0832,126.9037 C134.3349,126.8407 134.4494,126.8742 134.5761,126.9378 C134.7029,127.0014 134.8356,127.1235 134.9963,127.2747 C135.1571,127.4258 135.3613,127.6517 135.7435,127.685 C136.1257,127.7184 136.4591,127.4836 136.7388,127.1497 C137.0185,126.8158 137.1921,126.4447 137.0923,126.0743 C136.9925,125.7038 136.7334,125.5436 136.5564,125.4118 C136.3795,125.28 136.2351,125.1709 136.1502,125.0573 C136.0654,124.9436 136.013,124.8366 136.0309,124.5777 C136.0487,124.3188 136.1157,124.2192 136.2153,124.1183 C136.315,124.0174 136.4722,123.9298 136.6654,123.8232 C136.8588,123.7171 137.1373,123.593 137.2871,123.2398 C137.4369,122.8866 137.3177,122.4959 137.0866,122.1267 L137.0866,122.1262 C136.8555,121.757 136.5567,121.4791 136.1735,121.4596 C135.7904,121.4401 135.5577,121.6359 135.3777,121.7635 C135.1979,121.8914 135.0489,121.9933 134.9147,122.0389 C134.7804,122.0845 134.6608,122.1028 134.4201,122.0058 C134.1794,121.9088 134.1075,121.815 134.0424,121.689 C133.9772,121.5631 133.9415,121.3865 133.9003,121.1697 C133.859,120.9529 133.8271,120.6508 133.5375,120.3992 C133.3565,120.2419 133.1283,120.179 132.8796,120.1801 M132.871,121.1748 C132.8824,121.2089 132.9014,121.2675 132.918,121.3552 C132.955,121.5495 132.995,121.8417 133.1537,122.1484 C133.3123,122.4551 133.6122,122.7568 134.0477,122.9323 C134.4831,123.1078 134.9092,123.0986 135.2362,122.9876 C135.5632,122.8767 135.7947,122.6943 135.9561,122.5799 C136.029,122.5287 136.0835,122.4997 136.1152,122.4833 C136.1396,122.5106 136.1799,122.5625 136.2391,122.6576 C136.2988,122.7534 136.3281,122.8126 136.3424,122.8462 C136.3134,122.8679 136.263,122.9047 136.1842,122.948 C136.0108,123.0432 135.7479,123.1706 135.5052,123.4162 C135.2626,123.6619 135.0658,124.0392 135.0334,124.5076 C135.0011,124.976 135.1426,125.3797 135.3492,125.6564 C135.5554,125.9334 135.8013,126.0953 135.96,126.2134 C136.0311,126.2664 136.0753,126.3091 136.1011,126.3344 C136.0821,126.3656 136.0452,126.4207 135.9729,126.507 C135.9005,126.5935 135.8528,126.6393 135.8251,126.6635 C135.7961,126.6426 135.7461,126.6062 135.6815,126.5452 C135.5373,126.4097 135.3328,126.1978 135.0242,126.0429 C134.7155,125.888 134.2957,125.8183 133.8403,125.9323 C133.3848,126.0463 133.0469,126.3056 132.8475,126.5876 C132.6482,126.8696 132.5677,127.1526 132.5044,127.34 C132.4757,127.425 132.4486,127.4812 132.4325,127.5136 C132.3968,127.5052 132.333,127.4868 132.2289,127.4449 C132.1247,127.403 132.0665,127.3719 132.0351,127.3529 C132.0459,127.3188 132.0649,127.2591 132.1034,127.1777 C132.1877,126.9988 132.3254,126.7404 132.3773,126.399 C132.4292,126.0576 132.366,125.6363 132.1168,125.2383 C131.8677,124.8404 131.516,124.5991 131.1861,124.4968 C130.8564,124.3944 130.5629,124.4061 130.365,124.4038 C130.276,124.4028 130.2151,124.3938 130.1795,124.3883 C130.1764,124.3519 130.1738,124.2856 130.1816,124.1728 C130.1894,124.0603 130.2007,123.9954 130.2089,123.9599 C130.2448,123.9593 130.307,123.959 130.3955,123.9702 C130.5918,123.9951 130.88,124.0475 131.2208,123.9914 C131.5615,123.9353 131.9435,123.7431 132.245,123.3832 C132.5464,123.0233 132.6681,122.6159 132.6636,122.2706 C132.6591,121.9253 132.5571,121.6497 132.4982,121.4608 C132.4715,121.3754 132.461,121.3148 132.4548,121.2794 C132.4887,121.2651 132.5508,121.2416 132.66,121.2143 C132.7688,121.187 132.8343,121.1784 132.8708,121.175 M133.3961,123.2646 C132.7152,123.2737 132.1617,123.8416 132.1698,124.5224 C132.1778,125.2033 132.7446,125.7562 133.4255,125.7492 C134.1065,125.7422 134.6617,125.1781 134.656,124.4971 C134.65,123.8162 134.0848,123.26 133.4039,123.2647 A0.2407,0.2407 0 0 0 133.4005,123.2685 A0.2407,0.2407 0 0 0 133.3962,123.2642 M133.4079,124.0615 A0.2407,0.2407 0 0 0 133.4101,124.0636 C133.6592,124.0616 133.8529,124.2538 133.855,124.5029 C133.857,124.7519 133.6669,124.9479 133.4178,124.9504 C133.1687,124.9534 132.9717,124.7618 132.9688,124.5127 C132.9658,124.2636 133.1569,124.067 133.406,124.0637 A0.2407,0.2407 0 0 0 133.4081,124.0615 M126.0286,125.3529 C126.2788,125.3529 126.3231,125.3832 126.3293,125.3921 L126.3293,125.3926 L126.3298,125.3932 L126.3298,125.3937 L126.3298,125.3942 L126.3293,125.3942 C126.3259,125.3905 126.363,125.4973 126.3768,125.7151 C126.3907,125.9329 126.3942,126.2408 126.551,126.5704 C126.7077,126.8999 127.0414,127.1997 127.5091,127.3517 C127.9768,127.5037 128.4247,127.459 128.7452,127.2845 C129.0657,127.11 129.2489,126.8625 129.388,126.6944 C129.5265,126.5271 129.6188,126.4619 129.6149,126.4629 L129.6149,126.4624 L129.6149,126.4618 L129.6154,126.4613 L129.6159,126.4613 L129.6164,126.4608 L129.6169,126.4608 C129.6273,126.4568 129.6812,126.4583 129.8836,126.6055 C130.0861,126.7526 130.1037,126.8032 130.1033,126.8142 L130.1032,126.8153 L130.1027,126.8158 L130.1027,126.8163 L130.1022,126.8163 C130.1014,126.8119 130.0678,126.9189 129.9513,127.1026 C129.8345,127.2869 129.656,127.5381 129.5891,127.8969 C129.5222,128.2556 129.6163,128.6953 129.9053,129.0931 C130.194,129.4912 130.5821,129.7162 130.944,129.7634 C131.3059,129.8106 131.6018,129.7186 131.8132,129.6642 C132.0239,129.6102 132.1351,129.6105 132.131,129.6089 L132.1315,129.6089 L132.1315,129.6084 L132.132,129.6084 L132.1326,129.6084 C132.141,129.6096 132.1846,129.6367 132.2649,129.8838 C132.3422,130.1218 132.3265,130.1733 132.3196,130.182 L132.3191,130.1825 L132.3186,130.183 L132.3176,130.183 L132.3176,130.1825 C132.3204,130.1779 132.2313,130.245 132.0282,130.3252 C131.8253,130.4056 131.5336,130.5057 131.2686,130.7567 C131.0036,131.0076 130.8221,131.4173 130.8221,131.909 C130.8221,132.4008 131.002,132.811 131.267,133.0619 C131.532,133.3129 131.8243,133.4125 132.0272,133.4929 C132.2292,133.573 132.3192,133.64 132.3171,133.6366 L132.3176,133.6366 L132.3181,133.6371 L132.3186,133.6371 L132.3186,133.6376 C132.3242,133.6434 132.3445,133.6886 132.2644,133.9353 C132.187,134.1733 132.1442,134.2061 132.1336,134.2092 L132.1326,134.2092 L132.1321,134.2092 L132.1316,134.2092 L132.1316,134.2086 C132.1354,134.207 132.0229,134.2079 131.8122,134.1539 C131.6008,134.0997 131.3075,134.0069 130.9456,134.0541 C130.5837,134.1012 130.1954,134.3291 129.9063,134.7269 C129.6173,135.1248 129.5211,135.5624 129.588,135.9212 C129.6549,136.28 129.8334,136.5317 129.9503,136.716 C130.0668,136.8997 130.102,137.0061 130.1022,137.0017 L130.1027,137.0017 L130.1027,137.0022 L130.1033,137.0022 L130.1033,137.0028 L130.1033,137.0033 C130.1049,137.0121 130.0933,137.0614 129.8831,137.2141 C129.6809,137.3615 129.6268,137.3618 129.6165,137.3578 L129.616,137.3573 L129.6155,137.3573 L129.6149,137.3568 L129.6149,137.3562 L129.6149,137.3557 C129.6191,137.3563 129.5271,137.2921 129.3886,137.1247 C129.2494,136.9566 129.0661,136.7083 128.7453,136.534 C128.4247,136.3595 127.9784,136.3154 127.5107,136.4674 C127.043,136.6194 126.7068,136.9187 126.5501,137.2482 C126.3933,137.5778 126.3908,137.8872 126.377,138.105 C126.3632,138.3228 126.327,138.428 126.33,138.4239 L126.3305,138.4239 L126.3305,138.4244 L126.3305,138.4249 L126.33,138.4254 C126.326,138.4334 126.2883,138.4656 126.0282,138.4657 C125.7779,138.4657 125.7331,138.4355 125.7269,138.4265 L125.7269,138.4259 L125.7264,138.4254 L125.7264,138.4249 L125.7264,138.4244 L125.7269,138.4244 L125.7274,138.4249 C125.7308,138.4286 125.6952,138.3213 125.6814,138.1035 C125.6676,137.8857 125.6641,137.5773 125.5073,137.2477 C125.3505,136.9182 125.0148,136.6188 124.5471,136.4669 C124.0795,136.3149 123.6342,136.3612 123.3136,136.5356 C122.9931,136.7101 122.8074,136.9577 122.6682,137.1258 C122.5294,137.2935 122.4396,137.3591 122.4439,137.3578 L122.4439,137.3583 L122.4434,137.3588 L122.4429,137.3594 L122.4418,137.3594 C122.4315,137.3634 122.3776,137.3623 122.1752,137.2152 C121.9649,137.0624 121.9539,137.0121 121.9556,137.0033 L121.9556,137.0028 L121.9556,137.0023 L121.9561,137.0023 C121.9561,137.0073 121.9901,136.9019 122.107,136.7175 C122.2238,136.5332 122.4023,136.2805 122.4692,135.9217 C122.5361,135.563 122.4405,135.1253 122.1514,134.7275 C121.8627,134.3294 121.4741,134.1024 121.1122,134.0552 C120.7504,134.008 120.4565,134.1001 120.2451,134.1545 C120.0337,134.2087 119.922,134.2076 119.9268,134.2092 L119.9268,134.2097 L119.9268,134.2103 L119.9263,134.2103 L119.9257,134.2103 L119.9252,134.2103 C119.9168,134.2091 119.8723,134.184 119.7919,133.9369 C119.7116,133.6898 119.733,133.6419 119.7397,133.6356 L119.7402,133.6356 L119.7402,133.6351 L119.7407,133.6351 L119.7407,133.6356 C119.7379,133.6403 119.8274,133.5741 120.0301,133.4936 C120.233,133.4131 120.5253,133.3151 120.7903,133.0641 C121.0553,132.8132 121.2362,132.4014 121.2362,131.9097 C121.2362,131.418 121.0562,131.0072 120.7913,130.7563 C120.5263,130.5054 120.232,130.4062 120.0291,130.3258 C119.8262,130.2454 119.7362,130.1796 119.7392,130.1837 L119.7387,130.1837 L119.7381,130.1837 L119.7382,130.1832 C119.7319,130.1766 119.7116,130.1306 119.7919,129.8835 C119.8722,129.6363 119.9169,129.6107 119.9257,129.6096 L119.9268,129.6096 L119.9268,129.6101 C119.923,129.6117 120.0339,129.6109 120.2446,129.6649 C120.456,129.7191 120.7514,129.8113 121.1133,129.7641 C121.4751,129.717 121.8629,129.4912 122.1519,129.0934 C122.441,128.6955 122.5351,128.2563 122.4682,127.8976 C122.4013,127.5388 122.2228,127.2871 122.1059,127.1028 C121.9894,126.919 121.9563,126.8121 121.9561,126.8165 L121.9556,126.8165 L121.955,126.816 L121.955,126.8155 C121.9534,126.8067 121.965,126.7574 122.1752,126.6046 C122.3774,126.4572 122.432,126.4569 122.4424,126.461 L122.4429,126.4615 L122.4434,126.4615 L122.4434,126.462 L122.4439,126.462 L122.4439,126.4626 C122.4391,126.4612 122.5309,126.5264 122.6697,126.6941 C122.8089,126.8622 122.9928,127.1095 123.3131,127.2842 C123.6336,127.4587 124.08,127.5028 124.5477,127.3509 C125.0153,127.1989 125.3495,126.9001 125.5063,126.5705 C125.663,126.241 125.6682,125.9336 125.682,125.7158 C125.6957,125.4987 125.7312,125.3915 125.7285,125.3949 L125.728,125.3949 L125.728,125.3944 L125.728,125.3939 L125.7285,125.3934 L125.7285,125.3928 L125.729,125.3923 C125.7347,125.383 125.7779,125.3529 126.0287,125.3531 M126.0327,129.38 C124.6241,129.3992 123.4847,130.5561 123.5016,131.9581 C123.5185,133.3603 124.6849,134.488 126.0937,134.4737 C127.5024,134.4594 128.6467,133.3076 128.6346,131.9054 C128.6224,130.5032 127.459,129.3704 126.0502,129.38 A0.2407,0.2407 0 0 0 126.0427,129.3882 A0.2407,0.2407 0 0 0 126.033,129.3803 M126.0508,130.1732 A0.2407,0.2407 0 0 0 126.0564,130.179 C127.0371,130.172 127.8252,130.9446 127.8335,131.9112 C127.8415,132.8778 127.0665,133.6629 126.0858,133.6729 C125.1051,133.6829 124.3141,132.915 124.3025,131.9485 C124.2909,130.9819 125.0639,130.1923 126.0445,130.1791 A0.2407,0.2407 0 0 0 126.0504,130.1736" fill="#000000"/><text fill="#212529" font-family="Arial" font-size="12" lengthAdjust="spacing" textLength="44.6836" x="37.9824" y="150.0559">Physical</text><text fill="#212529" font-family="Arial" font-size="12" lengthAdjust="spacing" textLength="3.334" x="82.666" y="150.0559">&#160;</text><text fill="#212529" font-family="Arial" font-size="12" lengthAdjust="spacing" textLength="30.0176" x="86" y="150.0559">Layer</text></g><!--entity production_server--><g class="entity" data-entity="production_server" data-source-line="253" data-uid="ent0014" id="entity_production_server"><rect fill="#97FF97" height="52.7988" rx="0.5" ry="0.5" style="stroke:#181818;stroke-width:0.5;" width="140" x="367" y="315.4"/><path d="M492.8798,325.7801 C492.7306,325.7807 492.5742,325.8045 492.4157,325.8441 C491.9932,325.9499 491.6365,326.1493 491.4995,326.5076 C491.3626,326.866 491.4788,327.1481 491.5445,327.3587 C491.6102,327.5694 491.6615,327.7414 491.6634,327.8832 C491.6652,328.0251 491.6455,328.1437 491.4789,328.3426 C491.3122,328.5416 491.1997,328.5816 491.0598,328.6046 C490.9198,328.6277 490.7412,328.6071 490.5223,328.5793 C490.3034,328.5515 490.0046,328.4886 489.6759,328.6863 C489.3471,328.884 489.2139,329.2703 489.1839,329.7048 C489.1539,330.1393 489.2321,330.5402 489.5306,330.7812 C489.8291,331.0223 490.1327,331.0003 490.3533,331.0029 C490.5739,331.0055 490.7548,331.0084 490.8902,331.0505 C491.0257,331.0925 491.1318,331.1488 491.2695,331.3688 C491.4072,331.5887 491.4103,331.7086 491.3889,331.8489 C491.3676,331.989 491.2923,332.1521 491.1982,332.3517 C491.1638,332.4245 491.1219,332.5061 491.0866,332.5982 C491.096,332.5406 491.1016,332.4795 491.1016,332.4147 C491.1015,332.0338 490.8524,331.6729 490.4701,331.3951 C490.0878,331.1174 489.6671,330.9933 489.3048,331.1109 C488.9425,331.2285 488.7635,331.4809 488.618,331.6566 C488.4725,331.8324 488.358,331.9556 488.2656,332.006 C488.1732,332.0563 488.0937,332.0889 487.8191,331.9998 C487.5445,331.9105 487.4979,331.8369 487.4527,331.7419 C487.4075,331.6469 487.388,331.4792 487.3736,331.2515 C487.3588,331.0238 487.3631,330.7142 487.139,330.4061 C486.9146,330.0983 486.5015,329.9529 486.029,329.9528 C485.5565,329.9528 485.142,330.0974 484.9179,330.4055 C484.6939,330.7136 484.6972,331.0237 484.6828,331.2515 C484.6684,331.4792 484.65,331.6458 484.6048,331.7409 C484.5595,331.8359 484.5135,331.91 484.2389,331.9993 C483.9642,332.0884 483.8823,332.0553 483.7898,332.0049 C483.6974,331.9547 483.5845,331.8308 483.4389,331.6551 C483.2934,331.4793 483.1134,331.2281 482.7511,331.1104 C482.3888,330.9929 481.9696,331.1184 481.5874,331.3962 C481.2052,331.6741 480.956,332.0338 480.9559,332.4148 C480.9557,332.7957 481.1401,333.0442 481.2623,333.2369 C481.3845,333.4297 481.4663,333.5774 481.4855,333.6809 C481.5044,333.7843 481.5118,333.871 481.3419,334.1046 C481.1721,334.3382 481.0871,334.3587 480.9829,334.3726 C480.8786,334.3865 480.7131,334.3528 480.492,334.2961 C480.271,334.2394 479.9783,334.141 479.6161,334.2589 C479.2538,334.3767 478.9887,334.7254 478.8425,335.1746 C478.6965,335.624 478.7071,336.0632 478.9309,336.3714 C479.1545,336.6798 479.4494,336.7721 479.6616,336.8561 C479.8737,336.9402 480.027,337.0101 480.1034,337.0825 C480.1798,337.1548 480.2368,337.2216 480.2367,337.5104 C480.2367,337.7991 480.1793,337.8649 480.1029,337.9372 C480.0264,338.0096 479.8737,338.08 479.6616,338.1641 C479.4494,338.2481 479.1547,338.341 478.9309,338.6493 C478.7071,338.9576 478.6965,339.3952 478.8425,339.8446 C478.9885,340.294 479.2539,340.6414 479.6161,340.7593 C479.9784,340.8772 480.271,340.7809 480.492,340.7242 C480.713,340.6675 480.8786,340.6336 480.9829,340.6472 C481.0873,340.6609 481.1734,340.6818 481.3431,340.9154 C481.5129,341.149 481.505,341.2352 481.4858,341.3386 C481.4664,341.4421 481.3837,341.5898 481.2615,341.7825 C481.1393,341.9753 480.9565,342.2227 480.9566,342.6037 C480.9567,342.9846 481.2043,343.346 481.5865,343.6238 C481.9688,343.9015 482.389,344.0251 482.7513,343.9075 C483.1136,343.7899 483.2931,343.5401 483.4386,343.3644 C483.5842,343.1886 483.6981,343.0633 483.7905,343.0129 C483.8829,342.9626 483.9645,342.9295 484.2391,343.0186 C484.5137,343.1079 484.5587,343.182 484.6039,343.277 C484.6491,343.372 484.6686,343.5397 484.683,343.7674 C484.6979,343.9951 484.6951,344.3047 484.9191,344.6128 C485.1436,344.9206 485.5566,345.0676 486.0291,345.0676 C486.5017,345.0676 486.9141,344.9214 487.1381,344.6134 C487.3621,344.3053 487.3588,343.9952 487.3732,343.7674 C487.3876,343.5397 487.4081,343.3731 487.4533,343.278 C487.4985,343.183 487.5446,343.1089 487.8192,343.0196 C488.0938,342.9304 488.1737,342.9636 488.2662,343.014 C488.3586,343.0642 488.4736,343.188 488.6191,343.3638 C488.7646,343.5396 488.9444,343.7905 489.3069,343.908 C489.6692,344.0256 490.0884,343.9005 490.4707,343.6227 C490.8528,343.3448 491.102,342.9846 491.1021,342.6037 C491.1023,342.2227 490.9179,341.9742 490.7957,341.7815 C490.6735,341.5888 490.5918,341.4431 490.5725,341.3397 C490.5536,341.2362 490.5445,341.148 490.7146,340.9144 C490.8843,340.6808 490.9709,340.6603 491.0751,340.6465 C491.1794,340.6325 491.3429,340.6663 491.564,340.7229 C491.785,340.7796 492.0776,340.878 492.4399,340.7601 C492.8021,340.6423 493.0695,340.2932 493.2156,339.8439 C493.3616,339.3945 493.351,338.9579 493.1272,338.6496 C492.9035,338.3412 492.6091,338.2469 492.397,338.1628 C492.1848,338.0788 492.031,338.0083 491.9546,337.936 C491.8782,337.8637 491.8213,337.7989 491.8213,337.5102 C491.8213,337.2214 491.8788,337.1541 491.9551,337.0818 C492.0316,337.0094 492.1843,336.939 492.3965,336.8549 C492.6086,336.7708 492.9034,336.6774 493.1271,336.3691 C493.3509,336.0609 493.3615,335.6232 493.2155,335.1738 C493.0695,334.7244 492.8026,334.3775 492.4404,334.2597 C492.0781,334.1418 491.7855,334.2403 491.5644,334.2969 C491.3434,334.3536 491.1779,334.3855 491.0735,334.3718 C490.9692,334.3581 490.8851,334.3388 490.7154,334.1051 C490.5456,333.8716 490.553,333.7838 490.5723,333.6804 C490.5916,333.5769 490.6728,333.4292 490.795,333.2365 C490.8667,333.1233 490.9597,332.9911 491.0244,332.8241 C491.0074,332.9326 491.0076,333.0532 491.0389,333.1884 C491.1253,333.5622 491.4504,333.8101 491.8543,333.9728 C492.2583,334.1356 492.6641,334.1833 492.9855,333.9739 C493.307,333.7644 493.382,333.4693 493.4527,333.2602 C493.5233,333.0512 493.5827,332.8815 493.6645,332.7657 C493.7464,332.6499 493.8314,332.5667 494.0832,332.5037 C494.3349,332.4407 494.4494,332.4742 494.5761,332.5378 C494.7029,332.6014 494.8356,332.7235 494.9963,332.8747 C495.1571,333.0258 495.3613,333.2517 495.7435,333.285 C496.1257,333.3184 496.4591,333.0836 496.7388,332.7497 C497.0185,332.4158 497.1921,332.0447 497.0923,331.6743 C496.9925,331.3038 496.7334,331.1436 496.5564,331.0118 C496.3795,330.88 496.2351,330.7709 496.1502,330.6573 C496.0654,330.5436 496.013,330.4366 496.0309,330.1777 C496.0487,329.9188 496.1157,329.8192 496.2153,329.7183 C496.315,329.6174 496.4722,329.5298 496.6654,329.4232 C496.8588,329.3171 497.1373,329.193 497.2871,328.8398 C497.4369,328.4866 497.3177,328.0959 497.0866,327.7267 L497.0866,327.7262 C496.8555,327.357 496.5567,327.0791 496.1735,327.0596 C495.7904,327.0401 495.5577,327.2359 495.3777,327.3635 C495.1979,327.4914 495.0489,327.5933 494.9147,327.6389 C494.7804,327.6845 494.6608,327.7028 494.4201,327.6058 C494.1794,327.5088 494.1075,327.415 494.0424,327.289 C493.9772,327.1631 493.9415,326.9865 493.9003,326.7697 C493.859,326.5529 493.8271,326.2508 493.5375,325.9992 C493.3565,325.8419 493.1283,325.779 492.8796,325.7801 M492.871,326.7748 C492.8824,326.8089 492.9014,326.8675 492.918,326.9552 C492.955,327.1495 492.995,327.4417 493.1537,327.7484 C493.3123,328.0551 493.6122,328.3568 494.0477,328.5323 C494.4831,328.7078 494.9092,328.6986 495.2362,328.5876 C495.5632,328.4767 495.7947,328.2943 495.9561,328.1799 C496.029,328.1287 496.0835,328.0997 496.1152,328.0833 C496.1396,328.1106 496.1799,328.1625 496.2391,328.2576 C496.2988,328.3534 496.3281,328.4126 496.3424,328.4462 C496.3134,328.4679 496.263,328.5047 496.1842,328.548 C496.0108,328.6432 495.7479,328.7706 495.5052,329.0162 C495.2626,329.2619 495.0658,329.6392 495.0334,330.1076 C495.0011,330.576 495.1426,330.9797 495.3492,331.2564 C495.5554,331.5334 495.8013,331.6953 495.96,331.8134 C496.0311,331.8664 496.0753,331.9091 496.1011,331.9344 C496.0821,331.9656 496.0452,332.0207 495.9729,332.107 C495.9005,332.1935 495.8528,332.2393 495.8251,332.2635 C495.7961,332.2426 495.7461,332.2062 495.6815,332.1452 C495.5373,332.0097 495.3328,331.7978 495.0242,331.6429 C494.7155,331.488 494.2957,331.4183 493.8403,331.5323 C493.3848,331.6463 493.0469,331.9056 492.8475,332.1876 C492.6482,332.4696 492.5677,332.7526 492.5044,332.94 C492.4757,333.025 492.4486,333.0812 492.4325,333.1136 C492.3968,333.1052 492.333,333.0868 492.2289,333.0449 C492.1247,333.003 492.0665,332.9719 492.0351,332.9529 C492.0459,332.9188 492.0649,332.8591 492.1034,332.7777 C492.1877,332.5988 492.3254,332.3404 492.3773,331.999 C492.4292,331.6576 492.366,331.2363 492.1168,330.8383 C491.8677,330.4404 491.516,330.1991 491.1861,330.0968 C490.8564,329.9944 490.5629,330.0061 490.365,330.0038 C490.276,330.0028 490.2151,329.9938 490.1795,329.9883 C490.1764,329.9519 490.1738,329.8856 490.1816,329.7728 C490.1894,329.6603 490.2007,329.5954 490.2089,329.5599 C490.2448,329.5593 490.307,329.559 490.3955,329.5702 C490.5918,329.5951 490.88,329.6475 491.2208,329.5914 C491.5615,329.5353 491.9435,329.3431 492.245,328.9832 C492.5464,328.6233 492.6681,328.2159 492.6636,327.8706 C492.6591,327.5253 492.5571,327.2497 492.4982,327.0608 C492.4715,326.9754 492.461,326.9148 492.4548,326.8794 C492.4887,326.8651 492.5508,326.8416 492.66,326.8143 C492.7688,326.787 492.8343,326.7784 492.8708,326.775 M493.3961,328.8646 C492.7152,328.8737 492.1617,329.4416 492.1698,330.1224 C492.1778,330.8033 492.7446,331.3562 493.4255,331.3492 C494.1065,331.3422 494.6617,330.7781 494.656,330.0971 C494.65,329.4162 494.0848,328.86 493.4039,328.8647 A0.2407,0.2407 0 0 0 493.4005,328.8685 A0.2407,0.2407 0 0 0 493.3962,328.8642 M493.4079,329.6615 A0.2407,0.2407 0 0 0 493.4101,329.6636 C493.6592,329.6616 493.8529,329.8538 493.855,330.1029 C493.857,330.3519 493.6669,330.5479 493.4178,330.5504 C493.1687,330.5534 492.9717,330.3618 492.9688,330.1127 C492.9658,329.8636 493.1569,329.667 493.406,329.6637 A0.2407,0.2407 0 0 0 493.4081,329.6615 M486.0286,330.9529 C486.2788,330.9529 486.3231,330.9832 486.3293,330.9921 L486.3293,330.9926 L486.3298,330.9932 L486.3298,330.9937 L486.3298,330.9942 L486.3293,330.9942 C486.3259,330.9905 486.363,331.0973 486.3768,331.3151 C486.3907,331.5329 486.3942,331.8408 486.551,332.1704 C486.7077,332.4999 487.0414,332.7997 487.5091,332.9517 C487.9768,333.1037 488.4247,333.059 488.7452,332.8845 C489.0657,332.71 489.2489,332.4625 489.388,332.2944 C489.5265,332.1271 489.6188,332.0619 489.6149,332.0629 L489.6149,332.0624 L489.6149,332.0618 L489.6154,332.0613 L489.6159,332.0613 L489.6164,332.0608 L489.6169,332.0608 C489.6273,332.0568 489.6812,332.0583 489.8836,332.2055 C490.0861,332.3526 490.1037,332.4032 490.1033,332.4142 L490.1032,332.4153 L490.1027,332.4158 L490.1027,332.4163 L490.1022,332.4163 C490.1014,332.4119 490.0678,332.5189 489.9513,332.7026 C489.8345,332.8869 489.656,333.1381 489.5891,333.4969 C489.5222,333.8556 489.6163,334.2953 489.9053,334.6931 C490.194,335.0912 490.5821,335.3162 490.944,335.3634 C491.3059,335.4106 491.6018,335.3186 491.8132,335.2642 C492.0239,335.2102 492.1351,335.2105 492.131,335.2089 L492.1315,335.2089 L492.1315,335.2084 L492.132,335.2084 L492.1326,335.2084 C492.141,335.2096 492.1846,335.2367 492.2649,335.4838 C492.3422,335.7218 492.3265,335.7733 492.3196,335.782 L492.3191,335.7825 L492.3186,335.783 L492.3176,335.783 L492.3176,335.7825 C492.3204,335.7779 492.2313,335.845 492.0282,335.9252 C491.8253,336.0056 491.5336,336.1057 491.2686,336.3567 C491.0036,336.6076 490.8221,337.0173 490.8221,337.509 C490.8221,338.0008 491.002,338.411 491.267,338.6619 C491.532,338.9129 491.8243,339.0125 492.0272,339.0929 C492.2292,339.173 492.3192,339.24 492.3171,339.2366 L492.3176,339.2366 L492.3181,339.2371 L492.3186,339.2371 L492.3186,339.2376 C492.3242,339.2434 492.3445,339.2886 492.2644,339.5353 C492.187,339.7733 492.1442,339.8061 492.1336,339.8092 L492.1326,339.8092 L492.1321,339.8092 L492.1316,339.8092 L492.1316,339.8086 C492.1354,339.807 492.0229,339.8079 491.8122,339.7539 C491.6008,339.6997 491.3075,339.6069 490.9456,339.6541 C490.5837,339.7012 490.1954,339.9291 489.9063,340.3269 C489.6173,340.7248 489.5211,341.1624 489.588,341.5212 C489.6549,341.88 489.8334,342.1317 489.9503,342.316 C490.0668,342.4997 490.102,342.6061 490.1022,342.6017 L490.1027,342.6017 L490.1027,342.6022 L490.1033,342.6022 L490.1033,342.6028 L490.1033,342.6033 C490.1049,342.6121 490.0933,342.6614 489.8831,342.8141 C489.6809,342.9615 489.6268,342.9618 489.6165,342.9578 L489.616,342.9573 L489.6155,342.9573 L489.6149,342.9568 L489.6149,342.9562 L489.6149,342.9557 C489.6191,342.9563 489.5271,342.8921 489.3886,342.7247 C489.2494,342.5566 489.0661,342.3083 488.7453,342.134 C488.4247,341.9595 487.9784,341.9154 487.5107,342.0674 C487.043,342.2194 486.7068,342.5187 486.5501,342.8482 C486.3933,343.1778 486.3908,343.4872 486.377,343.705 C486.3632,343.9228 486.327,344.028 486.33,344.0239 L486.3305,344.0239 L486.3305,344.0244 L486.3305,344.0249 L486.33,344.0254 C486.326,344.0334 486.2883,344.0656 486.0282,344.0657 C485.7779,344.0657 485.7331,344.0355 485.7269,344.0265 L485.7269,344.0259 L485.7264,344.0254 L485.7264,344.0249 L485.7264,344.0244 L485.7269,344.0244 L485.7274,344.0249 C485.7308,344.0286 485.6952,343.9213 485.6814,343.7035 C485.6676,343.4857 485.6641,343.1773 485.5073,342.8477 C485.3505,342.5182 485.0148,342.2188 484.5471,342.0669 C484.0795,341.9149 483.6342,341.9612 483.3136,342.1356 C482.9931,342.3101 482.8074,342.5577 482.6682,342.7258 C482.5294,342.8935 482.4396,342.9591 482.4439,342.9578 L482.4439,342.9583 L482.4434,342.9588 L482.4429,342.9594 L482.4418,342.9594 C482.4315,342.9634 482.3776,342.9623 482.1752,342.8152 C481.9649,342.6624 481.9539,342.6121 481.9556,342.6033 L481.9556,342.6028 L481.9556,342.6023 L481.9561,342.6023 C481.9561,342.6073 481.9901,342.5019 482.107,342.3175 C482.2238,342.1332 482.4023,341.8805 482.4692,341.5217 C482.5361,341.163 482.4405,340.7253 482.1514,340.3275 C481.8627,339.9294 481.4741,339.7024 481.1122,339.6552 C480.7504,339.608 480.4565,339.7001 480.2451,339.7545 C480.0337,339.8087 479.922,339.8076 479.9268,339.8092 L479.9268,339.8097 L479.9268,339.8103 L479.9263,339.8103 L479.9257,339.8103 L479.9252,339.8103 C479.9168,339.8091 479.8723,339.784 479.7919,339.5369 C479.7116,339.2898 479.733,339.2419 479.7397,339.2356 L479.7402,339.2356 L479.7402,339.2351 L479.7407,339.2351 L479.7407,339.2356 C479.7379,339.2403 479.8274,339.1741 480.0301,339.0936 C480.233,339.0131 480.5253,338.9151 480.7903,338.6641 C481.0553,338.4132 481.2362,338.0014 481.2362,337.5097 C481.2362,337.018 481.0562,336.6072 480.7913,336.3563 C480.5263,336.1054 480.232,336.0062 480.0291,335.9258 C479.8262,335.8454 479.7362,335.7796 479.7392,335.7837 L479.7387,335.7837 L479.7381,335.7837 L479.7382,335.7832 C479.7319,335.7766 479.7116,335.7306 479.7919,335.4835 C479.8722,335.2363 479.9169,335.2107 479.9257,335.2096 L479.9268,335.2096 L479.9268,335.2101 C479.923,335.2117 480.0339,335.2109 480.2446,335.2649 C480.456,335.3191 480.7514,335.4113 481.1133,335.3641 C481.4751,335.317 481.8629,335.0912 482.1519,334.6934 C482.441,334.2955 482.5351,333.8563 482.4682,333.4976 C482.4013,333.1388 482.2228,332.8871 482.1059,332.7028 C481.9894,332.519 481.9563,332.4121 481.9561,332.4165 L481.9556,332.4165 L481.955,332.416 L481.955,332.4155 C481.9534,332.4067 481.965,332.3574 482.1752,332.2046 C482.3774,332.0572 482.432,332.0569 482.4424,332.061 L482.4429,332.0615 L482.4434,332.0615 L482.4434,332.062 L482.4439,332.062 L482.4439,332.0626 C482.4391,332.0612 482.5309,332.1264 482.6697,332.2941 C482.8089,332.4622 482.9928,332.7095 483.3131,332.8842 C483.6336,333.0587 484.08,333.1028 484.5477,332.9509 C485.0153,332.7989 485.3495,332.5001 485.5063,332.1705 C485.663,331.841 485.6682,331.5336 485.682,331.3158 C485.6957,331.0987 485.7312,330.9915 485.7285,330.9949 L485.728,330.9949 L485.728,330.9944 L485.728,330.9939 L485.7285,330.9934 L485.7285,330.9928 L485.729,330.9923 C485.7347,330.983 485.7779,330.9529 486.0287,330.9531 M486.0327,334.98 C484.6241,334.9992 483.4847,336.1561 483.5016,337.5581 C483.5185,338.9603 484.6849,340.088 486.0937,340.0737 C487.5024,340.0594 488.6467,338.9076 488.6346,337.5054 C488.6224,336.1032 487.459,334.9704 486.0502,334.98 A0.2407,0.2407 0 0 0 486.0427,334.9882 A0.2407,0.2407 0 0 0 486.033,334.9803 M486.0508,335.7732 A0.2407,0.2407 0 0 0 486.0564,335.779 C487.0371,335.772 487.8252,336.5446 487.8335,337.5112 C487.8415,338.4778 487.0665,339.2629 486.0858,339.2729 C485.1051,339.2829 484.3141,338.515 484.3025,337.5485 C484.2909,336.5819 485.0639,335.7923 486.0445,335.7791 A0.2407,0.2407 0 0 0 486.0504,335.7736" fill="#000000"/><text fill="#212529" font-family="Arial" font-size="12" lengthAdjust="spacing" textLength="57.3691" x="388.9766" y="355.6559">Production</text><text fill="#212529" font-family="Arial" font-size="12" lengthAdjust="spacing" textLength="3.334" x="446.3457" y="355.6559">&#160;</text><text fill="#212529" font-family="Arial" font-size="12" lengthAdjust="spacing" textLength="35.3438" x="449.6797" y="355.6559">Server</text></g><!--entity motivation_layer--><g class="entity" data-entity="motivation_layer" data-source-line="280" data-uid="ent0015" id="entity_motivation_layer"><path d="M199,109.8 L315,109.8 L327,121.8 L327,150.5988 L315,162.5988 L199,162.5988 L187,150.5988 L187,121.8 L199,109.8" fill="#CCCCFF" style="stroke:#181818;stroke-width:0.5;"/><path d="M308.025,123.554 A0.5,0.5 0 0 0 308.0038,123.5638 A0.5,0.5 0 0 0 307.9842,123.556 C304.565,123.6025 301.8182,126.42 301.859,129.8393 C301.8997,133.2586 304.7111,136.0088 308.1305,135.9738 C311.5499,135.9388 314.3066,133.1316 314.2774,129.7122 C314.2482,126.2928 311.4446,123.5305 308.0251,123.5539 M308.0234,124.5441 A0.5,0.5 0 0 0 308.0327,124.5539 C310.9124,124.5342 313.2528,126.8404 313.2773,129.72 C313.3019,132.5996 311.0006,134.9445 308.121,134.9739 C305.2414,135.0034 302.8936,132.707 302.8593,129.8274 C302.825,126.9479 305.118,124.5951 307.9975,124.5559 A0.5,0.5 0 0 0 308.0233,124.544 M308.0151,125.896 C305.8867,125.925 304.1734,127.6815 304.1988,129.81 C304.2242,131.9385 305.9786,133.6558 308.1071,133.6341 C310.2356,133.6124 311.9555,131.8606 311.9374,129.732 C311.9192,127.6035 310.1696,125.8815 308.041,125.8961 A0.5,0.5 0 0 0 308.0291,125.9075 A0.5,0.5 0 0 0 308.0152,125.8961 M308.0425,126.8898 A0.5,0.5 0 0 0 308.0487,126.896 C309.6374,126.8851 310.9239,128.151 310.9374,129.7398 C310.9509,131.3285 309.686,132.618 308.0973,132.6342 C306.5086,132.6504 305.2177,131.3869 305.1988,129.7982 C305.1799,128.2095 306.4405,126.9177 308.0291,126.8961 A0.5,0.5 0 0 0 308.0425,126.8899 M308.0446,128.0773 C307.1253,128.0898 306.3697,128.8654 306.3806,129.7847 C306.3916,130.704 307.1666,131.4617 308.0859,131.4523 C309.0052,131.4429 309.7634,130.6689 309.7556,129.7496 C309.7478,128.8302 308.9758,128.0711 308.0565,128.0774 A0.959,0.959 0 0 0 308.0503,128.0836 A0.959,0.959 0 0 0 308.0446,128.0774" fill="#000000"/><text fill="#212529" font-family="Arial" font-size="12" lengthAdjust="spacing" textLength="54.6914" x="212.9785" y="150.0559">Motivation</text><text fill="#212529" font-family="Arial" font-size="12" lengthAdjust="spacing" textLength="3.334" x="267.6699" y="150.0559">&#160;</text><text fill="#212529" font-family="Arial" font-size="12" lengthAdjust="spacing" textLength="30.0176" x="271.0039" y="150.0559">Layer</text></g><!--entity scalability--><g class="entity" data-entity="scalability" data-source-line="280" data-uid="ent0016" id="entity_scalability"><path d="M379,109.8 L495,109.8 L507,121.8 L507,150.5988 L495,162.5988 L379,162.5988 L367,150.5988 L367,121.8 L379,109.8" fill="#CCCCFF" style="stroke:#181818;stroke-width:0.5;"/><path d="M488.025,123.554 A0.5,0.5 0 0 0 488.0038,123.5638 A0.5,0.5 0 0 0 487.9842,123.556 C484.565,123.6025 481.8182,126.42 481.859,129.8393 C481.8997,133.2586 484.7111,136.0088 488.1305,135.9738 C491.5499,135.9388 494.3066,133.1316 494.2774,129.7122 C494.2482,126.2928 491.4446,123.5305 488.0251,123.5539 M488.0234,124.5441 A0.5,0.5 0 0 0 488.0327,124.5539 C490.9124,124.5342 493.2528,126.8404 493.2773,129.72 C493.3019,132.5996 491.0006,134.9445 488.121,134.9739 C485.2414,135.0034 482.8936,132.707 482.8593,129.8274 C482.825,126.9479 485.118,124.5951 487.9975,124.5559 A0.5,0.5 0 0 0 488.0233,124.544 M488.0151,125.896 C485.8867,125.925 484.1734,127.6815 484.1988,129.81 C484.2242,131.9385 485.9786,133.6558 488.1071,133.6341 C490.2356,133.6124 491.9555,131.8606 491.9374,129.732 C491.9192,127.6035 490.1696,125.8815 488.041,125.8961 A0.5,0.5 0 0 0 488.0291,125.9075 A0.5,0.5 0 0 0 488.0152,125.8961 M488.0425,126.8898 A0.5,0.5 0 0 0 488.0487,126.896 C489.6374,126.8851 490.9239,128.151 490.9374,129.7398 C490.9509,131.3285 489.686,132.618 488.0973,132.6342 C486.5086,132.6504 485.2177,131.3869 485.1988,129.7982 C485.1799,128.2095 486.4405,126.9177 488.0291,126.8961 A0.5,0.5 0 0 0 488.0425,126.8899 M488.0446,128.0773 C487.1253,128.0898 486.3697,128.8654 486.3806,129.7847 C486.3916,130.704 487.1666,131.4617 488.0859,131.4523 C489.0052,131.4429 489.7634,130.6689 489.7556,129.7496 C489.7478,128.8302 488.9758,128.0711 488.0565,128.0774 A0.959,0.959 0 0 0 488.0503,128.0836 A0.959,0.959 0 0 0 488.0446,128.0774" fill="#000000"/><text fill="#212529" font-family="Arial" font-size="12" lengthAdjust="spacing" textLength="54.0234" x="409.9883" y="150.0559">Scalability</text></g><!--entity clean_architecture--><g class="entity" data-entity="clean_architecture" data-source-line="286" data-uid="ent0017" id="entity_clean_architecture"><path d="M1113,7 L1229,7 L1241,19 L1241,47.7988 L1229,59.7988 L1113,59.7988 L1101,47.7988 L1101,19 L1113,7" fill="#CCCCFF" style="stroke:#181818;stroke-width:0.5;"/><path d="M1222.04,20.367 C1220.3983,20.371 1218.7553,20.4398 1217.4361,20.5722 C1216.7765,20.6383 1216.199,20.7197 1215.7329,20.8218 C1215.4003,20.8946 1215.1772,21.0153 1214.9402,21.1422 L1214.7645,21.1422 L1214.6219,21.2713 C1214.3417,21.5254 1214.2336,21.8408 1214.1237,22.2263 C1214.0138,22.6118 1213.9326,23.0732 1213.8679,23.5952 C1213.7384,24.6393 1213.6833,25.9215 1213.6922,27.2048 C1213.7012,28.4881 1213.7736,29.7682 1213.9072,30.8103 C1213.9739,31.3313 1214.0552,31.792 1214.1568,32.1735 C1214.2584,32.555 1214.3479,32.8543 1214.5945,33.1151 C1214.8998,33.4381 1215.2254,33.4785 1215.6787,33.574 C1216.1319,33.6694 1216.7001,33.7436 1217.3525,33.8024 C1218.6573,33.9199 1220.2991,33.9744 1221.9424,33.9703 C1223.5858,33.9662 1225.2262,33.9022 1226.5282,33.7827 C1227.1791,33.723 1227.7442,33.6505 1228.1942,33.5584 C1228.6443,33.4664 1228.9581,33.435 1229.2686,33.1249 C1229.5266,32.867 1229.6248,32.5604 1229.7311,32.1776 C1229.8373,31.7949 1229.9214,31.3354 1229.9889,30.8159 C1230.1239,29.777 1230.1937,28.5023 1230.2018,27.2244 C1230.2098,25.9465 1230.1558,24.6691 1230.038,23.6267 C1229.9791,23.1055 1229.9039,22.6437 1229.8076,22.2593 C1229.7113,21.875 1229.6227,21.5732 1229.3854,21.3085 C1229.0913,20.9805 1228.7501,20.9144 1228.294,20.8083 C1227.8378,20.7021 1227.2715,20.6198 1226.6202,20.5545 C1225.3176,20.4239 1223.6818,20.363 1222.0401,20.3669 M1222.044,21.3669 C1223.6593,21.363 1225.2708,21.4251 1226.5207,21.5504 C1227.1457,21.6131 1227.6805,21.6929 1228.0674,21.7829 C1228.3944,21.859 1228.6193,21.9876 1228.6472,21.9881 L1228.6482,21.9881 L1228.6488,21.9876 C1228.6754,22.0388 1228.7712,22.2336 1228.8389,22.5038 C1228.9184,22.821 1228.9884,23.2476 1229.0441,23.7399 C1229.1554,24.7246 1229.2101,25.9728 1229.2022,27.2182 C1229.1942,28.4636 1229.1241,29.7091 1228.9971,30.6872 C1228.9336,31.1763 1228.8551,31.5986 1228.7687,31.9099 C1228.7004,32.1561 1228.6086,32.3328 1228.5749,32.3941 C1228.5453,32.3914 1228.3111,32.5147 1227.9935,32.5797 C1227.6037,32.6594 1227.065,32.7313 1226.4365,32.7889 C1225.1795,32.9043 1223.5582,32.9663 1221.9386,32.9703 C1220.319,32.9743 1218.6977,32.9197 1217.4407,32.8065 C1216.8122,32.7499 1216.2746,32.677 1215.8857,32.5951 C1215.5688,32.5284 1215.3422,32.4047 1215.3111,32.4055 C1215.2803,32.3446 1215.19,32.1634 1215.124,31.9156 C1215.0403,31.6013 1214.9628,31.1753 1214.8997,30.6831 C1214.7736,29.6987 1214.7012,28.4468 1214.6925,27.197 C1214.6835,25.9472 1214.7391,24.6971 1214.8604,23.7187 C1214.9211,23.2295 1214.9997,22.8071 1215.0873,22.4997 C1215.167,22.2202 1215.2789,22.0398 1215.293,22.0145 C1215.3095,22.0143 1215.5732,21.8802 1215.9467,21.7985 C1216.3516,21.7098 1216.9009,21.6317 1217.5363,21.568 C1218.8071,21.4405 1220.4287,21.3709 1222.044,21.367 M1220.8446,22.6521 A0.5001,0.5001 0 0 0 1220.3568,23.2557 L1221.458,28.5019 A0.5001,0.5001 0 0 0 1222.4404,28.4802 L1223.3194,23.234 A0.5001,0.5001 0 0 0 1222.8274,22.6521 M1221.9345,30.0956 C1221.4553,30.1022 1221.0617,30.5067 1221.0674,30.986 C1221.0734,31.4654 1221.4769,31.8601 1221.9562,31.8552 C1222.4355,31.8503 1222.8316,31.4478 1222.8275,30.9685 C1222.8245,30.6241 1222.5849,30.381 1222.29,30.2398 A0.5,0.5 0 0 0 1222.1572,30.1856 C1222.0799,30.1634 1222.0244,30.0951 1221.9407,30.0956 A0.5,0.5 0 0 0 1221.9387,30.0977 A0.5,0.5 0 0 0 1221.9347,30.0956" fill="#000000"/><text fill="#212529" font-family="Arial" font-size="12" lengthAdjust="spacing" textLength="31.3535" x="1121.6436" y="47.2559">Clean</text><text fill="#212529" font-family="Arial" font-size="12" lengthAdjust="spacing" textLength="3.334" x="1152.9971" y="47.2559">&#160;</text><text fill="#212529" font-family="Arial" font-size="12" lengthAdjust="spacing" textLength="64.0254" x="1156.3311" y="47.2559">Architecture</text></g><!--link ltv_domain to api_service--><g class="link" data-entity-1="ltv_domain" data-entity-2="api_service" data-source-line="349" data-uid="lnk18" id="link_ltv_domain_api_service"><path d="M593.67,59.86 C593.67,86.35 593.67,123.2 593.67,123.2 C593.67,123.2 661.97,123.2 720.74,123.2" fill="none" id="ltv_domain-to-api_service" style="stroke:#007ACC;stroke-width:2;"/><polygon fill="#007ACC" points="726.74,123.2,717.74,119.2,721.74,123.2,717.74,127.2,726.74,123.2" style="stroke:#007ACC;stroke-width:2;"/><text fill="#212529" font-family="Arial" font-size="12" lengthAdjust="spacing" textLength="45.3574" x="555.53" y="120.4559">provides</text><text fill="#212529" font-family="Arial" font-size="12" lengthAdjust="spacing" textLength="3.334" x="600.8874" y="120.4559">&#160;</text><text fill="#212529" font-family="Arial" font-size="12" lengthAdjust="spacing" textLength="23.3555" x="604.2214" y="120.4559">data</text></g><!--link retention_domain to api_service--><g class="link" data-entity-1="retention_domain" data-entity-2="api_service" data-source-line="349" data-uid="lnk19" id="link_retention_domain_api_service"><path d="M797,60.14 C797,75.37 797,88.39 797,103.6" fill="none" id="retention_domain-to-api_service" style="stroke:#007ACC;stroke-width:2;"/><polygon fill="#007ACC" points="797,109.6,801,100.6,797,104.6,793,100.6,797,109.6" style="stroke:#007ACC;stroke-width:2;"/><text fill="#212529" font-family="Arial" font-size="12" lengthAdjust="spacing" textLength="45.3574" x="724" y="82.1259">provides</text><text fill="#212529" font-family="Arial" font-size="12" lengthAdjust="spacing" textLength="3.334" x="769.3574" y="82.1259">&#160;</text><text fill="#212529" font-family="Arial" font-size="12" lengthAdjust="spacing" textLength="23.3555" x="772.6914" y="82.1259">data</text></g><!--link lead_domain to api_service--><g class="link" data-entity-1="lead_domain" data-entity-2="api_service" data-source-line="349" data-uid="lnk20" id="link_lead_domain_api_service"><path d="M953.67,59.86 C953.67,86.35 953.67,123.2 953.67,123.2 C953.67,123.2 914.8,123.2 873.09,123.2" fill="none" id="lead_domain-to-api_service" style="stroke:#007ACC;stroke-width:2;"/><polygon fill="#007ACC" points="867.09,123.2,876.09,127.2,872.09,123.2,876.09,119.2,867.09,123.2" style="stroke:#007ACC;stroke-width:2;"/><text fill="#212529" font-family="Arial" font-size="12" lengthAdjust="spacing" textLength="45.3574" x="869.05" y="120.4559">provides</text><text fill="#212529" font-family="Arial" font-size="12" lengthAdjust="spacing" textLength="3.334" x="914.4074" y="120.4559">&#160;</text><text fill="#212529" font-family="Arial" font-size="12" lengthAdjust="spacing" textLength="23.3555" x="917.7414" y="120.4559">data</text></g><!--link api_service to admin_panel--><g class="link" data-entity-1="api_service" data-entity-2="admin_panel" data-source-line="349" data-uid="lnk21" id="link_api_service_admin_panel"><path d="M726.91,149.2 C685.2,149.2 640.33,149.2 640.33,149.2 C640.33,149.2 640.33,180.05 640.33,206.54" fill="none" id="api_service-to-admin_panel" style="stroke:#007ACC;stroke-width:2;"/><polygon fill="#007ACC" points="640.33,212.54,644.33,203.54,640.33,207.54,636.33,203.54,640.33,212.54" style="stroke:#007ACC;stroke-width:2;"/><text fill="#212529" font-family="Arial" font-size="12" lengthAdjust="spacing" textLength="49.3652" x="601.95" y="146.4559">manages</text></g><!--link api_service to flask_framework--><g class="link" data-entity-1="api_service" data-entity-2="flask_framework" data-source-line="349" data-uid="lnk22" id="link_api_service_flask_framework"><path d="M867.26,149.2 C926.03,149.2 1000.33,149.2 1000.33,149.2 C1000.33,149.2 1000.33,180.05 1000.33,206.54" fill="none" id="api_service-to-flask_framework" style="stroke:#007ACC;stroke-width:2;"/><polygon fill="#007ACC" points="1000.33,212.54,1004.33,203.54,1000.33,207.54,996.33,203.54,1000.33,212.54" style="stroke:#007ACC;stroke-width:2;"/><text fill="#212529" font-family="Arial" font-size="12" lengthAdjust="spacing" textLength="25.3477" x="939.47" y="146.4559">uses</text></g><!--link api_service to postgres_db--><g class="link" data-entity-1="api_service" data-entity-2="postgres_db" data-source-line="349" data-uid="lnk23" id="link_api_service_postgres_db"><path d="M726.77,136.2 C646.77,136.2 527,136.2 527,136.2 C527,136.2 527,239.2 527,239.2 C527,239.2 524.86,239.2 513.47,239.2" fill="none" id="api_service-to-postgres_db" style="stroke:#007ACC;stroke-width:2;"/><polygon fill="#007ACC" points="507.47,239.2,516.47,243.2,512.47,239.2,516.47,235.2,507.47,239.2" style="stroke:#007ACC;stroke-width:2;"/><text fill="#212529" font-family="Arial" font-size="12" lengthAdjust="spacing" textLength="41.3438" x="510.62" y="148.4559">persists</text><text fill="#212529" font-family="Arial" font-size="12" lengthAdjust="spacing" textLength="3.334" x="551.9638" y="148.4559">&#160;</text><text fill="#212529" font-family="Arial" font-size="12" lengthAdjust="spacing" textLength="10.0078" x="555.2977" y="148.4559">to</text></g><!--link api_service to sqlite_db--><g class="link" data-entity-1="api_service" data-entity-2="sqlite_db" data-source-line="349" data-uid="lnk24" id="link_api_service_sqlite_db"><path d="M797,162.94 C797,178.17 797,191.19 797,206.39" fill="none" id="api_service-to-sqlite_db" style="stroke:#007ACC;stroke-width:2;"/><polygon fill="#007ACC" points="797,212.39,801,203.39,797,207.39,793,203.39,797,212.39" style="stroke:#007ACC;stroke-width:2;"/><text fill="#212529" font-family="Arial" font-size="12" lengthAdjust="spacing" textLength="41.3438" x="742" y="184.9259">persists</text><text fill="#212529" font-family="Arial" font-size="12" lengthAdjust="spacing" textLength="3.334" x="783.3438" y="184.9259">&#160;</text><text fill="#212529" font-family="Arial" font-size="12" lengthAdjust="spacing" textLength="10.0078" x="786.6777" y="184.9259">to</text></g><!--link postgres_db to production_server--><g class="link" data-entity-1="postgres_db" data-entity-2="production_server" data-source-line="349" data-uid="lnk25" id="link_postgres_db_production_server"><path d="M437,277.74 C437,292.97 437,291.99 437,307.19" fill="none" id="postgres_db-production_server" style="stroke:#007ACC;stroke-width:2;"/><ellipse cx="437" cy="271.74" fill="#007ACC" rx="6" ry="6" style="stroke:#007ACC;stroke-width:1.5;"/><polygon fill="#007ACC" points="437,315.19,440,307.19,434,307.19,437,315.19" style="stroke:#007ACC;stroke-width:2;"/><text fill="#212529" font-family="Arial" font-size="12" lengthAdjust="spacing" textLength="48.709" x="371" y="287.7259">deployed</text><text fill="#212529" font-family="Arial" font-size="12" lengthAdjust="spacing" textLength="3.334" x="419.709" y="287.7259">&#160;</text><text fill="#212529" font-family="Arial" font-size="12" lengthAdjust="spacing" textLength="13.3477" x="423.043" y="287.7259">on</text></g><!--link scalability to postgres_db--><g class="link" data-entity-1="scalability" data-entity-2="postgres_db" data-source-line="349" data-uid="lnk26" id="link_scalability_postgres_db"><path d="M437,162.94 C437,178.17 437,191.19 437,206.39" fill="none" id="scalability-to-postgres_db" style="stroke:#007ACC;stroke-width:2;"/><polygon fill="#007ACC" points="437,212.39,441,203.39,437,207.39,433,203.39,437,212.39" style="stroke:#007ACC;stroke-width:2;"/><text fill="#212529" font-family="Arial" font-size="12" lengthAdjust="spacing" textLength="43.3535" x="393" y="184.9259">requires</text></g><!--link clean_architecture to api_service--><g class="link" data-entity-1="clean_architecture" data-entity-2="api_service" data-source-line="349" data-uid="lnk27" id="link_clean_architecture_api_service"><path d="M1171,60.14 C1171,90.6 1171,136.2 1171,136.2 C1171,136.2 981.69,136.2 873.35,136.2" fill="none" id="clean_architecture-to-api_service" style="stroke:#007ACC;stroke-width:2;"/><polygon fill="#007ACC" points="867.35,136.2,876.35,140.2,872.35,136.2,876.35,132.2,867.35,136.2" style="stroke:#007ACC;stroke-width:2;"/><text fill="#212529" font-family="Arial" font-size="12" lengthAdjust="spacing" textLength="42.0352" x="1014.2" y="133.4559">enables</text></g><!--SRC=[ZLRRZjis47tNLp39GroWGMntVGcmM42IxIB0Dd1Zjwy2BT4oOOfKI6eNRf5_x-X-8zsL7ooEpfaPZcOEzIwLE4um2YzOAgBHNyVTfxNpZlAGPH51ZrY65vfWJJwxzTsJuwWhvIcME44d75vZAJ8U-O89YJxiYgk3YCWPPqpl1DVVS4AGAobcvkS7-Wz1ixdvOUL_Ffilvbywa50agU24Q_IlWz19o8Z8uuM6LqwKGlF6Ll5_AwxSEifyc__WoRcJIhNIDqOG5pA1r16gM98JYMPJCAWBZiGhvJ7ICYFEJrDwZuzUfcYUrDDJcUguT4jlwGqJBgsRZSshcwQCXbXJmMsE7xR-ndyOEYwjTiT74buuGEERrU_2Msrc8x-5rUvtVxafI9ZPo-1EL-wu3BdLxlKFeUdBtIfyMM_M_dhejxJQ_HwqX9wtrs2tslZBtIZRmcht-ZL96KdWzcx6dhVU-TkXxz9gy-sD1g05SQ69ETBINotWfKs7iKfxDGNz2Un6PoGcFBAzpa8G1euts-ryk_nVnvHh8iyujAGzNxkhXyNGznGQnVTxVb9WulZkvkUspV_iLJ2oE2c3pjwI39PIl1PUT4-dGYiZ3wj8YXwc7QF4_9eR5rtZgT8Opo8k1gHHR3hPjlhYMOJ533PgJGlLZRnu5bqnOerAqtdHbRXu5bKn88qgq-AIHbWyYw8OiKQDQP6gaXNFeYS6f55VEgFIanJFeYLMl55XJ09JdeLPmkQEutn4szA9SkhJBTXB4SB_f6wmWE4RaR-YzpK2FUU6zx-CAKo_1958CEK0Vpx-ZJR5mWILH4DOoBmbVAzDTsYCuAWJ0bQeUfIVtWslSwW6VhtpIQUxcqrraCs-R6mQA29VQ4ZoPBU78tBtNz6XDDbfKK9va69EM1ukNw5zlW96UqG7tq0Y9ksSDFcra2Qz8IiLIiUIg20w0M5VhWv_FXkWwWUZcfH0GC1z7tIuAKsIWpZhLop9vComkWPdw1_oAkGLIBlSWdQr1TZrvq2m_P7HDE-bIJsQpIPgJBC54qcAA0kBukLLBdcDhIXpGMq_58BV1MQJTcQRS2sa2JXaAGYEJnIgSSjBqQxwsBs4BsaAWpO9eVDuK7nEmrlIcSoRmC-DoEqOWGv3zPsmWgykD5KEh8AYItZScv1-Gy7-NoWS4oZ26eERBciyB6_dzYRcxRGUij_32UPm5gjxX77ZPEe-ez_4AP6AAgsG5lT8tNOUKrmGXPYNpTNrRkgqYAHCt4Y411y4x7LAFqj9e7lbQ5-cLkaNdd1yOWNlFm00]--></g></svg>